STARTFONT 2.1
FONT -Baekmuk-Headline-Medium-R-Normal--24-240-75-75-M-240-ksx1001.1997-0
SIZE 24 75 75
FONTBOUNDINGBOX 27 25 -2 -5
STARTPROPERTIES 18
FOUNDRY "Baekmuk"
FAMILY_NAME "Headline"
WEIGHT_NAME "Medium"
SLANT "R"
SETWIDTH_NAME "Normal"
ADD_STYLE_NAME ""
PIXEL_SIZE 24
POINT_SIZE 240
RESOLUTION_X 75
RESOLUTION_Y 75
SPACING "M"
AVERAGE_WIDTH 240
CHARSET_REGISTRY "ksx1001.1997"
CHARSET_ENCODING "0"
DEFAULT_CHAR 8481
FONT_ASCENT 19
FONT_DESCENT 4
COPYRIGHT "(c)Hwan Design Inc. and Mizi Research Inc."
ENDPROPERTIES
CHARS 8224
STARTCHAR 3000
ENCODING 8481
SWIDTH 2700 0
DWIDTH 27 0
BBX 0 0 0 0
BITMAP
ENDCHAR
STARTCHAR 3001
ENCODING 8482
SWIDTH 2700 0
DWIDTH 27 0
BBX 4 5 16 14
BITMAP
F0
70
30
30
10
ENDCHAR
STARTCHAR 3002
ENCODING 8483
SWIDTH 2700 0
DWIDTH 27 0
BBX 5 5 4 14
BITMAP
70
F8
D8
F8
F8
ENDCHAR
STARTCHAR 00B7
ENCODING 8484
SWIDTH 2700 0
DWIDTH 27 0
BBX 4 3 10 6
BITMAP
60
F0
60
ENDCHAR
STARTCHAR 2025
ENCODING 8485
SWIDTH 2700 0
DWIDTH 27 0
BBX 14 3 5 6
BITMAP
6018
F03C
6018
ENDCHAR
STARTCHAR 2026
ENCODING 8486
SWIDTH 2700 0
DWIDTH 27 0
BBX 20 3 2 6
BITMAP
606060
F0F0F0
60E060
ENDCHAR
STARTCHAR 00A8
ENCODING 8487
SWIDTH 2700 0
DWIDTH 27 0
BBX 14 3 5 15
BITMAP
6018
F03C
6018
ENDCHAR
STARTCHAR 3003
ENCODING 8488
SWIDTH 2700 0
DWIDTH 27 0
BBX 12 10 6 3
BITMAP
20C0
3CF0
78F0
70E0
70C0
60C0
6180
C180
8100
8200
ENDCHAR
STARTCHAR 00AD
ENCODING 8489
SWIDTH 2700 0
DWIDTH 27 0
BBX 12 2 6 6
BITMAP
FFF0
FFF0
ENDCHAR
STARTCHAR 2015
ENCODING 8490
SWIDTH 2700 0
DWIDTH 27 0
BBX 14 2 5 6
BITMAP
FFFC
FFFC
ENDCHAR
STARTCHAR 2225
ENCODING 8491
SWIDTH 2700 0
DWIDTH 27 0
BBX 8 15 8 -1
BITMAP
FF
FF
FF
FF
FF
FF
FF
FF
FF
FF
FF
FF
FF
FF
FF
ENDCHAR
STARTCHAR FF3C
ENCODING 8492
SWIDTH 2700 0
DWIDTH 27 0
BBX 18 21 3 -3
BITMAP
400000
E00000
F00000
780000
3C0000
1E0000
0E0000
0F0000
078000
03C000
01E000
00F000
007800
003C00
001C00
000E00
000F00
000780
0003C0
0001C0
000080
ENDCHAR
STARTCHAR 223C
ENCODING 8493
SWIDTH 2700 0
DWIDTH 27 0
BBX 17 4 4 5
BITMAP
7FC700
FFFF80
FFFF00
407C00
ENDCHAR
STARTCHAR 2018
ENCODING 8494
SWIDTH 2700 0
DWIDTH 27 0
BBX 3 5 15 14
BITMAP
20
C0
E0
E0
E0
ENDCHAR
STARTCHAR 2019
ENCODING 8495
SWIDTH 2700 0
DWIDTH 27 0
BBX 4 5 5 14
BITMAP
60
F0
F0
60
C0
ENDCHAR
STARTCHAR 201C
ENCODING 8496
SWIDTH 2700 0
DWIDTH 27 0
BBX 8 5 13 14
BITMAP
21
46
E7
F7
E7
ENDCHAR
STARTCHAR 201D
ENCODING 8497
SWIDTH 2700 0
DWIDTH 27 0
BBX 9 5 3 14
BITMAP
6300
F780
F780
2100
C600
ENDCHAR
STARTCHAR 3014
ENCODING 8498
SWIDTH 2700 0
DWIDTH 27 0
BBX 8 23 14 -4
BITMAP
0E
FE
FE
F8
F0
F0
F0
F0
F0
F0
F0
F0
F0
F0
F0
F0
F0
F0
F0
F8
FF
FE
0E
ENDCHAR
STARTCHAR 3015
ENCODING 8499
SWIDTH 2700 0
DWIDTH 27 0
BBX 7 23 3 -4
BITMAP
E0
FE
FE
3E
1E
1E
1E
1E
1E
1E
1E
1E
1E
1E
1E
1E
1E
1E
1E
3E
FE
FE
C0
ENDCHAR
STARTCHAR 3008
ENCODING 8500
SWIDTH 2700 0
DWIDTH 27 0
BBX 10 22 11 -4
BITMAP
0180
03C0
0380
0780
0F00
0F00
1E00
3C00
3C00
7800
F000
7800
7800
3C00
1E00
1E00
0F00
0700
0780
03C0
01C0
0100
ENDCHAR
STARTCHAR 3009
ENCODING 8501
SWIDTH 2700 0
DWIDTH 27 0
BBX 9 22 3 -4
BITMAP
6000
E000
F000
7800
7800
3C00
1E00
1E00
0F00
0780
0780
0780
0F00
0F00
1E00
1C00
3C00
7800
7800
F000
E000
6000
ENDCHAR
STARTCHAR 300A
ENCODING 8502
SWIDTH 2700 0
DWIDTH 27 0
BBX 16 22 5 -4
BITMAP
01C6
03CF
078E
071E
0F3C
1E78
1C78
3CF0
79E0
F3E0
F3C0
F3C0
79E0
3DF0
3CF0
1E78
0F3C
0F3C
079E
03CF
01CF
0104
ENDCHAR
STARTCHAR 300B
ENCODING 8503
SWIDTH 2700 0
DWIDTH 27 0
BBX 16 23 3 -4
BITMAP
0100
6380
F3C0
F1E0
78E0
3CF0
3E78
1E3C
0F3C
079E
078F
03CF
03CF
079E
0F3C
0F3C
1E78
3CF0
78E0
79E0
F3C0
E380
6180
ENDCHAR
STARTCHAR 300C
ENCODING 8504
SWIDTH 2700 0
DWIDTH 27 0
BBX 11 12 11 7
BITMAP
FFE0
FFE0
FFE0
F000
F000
F000
F000
F000
F000
F000
F000
F000
ENDCHAR
STARTCHAR 300D
ENCODING 8505
SWIDTH 2700 0
DWIDTH 27 0
BBX 11 12 2 -5
BITMAP
01E0
01E0
01E0
01E0
01E0
01E0
01E0
01E0
01E0
FFE0
FFE0
FFE0
ENDCHAR
STARTCHAR 300E
ENCODING 8506
SWIDTH 2700 0
DWIDTH 27 0
BBX 11 12 13 7
BITMAP
7FE0
C060
C060
DFE0
D800
D800
D800
D800
D800
D800
D800
F800
ENDCHAR
STARTCHAR 300F
ENCODING 8507
SWIDTH 2700 0
DWIDTH 27 0
BBX 11 11 0 -4
BITMAP
03E0
0360
0360
0360
0360
0360
0360
0360
FF60
C060
FFC0
ENDCHAR
STARTCHAR 3010
ENCODING 8508
SWIDTH 2700 0
DWIDTH 27 0
BBX 7 22 14 -4
BITMAP
FE
FC
FC
F8
F8
F8
F0
F0
F0
F0
F0
F0
F0
F0
F0
F8
F8
F8
F8
FC
FC
FE
ENDCHAR
STARTCHAR 3011
ENCODING 8509
SWIDTH 2700 0
DWIDTH 27 0
BBX 7 22 3 -4
BITMAP
FE
7E
7E
3E
3E
3E
1E
1E
1E
1E
1E
1E
1E
1E
1E
3E
3E
3E
3E
7E
7E
FE
ENDCHAR
STARTCHAR 00B1
ENCODING 8510
SWIDTH 2700 0
DWIDTH 27 0
BBX 16 14 4 0
BITMAP
03C0
03C0
03C0
03C0
FFFF
FFFF
FFFF
03C0
03C0
03C0
03C0
0000
FFFF
FFFF
ENDCHAR
STARTCHAR 00D7
ENCODING 8511
SWIDTH 2700 0
DWIDTH 27 0
BBX 16 14 4 0
BITMAP
300C
F81E
7C3C
3E78
1FF0
0FE0
07C0
07E0
0FF0
1E78
3C7C
783E
F01F
200C
ENDCHAR
STARTCHAR 00F7
ENCODING 8512
SWIDTH 2700 0
DWIDTH 27 0
BBX 16 15 4 0
BITMAP
0180
03C0
03C0
03C0
0000
0000
0000
FFFF
FFFF
0000
0000
0000
03C0
03C0
03C0
ENDCHAR
STARTCHAR 2260
ENCODING 8513
SWIDTH 2700 0
DWIDTH 27 0
BBX 15 15 4 0
BITMAP
0400
1C00
1E00
0E00
FFFE
FFFE
0380
03C0
01C0
FFFE
FFFE
0070
0078
0038
0030
ENDCHAR
STARTCHAR 2264
ENCODING 8514
SWIDTH 2700 0
DWIDTH 27 0
BBX 17 17 3 0
BITMAP
000300
000F00
003F80
01FC00
07F000
1F8000
FE0000
FE0000
3FC000
07F000
01FE00
003F80
000F80
000300
000000
7FFF80
7FFF80
ENDCHAR
STARTCHAR 2265
ENCODING 8515
SWIDTH 2700 0
DWIDTH 27 0
BBX 17 17 4 0
BITMAP
400000
F80000
FE0000
3FC000
07F000
01FC00
003F80
003F80
01FC00
07F000
1FC000
7F0000
F80000
600000
000000
FFFF00
FFFF00
ENDCHAR
STARTCHAR 221E
ENCODING 8516
SWIDTH 2700 0
DWIDTH 27 0
BBX 20 10 2 2
BITMAP
1F0F80
7FFFE0
7FFFF0
F8F0F0
F070F0
F0F0F0
F9F9F0
7FFFE0
3F9FC0
0E0780
ENDCHAR
STARTCHAR 2234
ENCODING 8517
SWIDTH 2700 0
DWIDTH 27 0
BBX 16 13 4 0
BITMAP
0180
03C0
0180
0000
0000
0000
0000
0000
0000
0000
6006
F00F
6006
ENDCHAR
STARTCHAR 00B0
ENCODING 8518
SWIDTH 2700 0
DWIDTH 27 0
BBX 5 6 4 13
BITMAP
70
F8
D8
D8
F8
70
ENDCHAR
STARTCHAR 2032
ENCODING 8519
SWIDTH 2700 0
DWIDTH 27 0
BBX 6 5 4 14
BITMAP
20
3C
78
60
C0
ENDCHAR
STARTCHAR 2033
ENCODING 8520
SWIDTH 2700 0
DWIDTH 27 0
BBX 9 5 2 13
BITMAP
3300
7380
6700
4400
8000
ENDCHAR
STARTCHAR 2103
ENCODING 8521
SWIDTH 2700 0
DWIDTH 27 0
BBX 19 19 3 -2
BITMAP
780000
FC0000
DC0000
FC3E00
78FF80
03FFC0
07C1E0
078080
0F0000
0F0000
0F0000
0F0000
0F0000
0F80E0
0781E0
07C1C0
03FFC0
01FF80
007E00
ENDCHAR
STARTCHAR 212B
ENCODING 8522
SWIDTH 2700 0
DWIDTH 27 0
BBX 16 20 4 -1
BITMAP
0180
03C0
0660
0660
03C0
0180
03C0
03C0
07E0
07E0
0EF0
1E70
1C38
3FFC
3FFC
781E
700E
F00F
E007
0004
ENDCHAR
STARTCHAR FFE0
ENCODING 8523
SWIDTH 2700 0
DWIDTH 27 0
BBX 15 20 4 -3
BITMAP
00C0
00E0
01E0
0FF0
3FF8
7FFC
799C
F980
F380
F300
F30C
F70E
7F1E
7E3C
3FFC
1FF8
1FE0
3C00
3800
3800
ENDCHAR
STARTCHAR FFE1
ENCODING 8524
SWIDTH 2700 0
DWIDTH 27 0
BBX 19 18 2 -1
BITMAP
00FE00
01FF00
03E780
03C3C0
078180
078000
078000
078000
3FFF80
3FFF80
078000
078000
3F8000
7FC040
F7FFC0
E3FFE0
FF7FC0
7E0000
ENDCHAR
STARTCHAR FFE5
ENCODING 8525
SWIDTH 2700 0
DWIDTH 27 0
BBX 19 19 3 -2
BITMAP
F003C0
700380
780780
3C0F00
FFFFE0
FFFFE0
FFFFE0
0F3C00
073800
03F000
03F000
FFFFE0
FFFFE0
FFFFE0
01E000
01E000
01E000
01E000
01E000
ENDCHAR
STARTCHAR 2642
ENCODING 8526
SWIDTH 2700 0
DWIDTH 27 0
BBX 16 21 4 -3
BITMAP
0180
03C0
07E0
1FF0
3FFC
7BDE
F3CF
63C6
03C0
03C0
03C0
03C0
0FF0
1FF8
1FF8
1C78
3C38
1C78
1FF8
0FF0
07E0
ENDCHAR
STARTCHAR 2640
ENCODING 8527
SWIDTH 2700 0
DWIDTH 27 0
BBX 16 21 4 -3
BITMAP
07E0
1FF8
1FF8
3E3C
3C3C
3C3C
3C3C
1FF8
0FF0
03C0
03C0
03C0
FFFF
FFFF
FFFF
03C0
03C0
03C0
03C0
03C0
03C0
ENDCHAR
STARTCHAR 2220
ENCODING 8528
SWIDTH 2700 0
DWIDTH 27 0
BBX 18 16 3 0
BITMAP
000100
000380
000780
000F00
001E00
003C00
007800
00F000
01E000
03C000
078000
0F0000
1E0000
3C0000
7FFFC0
FFFFC0
ENDCHAR
STARTCHAR 22A5
ENCODING 8529
SWIDTH 2700 0
DWIDTH 27 0
BBX 19 16 3 0
BITMAP
01E000
01E000
01E000
01E000
01E000
01E000
01E000
01E000
01E000
01E000
01E000
01E000
01E000
01E000
FFFFE0
FFFFE0
ENDCHAR
STARTCHAR 2312
ENCODING 8530
SWIDTH 2700 0
DWIDTH 27 0
BBX 12 4 6 15
BITMAP
0600
7FC0
7FE0
E0F0
ENDCHAR
STARTCHAR 2202
ENCODING 8531
SWIDTH 2700 0
DWIDTH 27 0
BBX 12 16 6 0
BITMAP
07C0
0FF0
1E70
0870
0070
0070
0770
1FF0
3FE0
79E0
71E0
F1C0
E380
F780
7F00
3E00
ENDCHAR
STARTCHAR 2207
ENCODING 8532
SWIDTH 2700 0
DWIDTH 27 0
BBX 24 16 0 0
BITMAP
FFFFFF
7FFFFE
30000C
38001C
1C0038
0E0030
060060
0700E0
0381C0
018180
01C300
00E700
007E00
003C00
003C00
001800
ENDCHAR
STARTCHAR 2261
ENCODING 8533
SWIDTH 2700 0
DWIDTH 27 0
BBX 18 12 3 1
BITMAP
FFFFC0
FFFFC0
000000
000000
000000
FFFFC0
FFFFC0
000000
000000
000000
FFFFC0
FFFFC0
ENDCHAR
STARTCHAR 2252
ENCODING 8534
SWIDTH 2700 0
DWIDTH 27 0
BBX 18 18 3 -2
BITMAP
380000
3C0000
3C0000
380000
000000
FFFFC0
FFFFC0
FFFFC0
000000
000000
FFFFC0
FFFFC0
000000
000000
000F00
000F00
000F00
000600
ENDCHAR
STARTCHAR 00A7
ENCODING 8535
SWIDTH 2700 0
DWIDTH 27 0
BBX 16 21 4 -3
BITMAP
1F80
7FE0
7FF8
707C
781F
7F0E
3FE0
7FF8
F0FC
F03C
7C1E
3F1C
0FFC
23F8
E07C
701C
781C
3C1C
1FFC
0FF8
07F0
ENDCHAR
STARTCHAR 203B
ENCODING 8536
SWIDTH 2700 0
DWIDTH 27 0
BBX 20 19 2 -2
BITMAP
006000
20F0C0
70F1E0
7863C0
3C0780
1E0F00
0F0E00
079C00
71F8E0
F0F0F0
70F0E0
21FC00
079E00
0F0F00
1E0780
3C03C0
78F1E0
70F0E0
20F040
ENDCHAR
STARTCHAR 2606
ENCODING 8537
SWIDTH 2700 0
DWIDTH 27 0
BBX 22 20 1 -2
BITMAP
002000
002000
003000
003000
007000
007800
007800
00F800
FFDFFC
3FDFF0
1FCFE0
040080
030300
038700
030700
073300
07CB80
078780
0E01C0
0C00C0
ENDCHAR
STARTCHAR 2605
ENCODING 8538
SWIDTH 2700 0
DWIDTH 27 0
BBX 21 20 1 -2
BITMAP
002000
002000
003000
007000
007000
007800
00F800
00F800
FFFFF8
3FFFF0
1FFFC0
07FF80
03FF00
03FF00
03FF00
07FF00
07CF80
070780
0E01C0
0C00C0
ENDCHAR
STARTCHAR 25CB
ENCODING 8539
SWIDTH 2700 0
DWIDTH 27 0
BBX 22 21 1 -4
BITMAP
01FE00
07FF80
0FFFC0
1F03E0
380070
700038
600018
E0001C
C0000C
C0000C
C0000C
C0000C
C0000C
E0001C
600018
700038
380070
1F03E0
0FFFC0
07FF80
01FE00
ENDCHAR
STARTCHAR 25CF
ENCODING 8540
SWIDTH 2700 0
DWIDTH 27 0
BBX 22 20 1 -3
BITMAP
01FC00
07FF80
1FFFC0
3FFFE0
3FFFF0
7FFFF8
7FFFF8
FFFFF8
FFFFFC
FFFFFC
FFFFFC
FFFFFC
FFFFF8
7FFFF8
7FFFF8
3FFFF0
3FFFE0
1FFFC0
07FF80
01FE00
ENDCHAR
STARTCHAR 25CE
ENCODING 8541
SWIDTH 2700 0
DWIDTH 27 0
BBX 22 21 1 -4
BITMAP
01FE00
07FF80
0FFFC0
1FFBE0
3BFE70
77FF38
6F0798
EC019C
D801CC
D800CC
D800CC
D800CC
D801CC
EC019C
6F0798
77FF38
3BFE70
1FFBE0
0FFFC0
07FF80
01FE00
ENDCHAR
STARTCHAR 25C7
ENCODING 8542
SWIDTH 2700 0
DWIDTH 27 0
BBX 22 21 1 -3
BITMAP
003000
007800
00FC00
01DE00
038F00
070780
0E01C0
1C00E0
380070
700038
E0001C
700038
380070
1C00E0
0E01C0
070380
038700
01CE00
00FC00
007800
003000
ENDCHAR
STARTCHAR 25C6
ENCODING 8543
SWIDTH 2700 0
DWIDTH 27 0
BBX 22 21 1 -3
BITMAP
003000
007800
00FC00
01FE00
03FF00
07FF80
0FFFC0
1FFFE0
3FFFF0
7FFFF8
FFFFFC
7FFFF8
3FFFF0
1FFFE0
0FFFC0
07FF80
03FF00
01FE00
00FC00
007800
003000
ENDCHAR
STARTCHAR 25A1
ENCODING 8544
SWIDTH 2700 0
DWIDTH 27 0
BBX 20 19 2 -2
BITMAP
FFFFF0
FFFFF0
FFFFF0
C00030
C00030
C00030
C00030
C00030
C00030
C00030
C00030
C00030
C00030
C00030
C00030
C00030
FFFFF0
FFFFF0
FFFFF0
ENDCHAR
STARTCHAR 25A0
ENCODING 8545
SWIDTH 2700 0
DWIDTH 27 0
BBX 20 19 2 -2
BITMAP
FFFFF0
FFFFF0
FFFFF0
FFFFF0
FFFFF0
FFFFF0
FFFFF0
FFFFF0
FFFFF0
FFFFF0
FFFFF0
FFFFF0
FFFFF0
FFFFF0
FFFFF0
FFFFF0
FFFFF0
FFFFF0
FFFFF0
ENDCHAR
STARTCHAR 25B3
ENCODING 8546
SWIDTH 2700 0
DWIDTH 27 0
BBX 22 16 1 -1
BITMAP
003000
007800
007800
00CC00
018E00
018600
030300
060380
060180
0C00C0
180060
300060
300030
7FFFF8
FFFFF8
FFFFFC
ENDCHAR
STARTCHAR 25B2
ENCODING 8547
SWIDTH 2700 0
DWIDTH 27 0
BBX 22 15 1 0
BITMAP
003000
007800
00FC00
00FC00
01FE00
03FF00
03FF00
07FF80
0FFFC0
1FFFC0
1FFFE0
3FFFF0
7FFFF8
FFFFF8
FFFFFC
ENDCHAR
STARTCHAR 25BD
ENCODING 8548
SWIDTH 2700 0
DWIDTH 27 0
BBX 22 17 1 -1
BITMAP
FFFFFC
FFFFFC
7FFFF8
300010
300030
180060
0C00C0
0E00C0
060180
070300
038700
018600
01CC00
00FC00
007800
007000
003000
ENDCHAR
STARTCHAR 25BC
ENCODING 8549
SWIDTH 2700 0
DWIDTH 27 0
BBX 22 16 1 -1
BITMAP
FFFFFC
FFFFFC
7FFFF8
3FFFF0
3FFFE0
1FFFE0
0FFFC0
0FFF80
07FF80
03FF00
03FE00
01FE00
00FC00
007800
007800
003000
ENDCHAR
STARTCHAR 2192
ENCODING 8550
SWIDTH 2700 0
DWIDTH 27 0
BBX 22 8 1 3
BITMAP
000080
0000C0
0000F0
FFFFFC
FFFFF8
0000E0
0000C0
000100
ENDCHAR
STARTCHAR 2190
ENCODING 8551
SWIDTH 2700 0
DWIDTH 27 0
BBX 22 7 1 4
BITMAP
040000
1C0000
380000
FFFFFC
7FFFFC
380000
0C0000
ENDCHAR
STARTCHAR 2191
ENCODING 8552
SWIDTH 2700 0
DWIDTH 27 0
BBX 8 20 8 -3
BITMAP
18
3C
3C
7E
FF
18
18
18
18
18
18
18
18
18
18
18
18
18
18
18
ENDCHAR
STARTCHAR 2193
ENCODING 8553
SWIDTH 2700 0
DWIDTH 27 0
BBX 8 21 7 -3
BITMAP
3C
3C
3C
3C
3C
3C
3C
3C
3C
3C
3C
3C
3C
3C
3C
FF
FF
7E
3C
18
08
ENDCHAR
STARTCHAR 2194
ENCODING 8554
SWIDTH 2700 0
DWIDTH 27 0
BBX 22 7 1 4
BITMAP
040080
1800E0
380070
FFFFFC
7FFFF8
3800E0
0C00C0
ENDCHAR
STARTCHAR 3013
ENCODING 8555
SWIDTH 2700 0
DWIDTH 27 0
BBX 22 9 1 3
BITMAP
FFFFFC
FFFFFC
FFFFFC
000000
000000
000000
000000
FFFFFC
FFFFFC
ENDCHAR
STARTCHAR 226A
ENCODING 8556
SWIDTH 2700 0
DWIDTH 27 0
BBX 20 23 2 -4
BITMAP
001020
003870
0078F0
00F1E0
01E3C0
03C780
078F00
0F3E00
1E7C00
3CF800
79F000
F3E000
79E000
3CF800
1E3C00
0F1E00
078F00
03C780
01E3C0
00F1E0
0078F0
003870
001020
ENDCHAR
STARTCHAR 226B
ENCODING 8557
SWIDTH 2700 0
DWIDTH 27 0
BBX 20 23 2 -4
BITMAP
408000
61C000
F1E000
78F000
3C7800
1E3C00
0F1E00
078F00
03C780
01F3C0
00F9E0
007CF0
00F9E0
01F3C0
03E780
07CF00
0F9E00
1E3C00
3C7800
78F000
F1E000
E1C000
408000
ENDCHAR
STARTCHAR 221A
ENCODING 8558
SWIDTH 2700 0
DWIDTH 27 0
BBX 22 22 1 -4
BITMAP
001FFC
001FFC
003800
003800
003000
007000
007000
00E000
00E000
00C000
01C000
11C000
318000
FB8000
FB0000
7F0000
1F0000
1E0000
0E0000
0C0000
040000
040000
ENDCHAR
STARTCHAR 223D
ENCODING 8559
SWIDTH 2700 0
DWIDTH 27 0
BBX 23 11 0 1
BITMAP
0FE3F0
3FE7FC
7FCF7C
F81C3E
F01C1E
F0381E
F0301E
F8F67E
7FEFFC
3FCFF8
1F03E0
ENDCHAR
STARTCHAR 221D
ENCODING 8560
SWIDTH 2700 0
DWIDTH 27 0
BBX 22 12 0 1
BITMAP
1F81FC
3FE7FC
7FFFFC
F87F00
F03E00
F01C00
F01C00
F83E00
7C7FFC
7FF7FC
3FE3FC
0F80E0
ENDCHAR
STARTCHAR 2235
ENCODING 8561
SWIDTH 2700 0
DWIDTH 27 0
BBX 16 14 4 0
BITMAP
E007
F00F
F00F
6006
0000
0000
0000
0000
0000
0000
03C0
03C0
03C0
0180
ENDCHAR
STARTCHAR 222B
ENCODING 8562
SWIDTH 2700 0
DWIDTH 27 0
BBX 13 20 6 -3
BITMAP
00F0
01F0
03B8
07A0
0700
0700
0700
0700
0F00
0F00
0F00
0F00
0F00
0F00
0E00
0E00
6E00
FE00
FC00
7800
ENDCHAR
STARTCHAR 222C
ENCODING 8563
SWIDTH 2700 0
DWIDTH 27 0
BBX 20 20 2 -3
BITMAP
00F1E0
01F3E0
03BF70
07AF40
070E00
070E00
070E00
070E00
0F1E00
0F1E00
0F1E00
0F1E00
0F1E00
0F1E00
0E1C00
0E1C00
6EDC00
FFFC00
FDF800
78F000
ENDCHAR
STARTCHAR 2208
ENCODING 8564
SWIDTH 2700 0
DWIDTH 27 0
BBX 18 13 3 1
BITMAP
07FFC0
1FFFC0
3FFFC0
700000
E00000
E00000
FFFFC0
FFFFC0
E00000
700000
7C0000
3FFFC0
0FFFC0
ENDCHAR
STARTCHAR 220B
ENCODING 8565
SWIDTH 2700 0
DWIDTH 27 0
BBX 18 12 3 1
BITMAP
FFFE00
FFFF00
000380
0001C0
0001C0
FFFFC0
FFFFC0
0001C0
0001C0
000780
FFFF00
FFFC00
ENDCHAR
STARTCHAR 2286
ENCODING 8566
SWIDTH 2700 0
DWIDTH 27 0
BBX 16 14 4 0
BITMAP
1FFF
7FFF
7FFF
E000
E000
E000
E000
F800
7FFF
1FFF
0000
0000
FFFF
FFFF
ENDCHAR
STARTCHAR 2287
ENCODING 8567
SWIDTH 2700 0
DWIDTH 27 0
BBX 17 14 3 0
BITMAP
FFF800
FFFE00
FFFF00
000F80
000780
000780
000780
001F00
FFFE00
FFFC00
000000
000000
7FFF00
7FFF00
ENDCHAR
STARTCHAR 2282
ENCODING 8568
SWIDTH 2700 0
DWIDTH 27 0
BBX 19 12 3 1
BITMAP
0FFFE0
3FFFE0
7E0000
780000
F00000
F00000
F00000
F00000
780000
7E0000
1FFFE0
0FFFE0
ENDCHAR
STARTCHAR 2283
ENCODING 8569
SWIDTH 2700 0
DWIDTH 27 0
BBX 19 13 2 1
BITMAP
FFF800
FFFF00
FFFF80
0003C0
0003E0
0001E0
0001E0
0001E0
0001E0
0003C0
0007C0
FFFF80
FFFE00
ENDCHAR
STARTCHAR 222A
ENCODING 8570
SWIDTH 2700 0
DWIDTH 27 0
BBX 16 17 4 -2
BITMAP
F00F
F00F
F00F
F00F
F00F
F00F
F00F
F00F
F00F
F00F
F00F
F00F
F81F
7C3E
7FFC
3FF8
0FE0
ENDCHAR
STARTCHAR 2229
ENCODING 8571
SWIDTH 2700 0
DWIDTH 27 0
BBX 16 17 4 -2
BITMAP
07E0
1FF8
3FFE
7C3E
F81F
F00F
F00F
F00F
F00F
F00F
F00F
F00F
F00F
F00F
F00F
F00F
F00F
ENDCHAR
STARTCHAR 2227
ENCODING 8572
SWIDTH 2700 0
DWIDTH 27 0
BBX 16 16 4 -2
BITMAP
0180
0180
03C0
03C0
07E0
0FE0
0EF0
1E70
1C38
3C3C
381C
781E
700E
F00F
E007
4006
ENDCHAR
STARTCHAR 2228
ENCODING 8573
SWIDTH 2700 0
DWIDTH 27 0
BBX 16 16 4 -1
BITMAP
2004
E007
F00F
700E
781E
381C
3C3C
1C38
1E70
0E70
0FE0
07E0
07C0
03C0
0180
0180
ENDCHAR
STARTCHAR FFE2
ENCODING 8574
SWIDTH 2700 0
DWIDTH 27 0
BBX 19 15 2 1
BITMAP
FFFFE0
FFFFE0
FFFFE0
0001E0
0001E0
0001E0
0001E0
0001E0
0001E0
0001E0
0001E0
0001E0
0001E0
0001E0
0001E0
ENDCHAR
STARTCHAR 21D2
ENCODING 8737
SWIDTH 2700 0
DWIDTH 27 0
BBX 20 12 2 1
BITMAP
000C00
001E00
000F00
FFFF80
FFFFE0
0000F0
FFFFE0
FFFFC0
FFFF80
000F00
001E00
000C00
ENDCHAR
STARTCHAR 21D4
ENCODING 8738
SWIDTH 2700 0
DWIDTH 27 0
BBX 22 12 1 1
BITMAP
030300
078780
0F03E0
3FFFF0
7FFFF8
F0003C
FFFFFC
7FFFF0
1E01E0
0F03C0
070380
020100
ENDCHAR
STARTCHAR 2200
ENCODING 8739
SWIDTH 2700 0
DWIDTH 27 0
BBX 16 16 4 0
BITMAP
E00F
F00F
700E
781E
7FFE
3FFC
3FFC
1C38
1E78
0E78
0FF0
0FF0
07E0
07E0
03C0
03C0
ENDCHAR
STARTCHAR 2203
ENCODING 8740
SWIDTH 2700 0
DWIDTH 27 0
BBX 15 16 5 0
BITMAP
FFFE
FFFE
001E
001E
001E
001E
FFFE
FFFE
FFFE
001E
001E
001E
001E
FFFE
FFFE
FFFE
ENDCHAR
STARTCHAR 00B4
ENCODING 8741
SWIDTH 2700 0
DWIDTH 27 0
BBX 7 5 9 14
BITMAP
7E
7C
F0
E0
80
ENDCHAR
STARTCHAR FF5E
ENCODING 8742
SWIDTH 2700 0
DWIDTH 27 0
BBX 12 4 6 14
BITMAP
3F10
7FF0
73E0
80C0
ENDCHAR
STARTCHAR 02C7
ENCODING 8743
SWIDTH 2700 0
DWIDTH 27 0
BBX 11 4 7 15
BITMAP
8020
71C0
3F80
1F00
ENDCHAR
STARTCHAR 02D8
ENCODING 8744
SWIDTH 2700 0
DWIDTH 27 0
BBX 11 4 7 15
BITMAP
E0E0
E1E0
FFC0
7F80
ENDCHAR
STARTCHAR 02DD
ENCODING 8745
SWIDTH 2700 0
DWIDTH 27 0
BBX 10 5 7 14
BITMAP
7BC0
7380
6300
C600
8000
ENDCHAR
STARTCHAR 02DA
ENCODING 8746
SWIDTH 2700 0
DWIDTH 27 0
BBX 7 6 9 13
BITMAP
38
7C
CE
C6
7C
38
ENDCHAR
STARTCHAR 02D9
ENCODING 8747
SWIDTH 2700 0
DWIDTH 27 0
BBX 5 6 10 13
BITMAP
70
F8
F8
F8
F8
70
ENDCHAR
STARTCHAR 00B8
ENCODING 8748
SWIDTH 2700 0
DWIDTH 27 0
BBX 7 7 9 -3
BITMAP
F0
FC
1E
1E
FE
FC
60
ENDCHAR
STARTCHAR 02DB
ENCODING 8749
SWIDTH 2700 0
DWIDTH 27 0
BBX 7 7 9 -3
BITMAP
1E
7E
F0
F0
FC
7E
1E
ENDCHAR
STARTCHAR 00A1
ENCODING 8750
SWIDTH 2700 0
DWIDTH 27 0
BBX 4 20 10 -3
BITMAP
20
70
F0
70
00
70
70
70
70
70
70
70
F0
F0
F0
F0
F0
F0
F0
F0
ENDCHAR
STARTCHAR 00BF
ENCODING 8751
SWIDTH 2700 0
DWIDTH 27 0
BBX 12 21 6 -4
BITMAP
0180
03C0
03C0
01C0
0000
03C0
03C0
03C0
03C0
03C0
1FC0
3FC0
7C00
7800
7000
F070
78F0
7DF0
3FE0
1FC0
0200
ENDCHAR
STARTCHAR 02D0
ENCODING 8752
SWIDTH 2700 0
DWIDTH 27 0
BBX 6 14 9 0
BITMAP
FC
78
30
30
00
00
00
00
00
00
30
78
78
FC
ENDCHAR
STARTCHAR 222E
ENCODING 8753
SWIDTH 2700 0
DWIDTH 27 0
BBX 18 20 4 -3
BITMAP
001C00
007F00
00FF80
01E3C0
01E180
01E000
07F800
0FFC00
1FFE00
1FEE00
1EEE00
1FFE00
0FFE00
07F800
01E000
01E000
61E000
FBC000
7F8000
1E0000
ENDCHAR
STARTCHAR 2211
ENCODING 8754
SWIDTH 2700 0
DWIDTH 27 0
BBX 19 20 3 -3
BITMAP
FFFFE0
FFFFE0
FFFFE0
7C00E0
3C00E0
1E00E0
0F00E0
0F8000
07C000
03E000
01E000
03C000
038000
070000
0F0000
1E0000
3C0000
3FFFE0
7FFFE0
FFFFE0
ENDCHAR
STARTCHAR 220F
ENCODING 8755
SWIDTH 2700 0
DWIDTH 27 0
BBX 19 20 3 -3
BITMAP
FFFFE0
FFFFE0
1E0F00
1E0F00
1E0F00
1E0F00
1E0F00
1E0F00
1E0F00
1E0F00
1E0F00
1E0F00
1E0F00
1E0F00
1E0F00
1E0F00
1E0F00
1E0F00
1E0F00
1E0F00
ENDCHAR
STARTCHAR 00A4
ENCODING 8756
SWIDTH 2700 0
DWIDTH 27 0
BBX 22 21 1 -3
BITMAP
400018
E0003C
F8FC78
7FFFF0
3FFFE0
1F87C0
1E03E0
1E01E0
3C00F0
3C00F0
3C00F0
3C00F0
3C00F0
3E01E0
1E03E0
0F87E0
1FFFF0
3FFFF8
78FC7C
E0003C
C00008
ENDCHAR
STARTCHAR 2109
ENCODING 8757
SWIDTH 2700 0
DWIDTH 27 0
BBX 23 20 1 -3
BITMAP
007FFE
007FFE
7C7FFE
FE7800
EE7800
E67800
FE7800
7C7FF8
187FF8
007FF8
007800
007800
007800
007800
007800
007800
007800
007800
007800
007800
ENDCHAR
STARTCHAR 2030
ENCODING 8758
SWIDTH 2700 0
DWIDTH 27 0
BBX 22 19 1 -2
BITMAP
000600
1E0E00
3F0C00
771C00
633800
E77000
E76000
EEE000
FFC000
7FBC7C
337EFC
07F6EC
0EE6CC
1CEFCC
18CFDC
38DDDC
70FDF8
E0F8F0
400000
ENDCHAR
STARTCHAR 25C1
ENCODING 8759
SWIDTH 2700 0
DWIDTH 27 0
BBX 17 20 3 -3
BITMAP
000080
000380
000780
001F80
007980
01E180
03C180
0F0180
3C0180
F00180
7C0180
1E0180
0F8180
03E180
00F980
007D80
001F80
000780
000380
000080
ENDCHAR
STARTCHAR 25C0
ENCODING 8760
SWIDTH 2700 0
DWIDTH 27 0
BBX 17 20 4 -3
BITMAP
000080
000380
000F80
003F80
007F80
01FF80
07FF80
1FFF80
3FFF80
FFFF80
7FFF80
3FFF80
0FFF80
03FF80
01FF80
007F80
001F80
000F80
000380
000080
ENDCHAR
STARTCHAR 25B7
ENCODING 8761
SWIDTH 2700 0
DWIDTH 27 0
BBX 17 21 4 -3
BITMAP
800000
C00000
F00000
FC0000
F60000
F38000
F0C000
F03000
F01C00
F00600
F00180
F00300
F00C00
F03800
F0E000
F18000
F70000
FC0000
F00000
C00000
800000
ENDCHAR
STARTCHAR 25B6
ENCODING 8762
SWIDTH 2700 0
DWIDTH 27 0
BBX 17 21 4 -3
BITMAP
800000
C00000
F00000
FC0000
FE0000
FF8000
FFC000
FFF000
FFFC00
FFFE00
FFFF80
FFFF00
FFFC00
FFF000
FFE000
FF8000
FE0000
FC0000
F00000
C00000
800000
ENDCHAR
STARTCHAR 2664
ENCODING 8763
SWIDTH 2700 0
DWIDTH 27 0
BBX 18 19 3 -3
BITMAP
00C000
012000
021000
041800
080C00
100600
300200
200300
400180
400180
C000C0
C1E1C0
E7FFC0
FF7F80
7F7F00
3F3E00
07F000
07F800
07F800
ENDCHAR
STARTCHAR 2660
ENCODING 8764
SWIDTH 2700 0
DWIDTH 27 0
BBX 17 19 3 -3
BITMAP
00C000
01E000
03F000
07F800
0FFC00
1FFE00
3FFF00
3FFF00
7FFF80
7FFF80
FFFF80
FFFF80
FFFF80
7FFF80
3FFF00
1FFC00
03F000
07F000
07F000
ENDCHAR
STARTCHAR 2661
ENCODING 8765
SWIDTH 2700 0
DWIDTH 27 0
BBX 18 20 3 -3
BITMAP
1C0C00
7F3F00
67F180
C1E1C0
C1E0C0
C0C0C0
C000C0
C000C0
6001C0
600180
700380
300300
180700
180E00
0C0C00
061800
033800
03F000
01E000
00C000
ENDCHAR
STARTCHAR 2665
ENCODING 8766
SWIDTH 2700 0
DWIDTH 27 0
BBX 18 20 3 -3
BITMAP
1C0C00
7F3F00
FFFF80
FFFFC0
FFFFC0
FFFFC0
FFFFC0
FFFFC0
7FFF80
7FFF80
3FFF00
3FFF00
1FFE00
1FFE00
0FFC00
07F800
03F000
03F000
01E000
00C000
ENDCHAR
STARTCHAR 2667
ENCODING 8767
SWIDTH 2700 0
DWIDTH 27 0
BBX 21 20 2 -3
BITMAP
00F800
03FE00
07FF00
070700
060300
020300
3F0600
7F9D80
FF8FF0
E18C70
C00078
C0B078
E3B8F8
FFBFF8
7FBFF0
3EBBC0
01B800
01F800
01F800
01F800
ENDCHAR
STARTCHAR 2663
ENCODING 8768
SWIDTH 2700 0
DWIDTH 27 0
BBX 20 20 2 -3
BITMAP
00F000
03FC00
03FE00
07FE00
07FE00
07FE00
03FE00
03FC00
7EF7E0
FFFFF0
FFFFF0
FFFFF0
FFFFF0
FFFFF0
FFFFF0
7EFFE0
08F100
01F800
01F800
01F800
ENDCHAR
STARTCHAR 2299
ENCODING 8769
SWIDTH 2700 0
DWIDTH 27 0
BBX 22 19 1 -2
BITMAP
01FE00
070380
180060
30F830
63FE10
67FF18
C7FF88
CFFF8C
CFFFCC
CFFFCC
CFFF8C
CFFF8C
C7FF88
63FF18
61FE10
307030
180060
060380
01FE00
ENDCHAR
STARTCHAR 25C8
ENCODING 8770
SWIDTH 2700 0
DWIDTH 27 0
BBX 22 21 1 -3
BITMAP
001000
007800
00CC00
018600
033300
067980
0CFCC0
19FE60
33FF30
67FF98
CFFFEC
E7FF9C
33FF30
19FE60
0CFCC0
067980
033300
018600
00CC00
007800
001000
ENDCHAR
STARTCHAR 25A3
ENCODING 8771
SWIDTH 2700 0
DWIDTH 27 0
BBX 21 21 2 -3
BITMAP
FFFFF8
FFFFF8
FFFFF8
C00018
C00018
CFFF98
CFFF98
CFFF98
CFFF98
CFFF98
CFFF98
CFFF98
CFFF98
CFFF98
CFFF98
CFFF98
CFFF98
C00018
C00018
C00018
FFFFF8
ENDCHAR
STARTCHAR 25D0
ENCODING 8772
SWIDTH 2700 0
DWIDTH 27 0
BBX 22 20 2 -3
BITMAP
01FE00
07E380
1FE0E0
3FE070
7FE030
7FE018
FFE018
FFE00C
FFE00C
FFE00C
FFE00C
FFE00C
FFE00C
FFE018
7FE018
7FE030
3FE070
1FE0E0
0FE380
01FE00
ENDCHAR
STARTCHAR 25D1
ENCODING 8773
SWIDTH 2700 0
DWIDTH 27 0
BBX 22 20 1 -3
BITMAP
01FE00
071F80
1C1FE0
381FF0
301FF8
601FF8
601FFC
C01FFC
C01FFC
C01FFC
C01FFC
C01FFC
C01FFC
601FFC
601FF8
301FF8
381FF0
1C1FE0
071FC0
01FE00
ENDCHAR
STARTCHAR 2592
ENCODING 8774
SWIDTH 2700 0
DWIDTH 27 0
BBX 21 20 1 -3
BITMAP
FFFFF8
C00008
FB3768
FB3768
CCCC88
CEDDC8
C00088
FB3768
F33768
CCCDC8
CCDDC8
F33268
FB3778
C00008
CEDDC8
CCCD88
FB3768
FB3778
C00008
FFFFF8
ENDCHAR
STARTCHAR 25A4
ENCODING 8775
SWIDTH 2700 0
DWIDTH 27 0
BBX 23 22 1 -3
BITMAP
FFFFFE
FFFFFE
FFFFFE
FFFFFE
FFFFFE
FFFFFE
FFFFFE
FFFFFE
FFFFFE
C00006
C00006
FFFFFE
FFFFFE
FFFFFE
FFFFFE
FFFFFE
FFFFFE
FFFFFE
FFFFFE
FFFFFE
FFFFFE
FFFFFE
ENDCHAR
STARTCHAR 25A5
ENCODING 8776
SWIDTH 2700 0
DWIDTH 27 0
BBX 23 22 1 -3
BITMAP
FFFFFE
FFFFFE
FFFFFE
CDB366
CDB366
CDB366
CDB366
CDB366
CDB366
CDB366
CDB366
CDB366
CDB366
CDB366
CDB366
CDB366
CDB366
CDB366
CDB366
FFFFFE
FFFFFE
FFFFFE
ENDCHAR
STARTCHAR 25A8
ENCODING 8777
SWIDTH 2700 0
DWIDTH 27 0
BBX 23 21 1 -3
BITMAP
FFFFFE
FFFFFE
FFFFF6
DCE726
F9CE46
F39C8E
E7393E
CE7276
DCE4E6
F9C9CE
F3939E
E7273E
CE4E76
DC9CE6
F939CE
E2739E
C4E736
C9CC66
DFFFFE
FFFFFE
FFFFFE
ENDCHAR
STARTCHAR 25A7
ENCODING 8778
SWIDTH 2700 0
DWIDTH 27 0
BBX 22 22 1 -3
BITMAP
FFFFFC
FFFFFC
FFFFFC
E31CEC
D9CE7C
CCE73C
E2739C
F139CC
D89CEC
CE4E7C
E7273C
F3938C
F9C9CC
DCE4EC
CE723C
E7391C
F39CCC
F9CE6C
DCE33C
FFFFFC
FFFFFC
FFFFFC
ENDCHAR
STARTCHAR 25A6
ENCODING 8779
SWIDTH 2700 0
DWIDTH 27 0
BBX 22 22 1 -3
BITMAP
FFFFFC
FFFFFC
FFFFFC
CDB36C
CDB36C
FFFFFC
FFFFFC
FFFFFC
FFFFFC
FFFFFC
FFFFFC
FFFFFC
FFFFFC
FFFFFC
FFFFFC
FFFFFC
FFFFFC
FFFFFC
FFFFFC
CDB36C
CDB36C
FFFFFC
ENDCHAR
STARTCHAR 25A9
ENCODING 8780
SWIDTH 2700 0
DWIDTH 27 0
BBX 22 22 1 -3
BITMAP
FFFFFC
FFFFFC
FFFFFC
EFFFFC
F9EF74
FDEF7C
EF7BFC
E739CC
FFFFFC
D9CE74
FDEF7C
E779CC
EF7BDC
FDEF7C
DDCE74
FFFFFC
E739CC
FFFFFC
F9EF74
FDEF7C
FFFFFC
FFFFFC
ENDCHAR
STARTCHAR 2668
ENCODING 8781
SWIDTH 2700 0
DWIDTH 27 0
BBX 24 21 0 -3
BITMAP
009900
009D80
00FB80
01FB80
01FB00
01FB00
01FB80
01FF80
01FF80
01DFC0
00FFC0
0FFFD8
3DDF8E
79DF87
F1BB07
F1BB07
F9910F
7E107E
1FFFFC
07FFF0
00FF80
ENDCHAR
STARTCHAR 260F
ENCODING 8782
SWIDTH 2700 0
DWIDTH 27 0
BBX 24 18 0 -3
BITMAP
01FFC0
1E0078
3800EC
67FEE6
45C6A2
C7FEA3
CD3CBF
7342CE
028140
048120
088110
188118
104218
103C08
100008
3FFFFC
3FFFFC
3FFFF8
ENDCHAR
STARTCHAR 260E
ENCODING 8783
SWIDTH 2700 0
DWIDTH 27 0
BBX 24 18 0 -3
BITMAP
01FFC0
1FFFF8
3FFFFC
7F81FE
7D81BE
FDFFBF
FFC3BF
7B00DE
0300C0
060060
0E0070
1E0078
1F00F8
1F00F8
3FC3F8
3FFFFC
3FFFFC
3FFFF8
ENDCHAR
STARTCHAR 261C
ENCODING 8784
SWIDTH 2700 0
DWIDTH 27 0
BBX 23 10 1 2
BITMAP
0FFF80
F000DE
FFFF7E
0FC01E
0FBF1E
0DDF1E
07FDDE
063EDE
01CC7E
00FF80
ENDCHAR
STARTCHAR 261E
ENCODING 8785
SWIDTH 2700 0
DWIDTH 27 0
BBX 23 10 0 2
BITMAP
03FFE0
F6001E
FDFFFE
F00FE0
F1FBE0
F1F760
F75FC0
F6F8C0
FC6700
03FE00
ENDCHAR
STARTCHAR 00B6
ENCODING 8786
SWIDTH 2700 0
DWIDTH 27 0
BBX 14 21 5 -3
BITMAP
0FDC
3FDC
7FDC
FBDC
F3DC
F3DC
F3DC
FBDC
7FDC
3FDC
0FDC
03DC
03DC
03DC
03DC
03DC
03DC
03DC
03DC
03DC
03DC
ENDCHAR
STARTCHAR 2020
ENCODING 8787
SWIDTH 2700 0
DWIDTH 27 0
BBX 14 20 5 -3
BITMAP
0780
0780
0780
0780
0780
FFFC
FFFC
FFFC
0780
0780
0780
0780
0780
0780
0780
0780
0780
0780
0780
0780
ENDCHAR
STARTCHAR 2021
ENCODING 8788
SWIDTH 2700 0
DWIDTH 27 0
BBX 14 20 5 -3
BITMAP
0780
0780
0780
FFFC
FFFC
FFFC
0780
FFFC
FFFC
FFFC
0780
0780
0780
0780
0780
0780
0780
0780
0780
0780
ENDCHAR
STARTCHAR 2195
ENCODING 8789
SWIDTH 2700 0
DWIDTH 27 0
BBX 8 21 8 -3
BITMAP
08
18
3C
7E
DF
1C
1C
1C
1C
1C
1C
1C
1C
1C
1C
1C
DF
7E
3C
18
08
ENDCHAR
STARTCHAR 2197
ENCODING 8790
SWIDTH 2700 0
DWIDTH 27 0
BBX 21 20 1 -3
BITMAP
0001F8
0001F8
000078
0000F8
0001D8
000398
000708
000E00
003C00
007800
00F000
01E000
03C000
078000
0F0000
1E0000
3C0000
780000
F00000
200000
ENDCHAR
STARTCHAR 2199
ENCODING 8791
SWIDTH 2700 0
DWIDTH 27 0
BBX 20 19 2 -2
BITMAP
000020
000070
0000F0
0001E0
0003C0
000780
001F00
003C00
007800
00F000
01E000
03C000
078000
8F0000
DE0000
FC0000
F80000
F80000
FE0000
ENDCHAR
STARTCHAR 2196
ENCODING 8792
SWIDTH 2700 0
DWIDTH 27 0
BBX 21 19 1 -3
BITMAP
F00000
FE0000
F80000
780000
7E0000
4F0000
078000
03C000
00E000
007000
003800
001E00
000F00
000780
0003C0
0001E0
0000F0
000038
000010
ENDCHAR
STARTCHAR 2198
ENCODING 8793
SWIDTH 2700 0
DWIDTH 27 0
BBX 20 19 2 -3
BITMAP
400000
E00000
F00000
780000
3C0000
1E0000
078000
03C000
01E000
00F000
007800
003C00
001E10
000F10
0003B0
0001F0
0000F0
0001F0
0007F0
ENDCHAR
STARTCHAR 266D
ENCODING 8794
SWIDTH 2700 0
DWIDTH 27 0
BBX 11 20 8 -3
BITMAP
F000
F000
F000
F000
F000
F000
F000
F000
FFC0
FFC0
F9E0
F0E0
F0E0
F1E0
F1C0
F3C0
F780
FF00
FC00
E000
ENDCHAR
STARTCHAR 2669
ENCODING 8795
SWIDTH 2700 0
DWIDTH 27 0
BBX 8 20 7 -3
BITMAP
0F
0F
0F
0F
0F
0F
0F
0F
0F
0F
0F
0F
0F
0F
0F
0F
7F
FF
FE
F8
ENDCHAR
STARTCHAR 266A
ENCODING 8796
SWIDTH 2700 0
DWIDTH 27 0
BBX 12 21 7 -3
BITMAP
1000
1C00
1E00
1F80
1FC0
1FE0
1CF0
1C70
1C30
1C30
1C30
1C60
1CE0
1DC0
1C00
1C00
3C00
FC00
F800
F800
E000
ENDCHAR
STARTCHAR 266C
ENCODING 8797
SWIDTH 2700 0
DWIDTH 27 0
BBX 20 20 3 -3
BITMAP
0000F0
00FFF0
0FFFF0
0FE0F0
0E00F0
0E7FF0
0FFFF0
0FFCF0
0F00F0
0E00F0
0E00F0
0E00F0
0E00F0
0E00F0
0E07F0
0E07F0
7E0FE0
FE07C0
FC0200
F80000
ENDCHAR
STARTCHAR 327F
ENCODING 8798
SWIDTH 2700 0
DWIDTH 27 0
BBX 22 20 2 -3
BITMAP
01F800
07FF00
1FFF80
3E07C0
3801E0
7000F0
679E70
E7B800
FFF3FC
FFE3FC
FFF3FC
07B838
77BC38
779C78
780070
3C01E0
1F03C0
0FFF80
03FF00
00FC00
ENDCHAR
STARTCHAR 321C
ENCODING 8799
SWIDTH 2700 0
DWIDTH 27 0
BBX 24 20 1 -3
BITMAP
080008
1C0038
3FFFDC
3FFFDE
7FFFDE
79FE1E
F3FF0F
FF87CF
FF03CF
F6018F
F0000F
FFFFEF
FFFFEF
FFFFEE
78781E
78781E
78781E
38781C
3C783C
180000
ENDCHAR
STARTCHAR 2116
ENCODING 8800
SWIDTH 2700 0
DWIDTH 27 0
BBX 24 17 0 0
BITMAP
E07000
F07000
F07000
F871C0
F873F0
FC77F8
FC7E18
F67E1C
F67C1C
F37C0C
F37C0C
F3FE1C
F1FE1C
F1FE3C
F0F7FA
F0F3F7
F070C6
ENDCHAR
STARTCHAR 33C7
ENCODING 8801
SWIDTH 2700 0
DWIDTH 27 0
BBX 23 17 0 0
BITMAP
0FC000
1FE000
38F000
706000
700000
7000C0
E003F0
E007F8
E00F3C
F00F3C
700F3C
700F3C
704F3C
787F3C
3DE7F8
1FE7F6
0FC1E6
ENDCHAR
STARTCHAR 2122
ENCODING 8802
SWIDTH 2700 0
DWIDTH 27 0
BBX 23 17 0 0
BITMAP
FFF786
FFF786
FFF7CE
0F07CE
0F07CE
0F07CE
0F07CE
0F07FE
0F07FE
0F07FE
0F07FE
0F07FE
0F07FE
0F07FE
0F07FE
0F07FE
0F07BE
ENDCHAR
STARTCHAR 33C2
ENCODING 8803
SWIDTH 2700 0
DWIDTH 27 0
BBX 24 10 0 0
BITMAP
1C0FD8
FE0FFC
7F0FFC
070FFC
3F0FFC
7F0FFC
670FFC
EF0FFC
7F6FFF
3F6FFF
ENDCHAR
STARTCHAR 33D8
ENCODING 8804
SWIDTH 2700 0
DWIDTH 27 0
BBX 22 14 1 -4
BITMAP
FF3E80
FFBFE0
FFFFE0
F1FFE0
F1FFE0
FFFFE0
FFBFE0
FFBFE0
F1BFEC
F1BFEC
F00000
F00000
F00000
F00000
ENDCHAR
STARTCHAR 2121
ENCODING 8805
SWIDTH 2700 0
DWIDTH 27 0
BBX 22 17 1 0
BITMAP
FFF03C
FFF03C
FFF03C
0F003C
0F003C
0F083C
0F7F3C
0FFFBC
0FE3FC
0FE1FC
0FFFFC
0FFFFC
0FE03C
0FE1FC
0FFFFC
0F7FBC
0F1F3C
ENDCHAR
STARTCHAR FF01
ENCODING 8993
SWIDTH 2700 0
DWIDTH 27 0
BBX 5 18 10 0
BITMAP
F0
F0
F0
F0
F0
F0
F0
F0
F0
78
78
78
78
78
00
60
F0
F0
ENDCHAR
STARTCHAR FF02
ENCODING 8994
SWIDTH 2700 0
DWIDTH 27 0
BBX 9 6 8 13
BITMAP
F780
F780
F780
F780
F780
6300
ENDCHAR
STARTCHAR FF03
ENCODING 8995
SWIDTH 2700 0
DWIDTH 27 0
BBX 16 18 4 0
BITMAP
071C
071C
073C
0F38
FFFF
FFFF
FFFF
1E78
1C70
1C70
FFFF
FFFF
FFFF
38E0
38E0
38E0
79E0
71C0
ENDCHAR
STARTCHAR FF04
ENCODING 8996
SWIDTH 2700 0
DWIDTH 27 0
BBX 14 18 5 0
BITMAP
0780
0780
3FE0
7FF0
77F8
F7A0
7F80
7F80
3FE0
07F8
07FC
67BC
F7BC
7FFC
7FF8
1FF0
0780
0780
ENDCHAR
STARTCHAR FF05
ENCODING 8997
SWIDTH 2700 0
DWIDTH 27 0
BBX 20 18 2 0
BITMAP
3C0700
7E0E00
FF0E00
F71C00
F71C00
F73800
FF3800
7E7000
3CF380
00EFE0
01FFF0
01DEF0
03DEF0
039EF0
079FF0
070FE0
0F07C0
0E0000
ENDCHAR
STARTCHAR FF06
ENCODING 8998
SWIDTH 2700 0
DWIDTH 27 0
BBX 17 18 4 0
BITMAP
078000
1FE000
1EF000
3C7000
3C7000
3CF000
1FE000
0FC000
0F8000
1FC000
3DEF00
79FE00
70FE00
F07C00
F07E00
78FF80
7FEF00
3FC200
ENDCHAR
STARTCHAR FF07
ENCODING 8999
SWIDTH 2700 0
DWIDTH 27 0
BBX 4 6 10 13
BITMAP
F0
F0
F0
F0
F0
70
ENDCHAR
STARTCHAR FF08
ENCODING 9000
SWIDTH 2700 0
DWIDTH 27 0
BBX 6 23 13 -4
BITMAP
1C
1C
38
78
78
70
F0
F0
F0
F0
F0
F0
F0
F0
F0
F0
F0
F0
78
78
38
3C
1C
ENDCHAR
STARTCHAR FF09
ENCODING 9001
SWIDTH 2700 0
DWIDTH 27 0
BBX 6 23 4 -4
BITMAP
E0
E0
70
78
78
38
3C
3C
3C
3C
3C
3C
3C
3C
3C
3C
3C
38
78
78
70
70
E0
ENDCHAR
STARTCHAR FF0A
ENCODING 9002
SWIDTH 2700 0
DWIDTH 27 0
BBX 10 9 7 3
BITMAP
0C00
0C00
0C00
FF80
FFC0
3F00
3F00
3300
6100
ENDCHAR
STARTCHAR FF0B
ENCODING 9003
SWIDTH 2700 0
DWIDTH 27 0
BBX 12 12 6 1
BITMAP
0F00
0F00
0F00
0F00
0F00
FFF0
FFF0
0F00
0F00
0F00
0F00
0F00
ENDCHAR
STARTCHAR FF0C
ENCODING 9004
SWIDTH 2700 0
DWIDTH 27 0
BBX 4 5 5 -3
BITMAP
60
F0
F0
30
60
ENDCHAR
STARTCHAR FF0D
ENCODING 9005
SWIDTH 2700 0
DWIDTH 27 0
BBX 9 2 7 6
BITMAP
FF80
FF80
ENDCHAR
STARTCHAR FF0E
ENCODING 9006
SWIDTH 2700 0
DWIDTH 27 0
BBX 5 4 5 -2
BITMAP
70
F8
F8
70
ENDCHAR
STARTCHAR FF0F
ENCODING 9007
SWIDTH 2700 0
DWIDTH 27 0
BBX 8 17 8 0
BITMAP
07
0E
0E
0E
1C
1C
1C
38
38
38
70
70
70
70
E0
E0
E0
ENDCHAR
STARTCHAR FF10
ENCODING 9008
SWIDTH 2700 0
DWIDTH 27 0
BBX 12 17 6 0
BITMAP
0F00
3FC0
3FC0
79E0
70E0
F0F0
F0F0
F0F0
F0F0
F0F0
F0F0
F0F0
70E0
79E0
3FC0
3FC0
0F00
ENDCHAR
STARTCHAR FF11
ENCODING 9009
SWIDTH 2700 0
DWIDTH 27 0
BBX 7 17 8 0
BITMAP
1E
3E
7E
FE
FE
1E
1E
1E
1E
1E
1E
1E
1E
1E
1E
1E
1E
ENDCHAR
STARTCHAR FF12
ENCODING 9010
SWIDTH 2700 0
DWIDTH 27 0
BBX 13 18 5 0
BITMAP
0F80
3FE0
3FF0
78F8
7078
1078
0070
00F0
01E0
03C0
0780
0F00
1E00
3C00
7800
7FF8
7FF8
FFF8
ENDCHAR
STARTCHAR FF13
ENCODING 9011
SWIDTH 2700 0
DWIDTH 27 0
BBX 12 17 6 0
BITMAP
1F00
7FC0
7FC0
F1E0
E1E0
01E0
07C0
0F80
0FC0
01E0
00F0
00F0
E0F0
F1E0
FFE0
7FC0
1F00
ENDCHAR
STARTCHAR FF14
ENCODING 9012
SWIDTH 2700 0
DWIDTH 27 0
BBX 14 17 4 0
BITMAP
01F0
01F0
03F0
07F0
07F0
0FF0
1EF0
1CF0
3CF0
78F0
70F0
FFFC
FFFC
FFFC
00F0
00F0
00F0
ENDCHAR
STARTCHAR FF15
ENCODING 9013
SWIDTH 2700 0
DWIDTH 27 0
BBX 13 18 5 0
BITMAP
3FF0
3FF0
3FF0
3800
3800
3800
7F80
7FE0
7FF0
78F8
0078
0078
0078
F078
78F0
7FF0
3FE0
1F80
ENDCHAR
STARTCHAR FF16
ENCODING 9014
SWIDTH 2700 0
DWIDTH 27 0
BBX 12 17 6 0
BITMAP
0F80
3FC0
7FE0
78F0
70E0
F000
FF80
FFC0
FFE0
F9F0
F0F0
F0F0
F0F0
79F0
7FE0
3FC0
1F80
ENDCHAR
STARTCHAR FF17
ENCODING 9015
SWIDTH 2700 0
DWIDTH 27 0
BBX 13 18 5 0
BITMAP
FFF8
FFF8
FFF8
00F0
01E0
01C0
03C0
0380
0780
0700
0700
0E00
0E00
0E00
1E00
1E00
1C00
1C00
ENDCHAR
STARTCHAR FF18
ENCODING 9016
SWIDTH 2700 0
DWIDTH 27 0
BBX 13 17 5 0
BITMAP
0F80
3FE0
7DF0
7870
7870
78F0
7FF0
3FE0
7FF0
78F0
F078
F078
F078
F8F8
7FF0
3FE0
0FC0
ENDCHAR
STARTCHAR FF19
ENCODING 9017
SWIDTH 2700 0
DWIDTH 27 0
BBX 13 17 5 0
BITMAP
0FC0
1FE0
3FF0
7CF0
7878
7878
7878
7CF8
3FF8
3FF8
0F78
0078
E0F0
F0F0
FFE0
7FC0
1F80
ENDCHAR
STARTCHAR FF1A
ENCODING 9018
SWIDTH 2700 0
DWIDTH 27 0
BBX 4 16 10 -1
BITMAP
60
F0
F0
F0
00
00
00
00
00
00
00
40
F0
F0
F0
60
ENDCHAR
STARTCHAR FF1B
ENCODING 9019
SWIDTH 2700 0
DWIDTH 27 0
BBX 4 17 10 -2
BITMAP
60
F0
F0
F0
00
00
00
00
00
00
00
00
F0
F0
F0
60
40
ENDCHAR
STARTCHAR FF1C
ENCODING 9020
SWIDTH 2700 0
DWIDTH 27 0
BBX 16 14 3 0
BITMAP
0003
000F
007F
01FC
07F0
1FC0
FF00
7F00
1FE0
03F8
00FE
003F
000F
0003
ENDCHAR
STARTCHAR FF1D
ENCODING 9021
SWIDTH 2700 0
DWIDTH 27 0
BBX 12 8 6 3
BITMAP
FFF0
FFF0
0000
0000
0000
FFF0
FFF0
FFF0
ENDCHAR
STARTCHAR FF1E
ENCODING 9022
SWIDTH 2700 0
DWIDTH 27 0
BBX 16 14 4 0
BITMAP
E000
F800
FE00
3F80
0FF0
03FC
007F
00FE
03F8
0FE0
3F80
FE00
F000
C000
ENDCHAR
STARTCHAR FF1F
ENCODING 9023
SWIDTH 2700 0
DWIDTH 27 0
BBX 12 17 6 0
BITMAP
1F80
7FC0
FFE0
F0F0
E070
00F0
00F0
03E0
07C0
0F80
0F00
0E00
0E00
0E00
0F00
0F00
0E00
ENDCHAR
STARTCHAR FF20
ENCODING 9024
SWIDTH 2700 0
DWIDTH 27 0
BBX 20 18 2 0
BITMAP
01FC00
07FF00
1FFF80
3F07C0
7DFFC0
7BFDE0
FBF9E0
F739E0
F739E0
F73BE0
F733C0
F7FFC0
7FFFC0
7FFFF0
3F03E0
1FFFC0
0FFF80
01FC00
ENDCHAR
STARTCHAR FF21
ENCODING 9025
SWIDTH 2700 0
DWIDTH 27 0
BBX 18 17 3 0
BITMAP
01E000
01E000
03F000
03F000
07F800
073800
0F3800
0E3C00
1E1C00
1E1E00
3FFE00
3FFF00
7C0F00
780780
780780
F007C0
F003C0
ENDCHAR
STARTCHAR FF22
ENCODING 9026
SWIDTH 2700 0
DWIDTH 27 0
BBX 15 17 4 0
BITMAP
FFE0
FFF8
FFFC
F03C
F01C
F01C
F03C
FFF8
FFF8
FFFC
F03E
F01E
F01E
F03E
FFFC
FFF8
FFE0
ENDCHAR
STARTCHAR FF23
ENCODING 9027
SWIDTH 2700 0
DWIDTH 27 0
BBX 16 18 4 -1
BITMAP
07E0
0FF8
3FFC
3C1E
780F
7800
F000
F000
F000
F000
F000
F000
780F
780E
3E1E
3FFC
0FF8
01C0
ENDCHAR
STARTCHAR FF24
ENCODING 9028
SWIDTH 2700 0
DWIDTH 27 0
BBX 16 17 4 0
BITMAP
FFC0
FFF8
FFFC
F03E
F01E
F00F
F00F
F00F
F00F
F00F
F00F
F00F
F01E
F03E
F1FC
FFF8
FFE0
ENDCHAR
STARTCHAR FF25
ENCODING 9029
SWIDTH 2700 0
DWIDTH 27 0
BBX 14 17 4 0
BITMAP
FFFC
FFFC
F000
F000
F000
F000
F000
FFF8
FFF8
FFF8
F000
F000
F000
F000
FFFC
FFFC
FFFC
ENDCHAR
STARTCHAR FF26
ENCODING 9030
SWIDTH 2700 0
DWIDTH 27 0
BBX 13 17 5 0
BITMAP
FFF8
FFF8
F000
F000
F000
F000
F000
FFE0
FFE0
FFE0
F000
F000
F000
F000
F000
F000
F000
ENDCHAR
STARTCHAR FF27
ENCODING 9031
SWIDTH 2700 0
DWIDTH 27 0
BBX 17 17 3 0
BITMAP
03F000
1FFC00
3FFE00
7E1F00
780700
F80000
F00000
F00000
F07F80
F07F80
F07F80
700780
780780
780780
3E0F80
1FFE00
03F800
ENDCHAR
STARTCHAR FF28
ENCODING 9032
SWIDTH 2700 0
DWIDTH 27 0
BBX 14 17 5 0
BITMAP
F03C
F03C
F03C
F03C
F03C
F03C
F03C
FFFC
FFFC
F03C
F03C
F03C
F03C
F03C
F03C
F03C
F03C
ENDCHAR
STARTCHAR FF29
ENCODING 9033
SWIDTH 2700 0
DWIDTH 27 0
BBX 4 17 10 0
BITMAP
F0
F0
F0
F0
F0
F0
F0
F0
F0
F0
F0
F0
F0
F0
F0
F0
F0
ENDCHAR
STARTCHAR FF2A
ENCODING 9034
SWIDTH 2700 0
DWIDTH 27 0
BBX 16 17 4 0
BITMAP
1FFF
1FFF
00F0
00F0
00F0
00F0
00F0
00F0
00F0
00F0
00F0
00F0
F0F0
F0F0
7FE0
3FE0
1F80
ENDCHAR
STARTCHAR FF2B
ENCODING 9035
SWIDTH 2700 0
DWIDTH 27 0
BBX 16 17 4 0
BITMAP
F01F
F03E
F07C
F0F0
F1E0
F3C0
F780
FF80
FF80
FFC0
F9E0
F0F0
F078
F078
F03C
F01E
F00F
ENDCHAR
STARTCHAR FF2C
ENCODING 9036
SWIDTH 2700 0
DWIDTH 27 0
BBX 14 17 5 0
BITMAP
F000
F000
F000
F000
F000
F000
F000
F000
F000
F000
F000
F000
F000
F000
F000
FFFC
FFFC
ENDCHAR
STARTCHAR FF2D
ENCODING 9037
SWIDTH 2700 0
DWIDTH 27 0
BBX 16 17 4 0
BITMAP
F00F
F81F
F81F
F81F
F81F
FC3F
FC3F
FC3F
FE7F
F66F
F66F
F6EF
F7EF
F7CF
F3CF
F3CF
F3CF
ENDCHAR
STARTCHAR FF2E
ENCODING 9038
SWIDTH 2700 0
DWIDTH 27 0
BBX 15 17 4 0
BITMAP
F01E
F01E
F81E
FC1E
FC1E
FE1E
F71E
F71E
F39E
F19E
F1DE
F0FE
F07E
F07E
F03E
F03E
F01E
ENDCHAR
STARTCHAR FF2F
ENCODING 9039
SWIDTH 2700 0
DWIDTH 27 0
BBX 17 18 4 -1
BITMAP
03E000
0FF800
1FFC00
3C3E00
701F00
700F00
E00780
E00780
E00780
E00780
E00780
E00780
600F00
701F00
3C3E00
1FFC00
0FF800
01C000
ENDCHAR
STARTCHAR FF30
ENCODING 9040
SWIDTH 2700 0
DWIDTH 27 0
BBX 14 17 5 0
BITMAP
FFC0
FFF0
FFF8
F07C
F03C
F03C
F03C
F07C
FFF8
FFF0
FFC0
F000
F000
F000
F000
F000
F000
ENDCHAR
STARTCHAR FF31
ENCODING 9041
SWIDTH 2700 0
DWIDTH 27 0
BBX 18 18 3 -1
BITMAP
07F000
1FFC00
3FFE00
7C1F00
780F00
F80F80
F00780
F00780
F00780
F00780
F00780
F06780
78FF00
787F00
3E7F00
1FFFC0
07F780
000100
ENDCHAR
STARTCHAR FF32
ENCODING 9042
SWIDTH 2700 0
DWIDTH 27 0
BBX 14 17 4 0
BITMAP
FF80
FFF0
FFF8
F07C
F03C
F03C
F03C
F07C
FFF8
FFF0
F0F8
F03C
F03C
F03C
F03C
F03C
F03C
ENDCHAR
STARTCHAR FF33
ENCODING 9043
SWIDTH 2700 0
DWIDTH 27 0
BBX 15 18 4 -1
BITMAP
0FE0
3FF0
3FF8
783C
7018
7800
7C00
3FC0
1FF8
03FC
003C
001E
F01E
F81E
7C3E
7FFC
3FF8
07E0
ENDCHAR
STARTCHAR FF34
ENCODING 9044
SWIDTH 2700 0
DWIDTH 27 0
BBX 16 17 4 0
BITMAP
FFFF
FFFF
FFFF
03C0
03C0
03C0
03C0
03C0
03C0
03C0
03C0
03C0
03C0
03C0
03C0
03C0
03C0
ENDCHAR
STARTCHAR FF35
ENCODING 9045
SWIDTH 2700 0
DWIDTH 27 0
BBX 15 17 4 0
BITMAP
F01E
F01E
F01E
F01E
F01E
F01E
F01E
F01E
F01E
F01E
F01E
F01E
F01E
783E
7C7C
3FFC
1FF0
ENDCHAR
STARTCHAR FF36
ENCODING 9046
SWIDTH 2700 0
DWIDTH 27 0
BBX 16 17 4 0
BITMAP
E00F
F00E
701E
781C
781C
383C
3C38
3C38
1C78
1E70
1EF0
0EE0
0FE0
07E0
07C0
07C0
03C0
ENDCHAR
STARTCHAR FF37
ENCODING 9047
SWIDTH 2700 0
DWIDTH 27 0
BBX 18 17 3 0
BITMAP
F1E3C0
F1E3C0
71E3C0
71E380
71F380
7BF380
3BF780
3BF700
3BF700
3B3700
1B3F00
1F3E00
1F3E00
1F3E00
1E1E00
0E1C00
0E1C00
ENDCHAR
STARTCHAR FF38
ENCODING 9048
SWIDTH 2700 0
DWIDTH 27 0
BBX 16 17 4 0
BITMAP
F01E
781E
3C3C
3C78
1E78
0FF0
0FE0
07E0
03C0
07E0
0FE0
0FF0
1E78
3C78
783C
781E
F01F
ENDCHAR
STARTCHAR FF39
ENCODING 9049
SWIDTH 2700 0
DWIDTH 27 0
BBX 18 17 3 0
BITMAP
F003C0
780780
3C0F00
3E1E00
1E1E00
0F3C00
07F800
07F000
03F000
01E000
01E000
01E000
01E000
01E000
01E000
01E000
01E000
ENDCHAR
STARTCHAR FF3A
ENCODING 9050
SWIDTH 2700 0
DWIDTH 27 0
BBX 15 17 4 0
BITMAP
FFFE
FFFE
FFFE
003C
0078
00F0
01E0
03C0
0780
0780
0F00
1E00
3C00
7800
FFFE
FFFE
FFFE
ENDCHAR
STARTCHAR FF3B
ENCODING 9051
SWIDTH 2700 0
DWIDTH 27 0
BBX 6 23 10 -4
BITMAP
7C
FC
FC
F0
F0
F0
F0
F0
F0
F0
F0
F0
F0
F0
F0
F0
F0
F0
F0
F0
F0
FC
FC
ENDCHAR
STARTCHAR FFE6
ENCODING 9052
SWIDTH 2700 0
DWIDTH 27 0
BBX 20 17 2 0
BITMAP
70F0E0
70F1E0
78F1C0
FFFFF0
FFFFF0
FFFFF0
19F9C0
1DF9C0
FFFFF0
FFFFF0
FFFFF0
1D9D80
0D9F80
0F8F00
0F8F00
0F0F00
070F00
ENDCHAR
STARTCHAR FF3D
ENCODING 9053
SWIDTH 2700 0
DWIDTH 27 0
BBX 6 23 8 -4
BITMAP
F8
FC
FC
3C
3C
3C
3C
3C
3C
3C
3C
3C
3C
3C
3C
3C
3C
3C
3C
3C
3C
FC
FC
ENDCHAR
STARTCHAR FF3E
ENCODING 9054
SWIDTH 2700 0
DWIDTH 27 0
BBX 13 5 5 14
BITMAP
0700
0FC0
3FE0
7DF0
F8F8
ENDCHAR
STARTCHAR FF3F
ENCODING 9055
SWIDTH 2700 0
DWIDTH 27 0
BBX 14 3 5 -4
BITMAP
FFFC
FFFC
FFFC
ENDCHAR
STARTCHAR FF40
ENCODING 9056
SWIDTH 2700 0
DWIDTH 27 0
BBX 5 4 4 15
BITMAP
F0
70
30
38
ENDCHAR
STARTCHAR FF41
ENCODING 9057
SWIDTH 2700 0
DWIDTH 27 0
BBX 11 13 6 0
BITMAP
0E00
3F80
7FC0
F1E0
E1E0
1FE0
7FE0
FDE0
E1E0
E3E0
FFE0
FFE0
7FE0
ENDCHAR
STARTCHAR FF42
ENCODING 9058
SWIDTH 2700 0
DWIDTH 27 0
BBX 12 17 6 0
BITMAP
F000
F000
F000
F000
F000
FFC0
FFE0
F9E0
F0F0
F0F0
F0F0
F0F0
F0F0
F9E0
FFE0
FFC0
E400
ENDCHAR
STARTCHAR FF43
ENCODING 9059
SWIDTH 2700 0
DWIDTH 27 0
BBX 12 13 5 0
BITMAP
0F80
3FE0
7FF0
78F0
F040
F000
F000
F000
F070
78F0
7FF0
3FE0
1FC0
ENDCHAR
STARTCHAR FF44
ENCODING 9060
SWIDTH 2700 0
DWIDTH 27 0
BBX 13 17 5 0
BITMAP
0078
0078
0078
0078
0078
1FF8
3FF8
7FF8
F8F8
F078
F078
F078
F078
F8F8
7FF8
3FF8
1FF8
ENDCHAR
STARTCHAR FF45
ENCODING 9061
SWIDTH 2700 0
DWIDTH 27 0
BBX 13 13 5 -1
BITMAP
1FC0
3FE0
78F0
7070
7FF0
FFF8
FFF8
F000
7060
78F0
3FF0
3FE0
0780
ENDCHAR
STARTCHAR FF46
ENCODING 9062
SWIDTH 2700 0
DWIDTH 27 0
BBX 11 17 7 0
BITMAP
07C0
0FC0
1FC0
1E00
1E00
FFE0
FFE0
1E00
1E00
1E00
1E00
1E00
1E00
1E00
1E00
1E00
1E00
ENDCHAR
STARTCHAR FF47
ENCODING 9063
SWIDTH 2700 0
DWIDTH 27 0
BBX 13 16 5 -4
BITMAP
1FF8
7FF8
7FF8
F0F8
F078
F078
F078
F8F8
7FF8
3FF8
0678
6078
F078
FFF0
7FF0
1FC0
ENDCHAR
STARTCHAR FF48
ENCODING 9064
SWIDTH 2700 0
DWIDTH 27 0
BBX 12 17 6 0
BITMAP
F000
F000
F000
F000
F000
FFC0
FFE0
F9F0
F0F0
F0F0
F0F0
F0F0
F0F0
F0F0
F0F0
F0F0
F0F0
ENDCHAR
STARTCHAR FF49
ENCODING 9065
SWIDTH 2700 0
DWIDTH 27 0
BBX 4 17 10 0
BITMAP
60
F0
F0
60
00
F0
F0
F0
F0
F0
F0
F0
F0
F0
F0
F0
F0
ENDCHAR
STARTCHAR FF4A
ENCODING 9066
SWIDTH 2700 0
DWIDTH 27 0
BBX 7 21 7 -4
BITMAP
0C
0E
1E
0E
00
1E
1E
1E
1E
1E
1E
1E
1E
1E
1E
1E
1E
FE
FE
FC
30
ENDCHAR
STARTCHAR FF4B
ENCODING 9067
SWIDTH 2700 0
DWIDTH 27 0
BBX 13 17 6 0
BITMAP
F000
F000
F000
F000
F000
F1F0
F3E0
F7C0
FF80
FF00
FF80
FF80
FBC0
F3E0
F1E0
F0F0
F0F8
ENDCHAR
STARTCHAR FF4C
ENCODING 9068
SWIDTH 2700 0
DWIDTH 27 0
BBX 4 17 10 0
BITMAP
F0
F0
F0
F0
F0
F0
F0
F0
F0
F0
F0
F0
F0
F0
F0
F0
F0
ENDCHAR
STARTCHAR FF4D
ENCODING 9069
SWIDTH 2700 0
DWIDTH 27 0
BBX 17 12 3 0
BITMAP
F40000
FFFF00
FFFF00
FBE780
F1E780
F1E780
F1E780
F1E780
F1E780
F1E780
F1E780
F1E780
ENDCHAR
STARTCHAR FF4E
ENCODING 9070
SWIDTH 2700 0
DWIDTH 27 0
BBX 12 12 6 0
BITMAP
FF80
FFE0
FFF0
F0F0
F0F0
F0F0
F0F0
F0F0
F0F0
F0F0
F0F0
F0F0
ENDCHAR
STARTCHAR FF4F
ENCODING 9071
SWIDTH 2700 0
DWIDTH 27 0
BBX 14 13 5 0
BITMAP
0FC0
3FF0
7FF8
7878
F07C
F03C
F03C
F03C
F03C
7878
7FF8
3FF0
07C0
ENDCHAR
STARTCHAR FF50
ENCODING 9072
SWIDTH 2700 0
DWIDTH 27 0
BBX 13 16 5 -4
BITMAP
FFC0
FFE0
FFF0
F8F8
F078
F078
F078
F878
FFF0
FFF0
FFE0
F000
F000
F000
F000
F000
ENDCHAR
STARTCHAR FF51
ENCODING 9073
SWIDTH 2700 0
DWIDTH 27 0
BBX 13 16 5 -4
BITMAP
1FF8
7FF8
7FF8
F878
F078
F078
F078
F8F8
7FF8
7FF8
3FF8
0078
0078
0078
0078
0078
ENDCHAR
STARTCHAR FF52
ENCODING 9074
SWIDTH 2700 0
DWIDTH 27 0
BBX 9 12 8 0
BITMAP
FF80
FF80
FF00
F800
F000
F000
F000
F000
F000
F000
F000
F000
ENDCHAR
STARTCHAR FF53
ENCODING 9075
SWIDTH 2700 0
DWIDTH 27 0
BBX 11 14 6 -1
BITMAP
0400
3F80
7FC0
FBE0
F1E0
FC00
7F80
1FC0
03E0
60E0
F9E0
7FE0
3FC0
0E00
ENDCHAR
STARTCHAR FF54
ENCODING 9076
SWIDTH 2700 0
DWIDTH 27 0
BBX 10 16 6 0
BITMAP
1E00
1E00
1E00
1E00
FFC0
FFC0
1E00
1E00
1E00
1E00
1E00
1E00
1E00
1F80
1FC0
0FC0
ENDCHAR
STARTCHAR FF55
ENCODING 9077
SWIDTH 2700 0
DWIDTH 27 0
BBX 12 12 6 0
BITMAP
F0F0
F0F0
F0F0
F0F0
F0F0
F0F0
F0F0
F0F0
F0F0
FFF0
7FF0
3FF0
ENDCHAR
STARTCHAR FF56
ENCODING 9078
SWIDTH 2700 0
DWIDTH 27 0
BBX 14 12 5 0
BITMAP
E03C
F078
F078
7870
78F0
3CE0
3DE0
1FC0
1FC0
0F80
0F80
0780
ENDCHAR
STARTCHAR FF57
ENCODING 9079
SWIDTH 2700 0
DWIDTH 27 0
BBX 15 12 4 0
BITMAP
F38E
738E
73DE
77DC
37DC
3FDC
3ED8
3ED8
1EF8
1EF8
1E70
1C70
ENDCHAR
STARTCHAR FF58
ENCODING 9080
SWIDTH 2700 0
DWIDTH 27 0
BBX 13 12 5 0
BITMAP
F078
78F0
3DE0
3FE0
1FC0
0F80
0F80
1FC0
3FE0
3CF0
78F8
F078
ENDCHAR
STARTCHAR FF59
ENCODING 9081
SWIDTH 2700 0
DWIDTH 27 0
BBX 13 15 5 -3
BITMAP
F078
7878
78F0
3CF0
3CF0
1FE0
1FE0
0FC0
0FC0
0780
0780
0780
7F00
7E00
7800
ENDCHAR
STARTCHAR FF5A
ENCODING 9082
SWIDTH 2700 0
DWIDTH 27 0
BBX 12 12 6 0
BITMAP
FFE0
FFE0
03C0
07C0
0F80
0F00
1E00
3C00
7800
F000
FFF0
FFF0
ENDCHAR
STARTCHAR FF5B
ENCODING 9083
SWIDTH 2700 0
DWIDTH 27 0
BBX 7 23 8 -4
BITMAP
0E
3E
3E
38
38
38
38
38
38
38
F8
F0
F8
78
38
38
38
38
38
38
3E
3E
1E
ENDCHAR
STARTCHAR FF5C
ENCODING 9084
SWIDTH 2700 0
DWIDTH 27 0
BBX 4 17 10 0
BITMAP
F0
F0
F0
F0
F0
F0
F0
F0
F0
F0
F0
F0
F0
F0
F0
F0
F0
ENDCHAR
STARTCHAR FF5D
ENCODING 9085
SWIDTH 2700 0
DWIDTH 27 0
BBX 8 23 8 -4
BITMAP
C0
F8
FC
3C
3C
3C
3C
3C
3C
3C
3F
1F
3F
3E
3C
3C
3C
3C
3C
3C
7C
FC
F8
ENDCHAR
STARTCHAR FFE3
ENCODING 9086
SWIDTH 2700 0
DWIDTH 27 0
BBX 13 4 5 5
BITMAP
7C08
FFF8
FFF8
81E0
ENDCHAR
STARTCHAR 3131
ENCODING 9249
SWIDTH 2700 0
DWIDTH 27 0
BBX 18 17 2 0
BITMAP
FFFFC0
FFFFC0
FFFFC0
0003C0
0003C0
0003C0
0003C0
0003C0
0003C0
0003C0
0003C0
0003C0
0003C0
0003C0
0003C0
0003C0
0003C0
ENDCHAR
STARTCHAR 3132
ENCODING 9250
SWIDTH 2700 0
DWIDTH 27 0
BBX 18 17 3 0
BITMAP
FFBFC0
FFBFC0
FFBFC0
0783C0
0783C0
0783C0
0783C0
0783C0
0783C0
0783C0
0783C0
0783C0
0783C0
0783C0
0783C0
0783C0
0783C0
ENDCHAR
STARTCHAR 3133
ENCODING 9251
SWIDTH 2700 0
DWIDTH 27 0
BBX 21 17 1 0
BITMAP
FF8780
FF8780
FF8780
078780
078780
078780
078780
078780
0787C0
078FC0
078FE0
079FE0
079EF0
07FCF8
07BC78
07B030
078010
ENDCHAR
STARTCHAR 3134
ENCODING 9252
SWIDTH 2700 0
DWIDTH 27 0
BBX 17 17 4 0
BITMAP
F00000
F00000
F00000
F00000
F00000
F00000
F00000
F00000
F00000
F00000
F00000
F00000
F00000
F00000
F00000
FFFF80
7FFF80
ENDCHAR
STARTCHAR 3135
ENCODING 9253
SWIDTH 2700 0
DWIDTH 27 0
BBX 20 17 2 0
BITMAP
F07FE0
F07FE0
F07FE0
F00F00
F00F00
F00F00
F00F00
F00F00
F00F00
F00F00
F00F00
F01F80
F01F80
F07FE0
F07FF0
FF78E0
7F2060
ENDCHAR
STARTCHAR 3136
ENCODING 9254
SWIDTH 2700 0
DWIDTH 27 0
BBX 18 17 3 0
BITMAP
F01E00
F01E00
F1FFC0
F1FFC0
F03FC0
F07F80
F07380
F0F3C0
F0F3C0
F0F3C0
F0F3C0
F0F3C0
F0F3C0
F07F80
F07F80
FF3F00
7F1E00
ENDCHAR
STARTCHAR 3137
ENCODING 9255
SWIDTH 2700 0
DWIDTH 27 0
BBX 17 17 3 0
BITMAP
FFFF80
FFFF80
FFFF80
F00000
F00000
F00000
F00000
F00000
F00000
F00000
F00000
F00000
F00000
F00000
F00000
FFFF80
7FFF80
ENDCHAR
STARTCHAR 3138
ENCODING 9256
SWIDTH 2700 0
DWIDTH 27 0
BBX 19 17 2 0
BITMAP
FFBFE0
FFBFE0
FFBFE0
F03C00
F03C00
F03C00
F03C00
F03C00
F03C00
F03C00
F03C00
F03C00
F03C00
F03C00
F03C00
FFBFE0
7F9FE0
ENDCHAR
STARTCHAR 3139
ENCODING 9257
SWIDTH 2700 0
DWIDTH 27 0
BBX 16 17 4 0
BITMAP
FFFF
FFFF
FFFF
000F
000F
000F
000F
FFFF
FFFF
FFFF
F000
F000
F000
F000
FFFF
FFFF
7FFF
ENDCHAR
STARTCHAR 313A
ENCODING 9258
SWIDTH 2700 0
DWIDTH 27 0
BBX 18 17 3 0
BITMAP
FFFFC0
FFFFC0
FFFFC0
0783C0
0783C0
0783C0
0783C0
FF83C0
FF83C0
FF83C0
F003C0
F003C0
F003C0
F003C0
FFC3C0
FFC3C0
7FC3C0
ENDCHAR
STARTCHAR 313B
ENCODING 9259
SWIDTH 2700 0
DWIDTH 27 0
BBX 20 17 2 0
BITMAP
FFBFF0
FFBFF0
FFBFF0
07BCF0
07BCF0
07BCF0
07BCF0
FFBCF0
FFBCF0
FFBCF0
F03CF0
F03CF0
F03CF0
F03CF0
FFBFF0
FFBFF0
7F9FF0
ENDCHAR
STARTCHAR 313C
ENCODING 9260
SWIDTH 2700 0
DWIDTH 27 0
BBX 20 17 2 0
BITMAP
FFBCF0
FFBCF0
FFBCF0
07BCF0
07BCF0
07BFF0
07BFF0
FFBFF0
FFBCF0
FFBCF0
F03CF0
F03CF0
F03CF0
F03CF0
FFBCF0
FFBFF0
7F9FF0
ENDCHAR
STARTCHAR 313D
ENCODING 9261
SWIDTH 2700 0
DWIDTH 27 0
BBX 22 17 1 0
BITMAP
FF83C0
FF83C0
FF83C0
0783C0
0783C0
0783C0
0783C0
FF83C0
FF83E0
FF87E0
F007F0
F00FF0
F00F78
F03E7C
FF9E3C
FF9818
7F8000
ENDCHAR
STARTCHAR 313E
ENCODING 9262
SWIDTH 2700 0
DWIDTH 27 0
BBX 19 17 2 0
BITMAP
FFBFE0
FFBFE0
FFBFE0
07BC00
07BC00
07BC00
07BC00
7FBFE0
7FBFE0
7FBFE0
783C00
783C00
783C00
783C00
7FFFE0
7FFFE0
3FDFE0
ENDCHAR
STARTCHAR 313F
ENCODING 9263
SWIDTH 2700 0
DWIDTH 27 0
BBX 20 17 2 0
BITMAP
FF7FF0
FF7FF0
FF7FF0
0F3DE0
0F3DE0
0F3DE0
0F3DE0
FF3DE0
FF3DE0
FF3DE0
F03DE0
F03DE0
F03DE0
F03DE0
FFFFF0
FFFFF0
7FFFF0
ENDCHAR
STARTCHAR 3140
ENCODING 9264
SWIDTH 2700 0
DWIDTH 27 0
BBX 20 17 2 0
BITMAP
FF8780
FF8780
FFBFF0
07BFF0
07BFF0
078FC0
079CE0
FFBCF0
FFBCF0
FFBCF0
F03CF0
F03CF0
F03CF0
F01FE0
FF9FE0
FF8FC0
7F8780
ENDCHAR
STARTCHAR 3141
ENCODING 9265
SWIDTH 2700 0
DWIDTH 27 0
BBX 18 17 3 0
BITMAP
FFFFC0
FFFFC0
FFFFC0
F003C0
F003C0
F003C0
F003C0
F003C0
F003C0
F003C0
F003C0
F003C0
F003C0
F003C0
FFFFC0
FFFFC0
7FFFC0
ENDCHAR
STARTCHAR 3142
ENCODING 9266
SWIDTH 2700 0
DWIDTH 27 0
BBX 18 17 3 0
BITMAP
F003C0
F003C0
F003C0
F003C0
F003C0
FFFFC0
FFFFC0
FFFFC0
F003C0
F003C0
F003C0
F003C0
F003C0
F003C0
FFFFC0
FFFFC0
7FFFC0
ENDCHAR
STARTCHAR 3143
ENCODING 9267
SWIDTH 2700 0
DWIDTH 27 0
BBX 20 17 2 0
BITMAP
F3FCF0
F3FCF0
F3FCF0
F3FCF0
F3FCF0
FFFFF0
FFFFF0
FFFFF0
F3FCF0
F3FCF0
F3FCF0
F3FCF0
F3FCF0
F3FCF0
FFFFF0
FFFFF0
7FDFF0
ENDCHAR
STARTCHAR 3144
ENCODING 9268
SWIDTH 2700 0
DWIDTH 27 0
BBX 22 17 1 0
BITMAP
F783C0
F783C0
F783C0
F783C0
F783C0
FF83C0
FF83C0
FF83C0
F783E0
F787E0
F787F0
F787F0
F78F78
F7BE7C
F79E3C
FF9C18
7F8008
ENDCHAR
STARTCHAR 3145
ENCODING 9269
SWIDTH 2700 0
DWIDTH 27 0
BBX 15 17 5 0
BITMAP
0780
0780
0780
0780
0780
0780
0780
0780
0FC0
0FC0
0FE0
1FF0
3FF8
FCFC
F87E
703C
2018
ENDCHAR
STARTCHAR 3146
ENCODING 9270
SWIDTH 2700 0
DWIDTH 27 0
BBX 20 17 2 0
BITMAP
0F0F00
0F0F00
0F0F00
0F0F00
0F0F00
0F0F00
0F0F00
0F0F00
0F9F80
1F9F80
1FFFC0
3FFFC0
3DFFE0
F9F9F0
73F0F0
61E060
00C000
ENDCHAR
STARTCHAR 3147
ENCODING 9271
SWIDTH 2700 0
DWIDTH 27 0
BBX 18 16 3 0
BITMAP
03F000
0FFE00
3FFF00
7E1F80
780780
F807C0
F003C0
F003C0
F003C0
F003C0
F807C0
780780
7E1F80
3FFF00
1FFE00
07F000
ENDCHAR
STARTCHAR 3148
ENCODING 9272
SWIDTH 2700 0
DWIDTH 27 0
BBX 16 17 4 0
BITMAP
7FFE
7FFE
7FFE
03C0
03C0
03C0
03C0
03C0
03C0
03C0
07E0
0FF0
1FF8
FFFF
7E7F
7C1E
3006
ENDCHAR
STARTCHAR 3149
ENCODING 9273
SWIDTH 2700 0
DWIDTH 27 0
BBX 20 17 2 0
BITMAP
7FFFE0
7FFFE0
7FFFE0
0F0F00
0F0F00
0F0F00
0F0F00
0F0F00
0F0F00
0F0F00
0F8F00
1FDF80
3FFFC0
FFFFF0
7CFDF0
70F060
006000
ENDCHAR
STARTCHAR 314A
ENCODING 9274
SWIDTH 2700 0
DWIDTH 27 0
BBX 16 17 4 0
BITMAP
03C0
03C0
FFFF
FFFF
FFFF
03C0
03C0
03C0
03C0
03C0
03C0
07E0
1FF0
7FFC
FE7F
7C3E
600E
ENDCHAR
STARTCHAR 314B
ENCODING 9275
SWIDTH 2700 0
DWIDTH 27 0
BBX 17 17 3 0
BITMAP
7FFF80
7FFF80
7FFF80
000780
000780
000780
000780
FFFF80
FFFF80
FFFF80
000780
000780
000780
000780
000780
000780
000780
ENDCHAR
STARTCHAR 314C
ENCODING 9276
SWIDTH 2700 0
DWIDTH 27 0
BBX 17 17 4 0
BITMAP
FFFF80
FFFF80
FFFF80
F00000
F00000
F00000
F00000
FFFF80
FFFF80
FFFF80
F00000
F00000
F00000
F00000
FFFF80
FFFF80
7FFF80
ENDCHAR
STARTCHAR 314D
ENCODING 9277
SWIDTH 2700 0
DWIDTH 27 0
BBX 18 17 3 0
BITMAP
FFFFC0
FFFFC0
FFFFC0
1E1E00
1E1E00
1E1E00
1E1E00
1E1E00
1E1E00
1E1E00
1E1E00
1E1E00
1E1E00
1E1E00
FFFFC0
FFFFC0
FFFFC0
ENDCHAR
STARTCHAR 314E
ENCODING 9278
SWIDTH 2700 0
DWIDTH 27 0
BBX 19 17 3 0
BITMAP
01E000
01E000
FFFFE0
FFFFE0
FFFFE0
3FFF00
7E0F80
7C07C0
F803C0
F803C0
F803C0
F803C0
FC0780
7E0F80
3FFF00
1FFE00
07F800
ENDCHAR
STARTCHAR 314F
ENCODING 9279
SWIDTH 2700 0
DWIDTH 27 0
BBX 7 17 10 0
BITMAP
F0
F0
F0
F0
F0
F0
FE
FE
FE
F0
F0
F0
F0
F0
F0
F0
F0
ENDCHAR
STARTCHAR 3150
ENCODING 9280
SWIDTH 2700 0
DWIDTH 27 0
BBX 10 17 7 0
BITMAP
F3C0
F3C0
F3C0
F3C0
F3C0
F3C0
FFC0
FFC0
FFC0
F3C0
F3C0
F3C0
F3C0
F3C0
F3C0
F3C0
F3C0
ENDCHAR
STARTCHAR 3151
ENCODING 9281
SWIDTH 2700 0
DWIDTH 27 0
BBX 7 17 9 0
BITMAP
F0
F0
F0
F0
FE
FE
FE
F0
F0
FE
FE
FE
F0
F0
F0
F0
F0
ENDCHAR
STARTCHAR 3152
ENCODING 9282
SWIDTH 2700 0
DWIDTH 27 0
BBX 10 17 7 0
BITMAP
F000
F3C0
F3C0
F3C0
F3C0
FFC0
FFC0
FFC0
F3C0
FFC0
FFC0
FFC0
F3C0
F3C0
F3C0
F3C0
F3C0
ENDCHAR
STARTCHAR 3153
ENCODING 9283
SWIDTH 2700 0
DWIDTH 27 0
BBX 7 17 8 0
BITMAP
1E
1E
1E
1E
1E
1E
FE
FE
FE
1E
1E
1E
1E
1E
1E
1E
1E
ENDCHAR
STARTCHAR 3154
ENCODING 9284
SWIDTH 2700 0
DWIDTH 27 0
BBX 12 17 7 0
BITMAP
1E00
1EF0
1EF0
1EF0
1EF0
1EF0
FEF0
FEF0
FEF0
1EF0
1EF0
1EF0
1EF0
1EF0
1EF0
1EF0
1EF0
ENDCHAR
STARTCHAR 3155
ENCODING 9285
SWIDTH 2700 0
DWIDTH 27 0
BBX 7 17 9 0
BITMAP
1E
1E
1E
1E
FE
FE
1E
1E
1E
FE
FE
FE
1E
1E
1E
1E
1E
ENDCHAR
STARTCHAR 3156
ENCODING 9286
SWIDTH 2700 0
DWIDTH 27 0
BBX 13 17 6 0
BITMAP
1E00
1E78
1E78
1E78
FE78
FE78
1E78
1E78
1E78
FE78
FE78
FE78
1E78
1E78
1E78
1E78
1E78
ENDCHAR
STARTCHAR 3157
ENCODING 9287
SWIDTH 2700 0
DWIDTH 27 0
BBX 19 11 3 0
BITMAP
01E000
01E000
01E000
01E000
01E000
01E000
01E000
01E000
FFFFE0
FFFFE0
FFFFE0
ENDCHAR
STARTCHAR 3158
ENCODING 9288
SWIDTH 2700 0
DWIDTH 27 0
BBX 21 18 2 -1
BITMAP
0003C0
0003C0
0003C0
0003C0
0003C0
0003C0
0783F8
0783F8
0783F8
0783C0
0783C0
0783C0
0783C0
0783C0
FFFFC0
FFFFC0
FFFFC0
0003C0
ENDCHAR
STARTCHAR 3159
ENCODING 9289
SWIDTH 2700 0
DWIDTH 27 0
BBX 20 19 2 -2
BITMAP
001EF0
001EF0
001EF0
001EF0
001EF0
001FF0
0F1FF0
0F1FF0
0F1EF0
0F1EF0
0F1EF0
0F1EF0
0F1EF0
0F1EF0
FFFEF0
FFFEF0
FFFEF0
001EF0
001E00
ENDCHAR
STARTCHAR 315A
ENCODING 9290
SWIDTH 2700 0
DWIDTH 27 0
BBX 18 18 3 -2
BITMAP
0003C0
0003C0
0003C0
0003C0
0003C0
0783C0
0783C0
0783C0
0783C0
0783C0
0783C0
0783C0
0783C0
FFFFC0
FFFFC0
FFFFC0
0003C0
0003C0
ENDCHAR
STARTCHAR 315B
ENCODING 9291
SWIDTH 2700 0
DWIDTH 27 0
BBX 19 10 2 0
BITMAP
0F1E00
0F1E00
0F1E00
0F1E00
0F1E00
0F1E00
0F1E00
FFFFE0
FFFFE0
FFFFE0
ENDCHAR
STARTCHAR 315C
ENCODING 9292
SWIDTH 2700 0
DWIDTH 27 0
BBX 18 12 3 -2
BITMAP
FFFFC0
FFFFC0
FFFFC0
01E000
01E000
01E000
01E000
01E000
01E000
01E000
01E000
01E000
ENDCHAR
STARTCHAR 315D
ENCODING 9293
SWIDTH 2700 0
DWIDTH 27 0
BBX 18 19 3 -2
BITMAP
0003C0
0003C0
0003C0
0003C0
0003C0
0003C0
0003C0
FFFFC0
FFFFC0
FFFFC0
0783C0
079FC0
079FC0
079FC0
0783C0
0783C0
0783C0
0783C0
0003C0
ENDCHAR
STARTCHAR 315E
ENCODING 9294
SWIDTH 2700 0
DWIDTH 27 0
BBX 20 19 2 -2
BITMAP
000F00
000FF0
000FF0
000FF0
000FF0
000FF0
000FF0
FFFFF0
FFFFF0
FFFFF0
0F0FF0
0F7FF0
0F7FF0
0F7FF0
0F0FF0
0F0FF0
0F0FF0
0F0FF0
000FF0
ENDCHAR
STARTCHAR 315F
ENCODING 9295
SWIDTH 2700 0
DWIDTH 27 0
BBX 16 18 4 -2
BITMAP
000F
000F
000F
000F
000F
000F
000F
FFFF
FFFF
FFFF
078F
078F
078F
078F
078F
078F
078F
000F
ENDCHAR
STARTCHAR 3160
ENCODING 9296
SWIDTH 2700 0
DWIDTH 27 0
BBX 20 11 2 -2
BITMAP
FFFFF0
FFFFF0
FFFFF0
0F0F00
0F0F00
0F0F00
0F0F00
0F0F00
0F0F00
0F0F00
0F0F00
ENDCHAR
STARTCHAR 3161
ENCODING 9297
SWIDTH 2700 0
DWIDTH 27 0
BBX 18 3 3 0
BITMAP
FFFFC0
FFFFC0
FFFFC0
ENDCHAR
STARTCHAR 3162
ENCODING 9298
SWIDTH 2700 0
DWIDTH 27 0
BBX 19 18 3 -2
BITMAP
0001E0
0001E0
0001E0
0001E0
0001E0
0001E0
0001E0
0001E0
0001E0
0001E0
FFFFE0
FFFFE0
FFFFE0
0001E0
0001E0
0001E0
0001E0
0001E0
ENDCHAR
STARTCHAR 3163
ENCODING 9299
SWIDTH 2700 0
DWIDTH 27 0
BBX 4 18 11 -2
BITMAP
F0
F0
F0
F0
F0
F0
F0
F0
F0
F0
F0
F0
F0
F0
F0
F0
F0
F0
ENDCHAR
STARTCHAR 3164
ENCODING 9300
SWIDTH 2700 0
DWIDTH 27 0
BBX 0 0 0 0
BITMAP
ENDCHAR
STARTCHAR 3165
ENCODING 9301
SWIDTH 2700 0
DWIDTH 27 0
BBX 16 17 4 0
BITMAP
F0F0
F0F0
F0F0
F0F0
F0F0
F0F0
F0F0
F0F0
F0F0
F0F0
F0F0
F0F0
F0F0
F0F0
F0F0
FFFF
7F7F
ENDCHAR
STARTCHAR 3166
ENCODING 9302
SWIDTH 2700 0
DWIDTH 27 0
BBX 18 17 3 0
BITMAP
F07FC0
F07FC0
F07FC0
F07800
F07800
F07800
F07800
F07800
F07800
F07800
F07800
F07800
F07800
F07800
F07FC0
FF7FC0
7F3FC0
ENDCHAR
STARTCHAR 3167
ENCODING 9303
SWIDTH 2700 0
DWIDTH 27 0
BBX 20 17 2 0
BITMAP
F00F00
F00F00
F00F00
F00F00
F00F00
F00F00
F00F00
F00F00
F00F80
F01F80
F01F80
F01FC0
F03DE0
F07DF0
F0F8F0
FF7070
7F0020
ENDCHAR
STARTCHAR 3168
ENCODING 9304
SWIDTH 2700 0
DWIDTH 27 0
BBX 20 17 2 0
BITMAP
F00000
F00200
F00600
F00600
F00700
F00F00
F00F00
F00F80
F01F80
F01F80
F01DC0
F03DC0
F039C0
F039E0
F03FE0
FF7FE0
7F7FF0
ENDCHAR
STARTCHAR 3169
ENCODING 9305
SWIDTH 2700 0
DWIDTH 27 0
BBX 24 17 0 0
BITMAP
FFFE78
FFFE78
FFFE78
0F1E78
0F1E78
0F1E78
0F1E78
FF1E78
FF1E78
F01E7C
F01E7C
F01EFC
F01EFE
F01FFF
FF1FEF
FF1FC6
7F1E82
ENDCHAR
STARTCHAR 316A
ENCODING 9306
SWIDTH 2700 0
DWIDTH 27 0
BBX 19 17 2 0
BITMAP
FF8000
FFBFE0
FFBFE0
07BC00
07BC00
07BC00
07BC00
7FBC00
7FBC00
7FBC00
783C00
783C00
783C00
783C00
7FFC00
7FFFE0
3FDFE0
ENDCHAR
STARTCHAR 316B
ENCODING 9307
SWIDTH 2700 0
DWIDTH 27 0
BBX 24 17 0 0
BITMAP
FFEF78
FFEF78
FFEF78
1FEF78
1FEF78
1FFF78
1FFF78
FFFF78
FFEF78
F1EF78
F1EF7C
F1EF7C
F1EFFE
F1EFFE
FFEFEF
FFFFC6
7EFF82
ENDCHAR
STARTCHAR 316C
ENCODING 9308
SWIDTH 2700 0
DWIDTH 27 0
BBX 21 17 2 0
BITMAP
FF8000
FF8100
FF8300
078300
078380
078780
078780
7F87C0
7F87C0
7F8FC0
780FE0
780EE0
781CE0
781CF0
7FDFF0
7FFFF0
3FFFF8
ENDCHAR
STARTCHAR 316D
ENCODING 9309
SWIDTH 2700 0
DWIDTH 27 0
BBX 22 17 1 0
BITMAP
FFBFF8
FFBFF8
FFBFF8
0783C0
0783C0
0787E0
079FF0
FFBC78
FFF83C
FFF83C
F0783C
F0783C
F0783C
F07C78
FFBFF8
FF9FF0
7F87C0
ENDCHAR
STARTCHAR 316E
ENCODING 9310
SWIDTH 2700 0
DWIDTH 27 0
BBX 19 17 2 0
BITMAP
FFC000
FFFDE0
FFFDE0
F3FDE0
F3FDE0
F3FDE0
F3FFE0
F3FDE0
F3FDE0
F3FDE0
F3FDE0
F3FDE0
F3FDE0
F3FDE0
FFFFE0
FFFFE0
7FDFE0
ENDCHAR
STARTCHAR 316F
ENCODING 9311
SWIDTH 2700 0
DWIDTH 27 0
BBX 22 17 2 0
BITMAP
FF83C0
FF83C0
FF83C0
F783C0
F783C0
F783C0
F783C0
F783C0
F783E0
F787E0
F787E0
F787F0
F78FF8
F7BF7C
FF9E3C
FF9C18
7F8000
ENDCHAR
STARTCHAR 3170
ENCODING 9312
SWIDTH 2700 0
DWIDTH 27 0
BBX 21 17 2 0
BITMAP
FF8000
FF8100
FF8300
F78300
F78380
F78780
F78780
F787C0
F787C0
F78FC0
F78FE0
F78EE0
F79CE0
F79CF0
FF9FF0
FFBFF0
7FBFF8
ENDCHAR
STARTCHAR 3171
ENCODING 9313
SWIDTH 2700 0
DWIDTH 27 0
BBX 18 21 3 -2
BITMAP
FFFFC0
FFFFC0
FFFFC0
F003C0
F003C0
FFFFC0
FFFFC0
7FFFC0
000000
00E000
01F000
07FC00
0F1E00
1E0F00
1E0F00
1E0F00
1E0F00
1F1F00
0FFE00
07FC00
03F000
ENDCHAR
STARTCHAR 3172
ENCODING 9314
SWIDTH 2700 0
DWIDTH 27 0
BBX 19 17 2 0
BITMAP
F3DFE0
F3DFE0
F3DFE0
F3C1E0
F3C1E0
FFC1E0
FFC1E0
FFC1E0
F3C1E0
F3C1E0
F3C1E0
F3C1E0
F3C1E0
F3C1E0
F3C1E0
FFC1E0
7FC1E0
ENDCHAR
STARTCHAR 3173
ENCODING 9315
SWIDTH 2700 0
DWIDTH 27 0
BBX 19 17 2 0
BITMAP
F3DFE0
F3DFE0
F3DFE0
F3DE00
F3DE00
FFDE00
FFDE00
FFDE00
F3DE00
F3DE00
F3DE00
F3DE00
F3DE00
F3DE00
F3DFE0
FFDFE0
7FCFE0
ENDCHAR
STARTCHAR 3174
ENCODING 9316
SWIDTH 2700 0
DWIDTH 27 0
BBX 23 17 1 0
BITMAP
F7BDFE
F7BDFE
F7BDFE
F7BC1E
F7BC1E
FFBC1E
FFBC1E
FFBC1E
F7BC1E
F7BE1E
F7BE1E
F7BE1E
F7FF1E
F7FF9E
F7F79E
FFE31E
7F811E
ENDCHAR
STARTCHAR 3175
ENCODING 9317
SWIDTH 2700 0
DWIDTH 27 0
BBX 24 17 0 0
BITMAP
F7BC7F
F7BC7F
F7BC7F
F7BC78
F7BC78
FFBC78
FFBC78
FFBC78
F7BC78
F7BC78
F7BE78
F7BE78
F7FF78
F7FF78
F7F7FF
FFF77F
7FE03F
ENDCHAR
STARTCHAR 3176
ENCODING 9318
SWIDTH 2700 0
DWIDTH 27 0
BBX 21 17 2 0
BITMAP
F7BFF0
F7BFF0
F7BFF0
F78780
F78780
FF8780
FF8780
FF8780
F78780
F78780
F78780
F78FC0
F78FC0
F7BFF0
F7BFF8
FFBC70
7F9030
ENDCHAR
STARTCHAR 3177
ENCODING 9319
SWIDTH 2700 0
DWIDTH 27 0
BBX 19 17 2 0
BITMAP
F3FFE0
F3FFE0
F3FFE0
F3FC00
F3FC00
FFFC00
FFFC00
FFFFE0
F3FFE0
F3FFE0
F3FC00
F3FC00
F3FC00
F3FC00
F3FFE0
FFFFE0
7FDFE0
ENDCHAR
STARTCHAR 3178
ENCODING 9320
SWIDTH 2700 0
DWIDTH 27 0
BBX 17 21 4 -2
BITMAP
F00780
F00780
FFFF80
FFFF80
FFFF80
F00780
FFFF80
FFFF80
7FFF80
000000
01C000
01C000
0FF800
1E3C00
3C1E00
3C1E00
3C1E00
3E3E00
1FFC00
1FF800
07E000
ENDCHAR
STARTCHAR 3179
ENCODING 9321
SWIDTH 2700 0
DWIDTH 27 0
BBX 20 21 2 -2
BITMAP
F3FCF0
F3FCF0
FFFFF0
FFFFF0
FFFFF0
F3FCF0
FFFFF0
FFFFF0
7FDFF0
000000
00F000
01F000
07FE00
0F0F00
1E0780
1E0780
1E0780
1F0F80
0FFF00
0FFE00
03F800
ENDCHAR
STARTCHAR 317A
ENCODING 9322
SWIDTH 2700 0
DWIDTH 27 0
BBX 19 17 2 0
BITMAP
0F3FE0
0F3FE0
0F3FE0
0F01E0
0F01E0
0F01E0
0F01E0
0F01E0
0F81E0
1F81E0
1FC1E0
3FC1E0
3DE1E0
F9F1E0
78F1E0
6061E0
0021E0
ENDCHAR
STARTCHAR 317B
ENCODING 9323
SWIDTH 2700 0
DWIDTH 27 0
BBX 20 17 2 0
BITMAP
0F0F00
0F0F00
0F0F00
0F0F00
0F0F00
0F0F00
0F0F00
0F0F00
0F8F00
1F8F00
1FCF00
1FCF00
3DEF00
F9FF00
78FF00
606FF0
0027F0
ENDCHAR
STARTCHAR 317C
ENCODING 9324
SWIDTH 2700 0
DWIDTH 27 0
BBX 21 17 1 0
BITMAP
0F0FF8
0F0FF8
0F0FF8
0F0F00
0F0F00
0F0F00
0F0F00
0F0F00
0F8F00
1F8F00
1FCF00
3FCF00
3DEF00
F9FF00
78FFF8
606FF8
0027F8
ENDCHAR
STARTCHAR 317D
ENCODING 9325
SWIDTH 2700 0
DWIDTH 27 0
BBX 21 17 1 0
BITMAP
0F0F78
0F0F78
0F0F78
0F0F78
0F0F78
0F0FF8
0F0FF8
0F0FF8
0F8F78
1F8F78
1F8F78
3FCF78
3FEF78
FDFF78
78FF78
706FF8
0007F8
ENDCHAR
STARTCHAR 317E
ENCODING 9326
SWIDTH 2700 0
DWIDTH 27 0
BBX 23 17 0 0
BITMAP
0F0FFC
0F0FFC
0F0FFC
0F01E0
0F01E0
0F01E0
0F01E0
0F01E0
0F01E0
1F81E0
1F81E0
1FC1F0
3FC3F0
7DEFFC
F9EFFE
70EF1C
00440C
ENDCHAR
STARTCHAR 317F
ENCODING 9327
SWIDTH 2700 0
DWIDTH 27 0
BBX 17 16 4 0
BITMAP
018000
018000
03C000
03C000
07E000
07E000
0FF000
0F7000
1E7800
1E3C00
3C3C00
3C1E00
781E00
7FFF00
FFFF00
FFFF80
ENDCHAR
STARTCHAR 3180
ENCODING 9328
SWIDTH 2700 0
DWIDTH 27 0
BBX 24 17 0 0
BITMAP
0F00F0
3FC3FC
3FE7FC
79E79E
70EF0E
F0FF0F
F0FF0F
F0FF0F
F0FF0F
F0FF0F
F0FF0F
F0FF0F
78E78E
79E79E
3FC3FC
3F81FC
0F00F0
ENDCHAR
STARTCHAR 3181
ENCODING 9329
SWIDTH 2700 0
DWIDTH 27 0
BBX 15 15 5 0
BITMAP
0780
0780
1FE0
3C70
783C
701C
F01E
F01E
F01E
F01E
F83E
7C7C
7FFC
3FF8
0FE0
ENDCHAR
STARTCHAR 3182
ENCODING 9330
SWIDTH 2700 0
DWIDTH 27 0
BBX 23 17 1 0
BITMAP
0001E0
0F01E0
0F01E0
3FC1E0
79E1E0
79E1E0
F0F1E0
F0F1E0
F0F1F0
F0F3F0
F0F3F0
F0F3F8
F9F7FC
79FFBE
7FEF1E
3FCE0C
1F8000
ENDCHAR
STARTCHAR 3183
ENCODING 9331
SWIDTH 2700 0
DWIDTH 27 0
BBX 22 16 1 0
BITMAP
0F0080
0F0080
3FC0C0
79E1C0
78F1C0
F071E0
F07BE0
F07BE0
F07BF0
F07F70
F07F70
F8FF70
78FF38
7FFFF8
3FEFF8
0F9FFC
ENDCHAR
STARTCHAR 3184
ENCODING 9332
SWIDTH 2700 0
DWIDTH 27 0
BBX 18 21 3 -2
BITMAP
FFFFC0
FFFFC0
FFFFC0
1E1E00
1E1E00
1E1E00
FFFFC0
FFFFC0
FFFFC0
000000
00E000
01F000
07FC00
0F1E00
1E0F00
1E0F00
1E0F00
1F1F00
0FFE00
0FFC00
03F000
ENDCHAR
STARTCHAR 3185
ENCODING 9333
SWIDTH 2700 0
DWIDTH 27 0
BBX 24 15 0 0
BITMAP
7FE7FE
7FE7FE
7FE7FE
000000
0F00F0
0F00F0
3FC3FC
79E79E
78EF0F
F8FF0F
F8FF0F
79FF9F
7FEFFE
3FE7FE
1F81F8
ENDCHAR
STARTCHAR 3186
ENCODING 9334
SWIDTH 2700 0
DWIDTH 27 0
BBX 18 15 3 0
BITMAP
FFFFC0
FFFFC0
000000
000000
01E000
01E000
07FC00
0FFE00
1F1F00
1E0F00
1E0F00
1E0F00
1F1E00
0FFE00
03F800
ENDCHAR
STARTCHAR 3187
ENCODING 9335
SWIDTH 2700 0
DWIDTH 27 0
BBX 21 18 2 -1
BITMAP
0003C0
0003C0
0003C0
0003C0
0003F8
0003F8
0003F8
1EF3C0
1EF3C0
1EF3F8
1EF3F8
1EF3F8
1EF3C0
1EF3C0
FFFFC0
FFFFC0
FFFFC0
0003C0
ENDCHAR
STARTCHAR 3188
ENCODING 9336
SWIDTH 2700 0
DWIDTH 27 0
BBX 21 18 2 -1
BITMAP
000F78
000F78
000F78
000F78
000FF8
000FF8
3DEFF8
3DEF78
3DEF78
3DEFF8
3DEFF8
3DEFF8
3DEF78
3DEF78
FFFF78
FFFF78
FFFF78
000F78
ENDCHAR
STARTCHAR 3189
ENCODING 9337
SWIDTH 2700 0
DWIDTH 27 0
BBX 19 18 2 -1
BITMAP
0001E0
0001E0
0001E0
0001E0
0001E0
0001E0
1E79E0
1E79E0
1E79E0
1E79E0
1E79E0
1E79E0
1E79E0
1E79E0
FFFFE0
FFFFE0
FFFFE0
0001E0
ENDCHAR
STARTCHAR 318A
ENCODING 9338
SWIDTH 2700 0
DWIDTH 27 0
BBX 21 19 0 -2
BITMAP
000078
000078
000078
000078
000078
000078
000078
000078
FFFFF8
FFFFF8
FFFFF8
0F7878
0F7BF8
0F7BF8
0F7878
0F7BF8
0F7BF8
0F7878
0F7878
ENDCHAR
STARTCHAR 318B
ENCODING 9339
SWIDTH 2700 0
DWIDTH 27 0
BBX 22 19 1 -2
BITMAP
000780
0007BC
0007BC
0007BC
0007BC
0007BC
0007BC
0007BC
FFFFBC
FFFFBC
FFFFBC
3FC7BC
3FFFBC
3FFFBC
3FC7BC
3FFFBC
3FFFBC
3FC7BC
3FC7BC
ENDCHAR
STARTCHAR 318C
ENCODING 9340
SWIDTH 2700 0
DWIDTH 27 0
BBX 19 18 3 -2
BITMAP
0001E0
0001E0
0001E0
0001E0
0001E0
0001E0
0001E0
FFFFE0
FFFFE0
FFFFE0
0F79E0
0F79E0
0F79E0
0F79E0
0F79E0
0F79E0
0F79E0
0F79E0
ENDCHAR
STARTCHAR 318D
ENCODING 9341
SWIDTH 2700 0
DWIDTH 27 0
BBX 6 5 9 5
BITMAP
30
78
FC
FC
78
ENDCHAR
STARTCHAR 318E
ENCODING 9342
SWIDTH 2700 0
DWIDTH 27 0
BBX 12 18 6 -1
BITMAP
00F0
00F0
00F0
00F0
00F0
00F0
00F0
60F0
F0F0
F8F0
F8F0
F0F0
00F0
00F0
00F0
00F0
00F0
00F0
ENDCHAR
STARTCHAR 2170
ENCODING 9505
SWIDTH 2700 0
DWIDTH 27 0
BBX 4 17 10 0
BITMAP
60
F0
F0
00
00
60
60
60
60
60
60
60
60
60
60
60
60
ENDCHAR
STARTCHAR 2171
ENCODING 9506
SWIDTH 2700 0
DWIDTH 27 0
BBX 9 17 7 0
BITMAP
4100
E380
E380
0000
0000
E380
E380
E380
E380
E380
E380
E380
E380
E380
E380
E380
E380
ENDCHAR
STARTCHAR 2172
ENCODING 9507
SWIDTH 2700 0
DWIDTH 27 0
BBX 12 17 6 0
BITMAP
C660
EE70
EE70
0000
0000
EE70
EE70
EE70
EE70
EE70
EE70
EE70
EE70
EE70
EE70
EE70
EE70
ENDCHAR
STARTCHAR 2173
ENCODING 9508
SWIDTH 2700 0
DWIDTH 27 0
BBX 15 17 5 0
BITMAP
4000
E000
E000
0000
0000
EE0E
E70E
E71E
E71C
E39C
E39C
E3B8
E1F8
E1F8
E1F0
E0F0
E0F0
ENDCHAR
STARTCHAR 2174
ENCODING 9509
SWIDTH 2700 0
DWIDTH 27 0
BBX 14 12 5 0
BITMAP
F01C
703C
7838
3838
3C70
1C70
1EE0
0EE0
0FC0
07C0
07C0
0380
ENDCHAR
STARTCHAR 2175
ENCODING 9510
SWIDTH 2700 0
DWIDTH 27 0
BBX 16 17 4 0
BITMAP
0006
000F
0007
0000
0000
F0E7
70E7
70E7
79C7
39C7
39C7
3F87
1F87
1F87
0F07
0F07
0F07
ENDCHAR
STARTCHAR 2176
ENCODING 9511
SWIDTH 2700 0
DWIDTH 27 0
BBX 19 17 2 0
BITMAP
000460
000EE0
000EE0
000000
000000
F0EEE0
70EEE0
70EEE0
79CEE0
39CEE0
39CEE0
1F8EE0
1F8EE0
1F8EE0
0F0EE0
0F0EE0
0F0EE0
ENDCHAR
STARTCHAR 2177
ENCODING 9512
SWIDTH 2700 0
DWIDTH 27 0
BBX 22 17 1 0
BITMAP
000898
001DDC
001DDC
000000
000000
E0FDDC
E1DDDC
F1DDDC
71DDDC
739DDC
3B9DDC
3B9DDC
3B1DDC
1F1DDC
1F1DDC
1E1DDC
0E1DDC
ENDCHAR
STARTCHAR 2178
ENCODING 9513
SWIDTH 2700 0
DWIDTH 27 0
BBX 18 17 3 0
BITMAP
200000
700000
700000
000000
000000
F383C0
F3C380
F1E700
F0FF00
F07E00
F03C00
F03C00
F07E00
F0FF00
F1E700
F3C380
F383C0
ENDCHAR
STARTCHAR 2179
ENCODING 9514
SWIDTH 2700 0
DWIDTH 27 0
BBX 12 12 6 0
BITMAP
F070
70F0
39E0
3DC0
1F80
0F80
0F00
1F80
1FC0
39E0
78F0
F070
ENDCHAR
STARTCHAR 2160
ENCODING 9520
SWIDTH 2700 0
DWIDTH 27 0
BBX 4 17 11 0
BITMAP
F0
F0
F0
F0
F0
F0
F0
F0
F0
F0
F0
F0
F0
F0
F0
F0
F0
ENDCHAR
STARTCHAR 2161
ENCODING 9521
SWIDTH 2700 0
DWIDTH 27 0
BBX 13 17 6 0
BITMAP
F078
F078
F078
F078
F078
F078
F078
F078
F078
F078
F078
F078
F078
F078
F078
F078
F078
ENDCHAR
STARTCHAR 2162
ENCODING 9522
SWIDTH 2700 0
DWIDTH 27 0
BBX 13 17 5 0
BITMAP
F3F8
F3F8
F3F8
F3F8
F3F8
F3F8
F3F8
F3F8
F3F8
F3F8
F3F8
F3F8
F3F8
F3F8
F3F8
F3F8
F3F8
ENDCHAR
STARTCHAR 2163
ENCODING 9523
SWIDTH 2700 0
DWIDTH 27 0
BBX 15 17 5 0
BITMAP
FE0E
FE0E
F71C
F71C
F71C
F71C
F798
F3B8
F3B8
F3B8
F3B0
F1F0
F1F0
F1F0
F1F0
F0E0
F0E0
ENDCHAR
STARTCHAR 2164
ENCODING 9524
SWIDTH 2700 0
DWIDTH 27 0
BBX 12 17 6 0
BITMAP
F070
7070
70F0
70E0
70E0
38E0
39C0
39C0
39C0
1DC0
1F80
1F80
0F80
0F00
0F00
0F00
0700
ENDCHAR
STARTCHAR 2165
ENCODING 9525
SWIDTH 2700 0
DWIDTH 27 0
BBX 16 17 5 0
BITMAP
E1EF
E1CF
E1CF
E1CF
F1CF
738F
738F
738F
7B8F
3F0F
3F0F
3F0F
3F0F
1E0F
1E0F
1E0F
1E0F
ENDCHAR
STARTCHAR 2166
ENCODING 9526
SWIDTH 2700 0
DWIDTH 27 0
BBX 19 17 3 0
BITMAP
E0FDE0
E1FDE0
F1FDE0
71FDE0
71FDE0
73BDE0
73BDE0
3BBDE0
3BBDE0
3F3DE0
3F3DE0
1F3DE0
1F3DE0
1E3DE0
1E3DE0
1E3DE0
0E3DE0
ENDCHAR
STARTCHAR 2167
ENCODING 9527
SWIDTH 2700 0
DWIDTH 27 0
BBX 22 17 1 0
BITMAP
E0EFFC
F0EFFC
71CFFC
71CFFC
71CFFC
71CFFC
3B8FFC
3B8FFC
3B8FFC
3B8FFC
1B0FFC
1F0FFC
1F0FFC
1F0FFC
1E0FFC
0E0FFC
0E0FFC
ENDCHAR
STARTCHAR 2168
ENCODING 9528
SWIDTH 2700 0
DWIDTH 27 0
BBX 19 17 2 0
BITMAP
F780E0
F781C0
F3C3C0
F1C380
F1E780
F0FF00
F07E00
F07E00
F03C00
F03C00
F07E00
F0FF00
F0E700
F1E780
F3C3C0
F381E0
F781E0
ENDCHAR
STARTCHAR 2169
ENCODING 9529
SWIDTH 2700 0
DWIDTH 27 0
BBX 15 17 5 0
BITMAP
F01E
701C
7838
3C78
1C70
1EE0
0FE0
07C0
07C0
07C0
0FE0
0EE0
1EF0
3C78
3838
783C
F01E
ENDCHAR
STARTCHAR 0391
ENCODING 9537
SWIDTH 2700 0
DWIDTH 27 0
BBX 17 17 4 0
BITMAP
008000
008000
01C000
01C000
03E000
03E000
077000
0F7000
0E3800
1E3800
1FFC00
3FFC00
3FFE00
780E00
780F00
F00780
F00780
ENDCHAR
STARTCHAR 0392
ENCODING 9538
SWIDTH 2700 0
DWIDTH 27 0
BBX 15 17 6 0
BITMAP
FFF0
FFF8
FFFC
F03C
F03C
F03C
F03C
FFF8
FFFC
FFFC
F03E
F01E
F01E
F03E
FFFC
FFF8
FFE0
ENDCHAR
STARTCHAR 0393
ENCODING 9539
SWIDTH 2700 0
DWIDTH 27 0
BBX 13 17 6 0
BITMAP
FFF8
FFF8
FFF8
E000
E000
E000
E000
E000
E000
E000
E000
E000
E000
E000
E000
E000
E000
ENDCHAR
STARTCHAR 0394
ENCODING 9540
SWIDTH 2700 0
DWIDTH 27 0
BBX 15 17 5 0
BITMAP
0002
0002
0006
000E
001E
003E
007E
00FE
01FE
01DE
039E
071E
0E1E
1E1E
3C1E
7FFE
FFFE
ENDCHAR
STARTCHAR 0395
ENCODING 9541
SWIDTH 2700 0
DWIDTH 27 0
BBX 14 17 5 0
BITMAP
FFFC
FFFC
FFFC
F000
F000
F000
F000
FFF8
FFF8
FFF8
F000
F000
F000
F000
FFFC
FFFC
FFFC
ENDCHAR
STARTCHAR 0396
ENCODING 9542
SWIDTH 2700 0
DWIDTH 27 0
BBX 15 17 5 0
BITMAP
FFFE
FFFE
FFFE
003C
007C
00F8
01F0
03E0
03C0
07C0
0F80
1F00
3E00
3C00
7C00
FFFE
FFFE
ENDCHAR
STARTCHAR 0397
ENCODING 9543
SWIDTH 2700 0
DWIDTH 27 0
BBX 14 17 5 0
BITMAP
E01C
E01C
E01C
E01C
E01C
E01C
E01C
FFFC
FFFC
FFFC
E01C
E01C
E01C
E01C
E01C
E01C
E01C
ENDCHAR
STARTCHAR 0398
ENCODING 9544
SWIDTH 2700 0
DWIDTH 27 0
BBX 17 17 4 0
BITMAP
03E000
0FFC00
3F7E00
7C1F00
780F00
F00780
F00780
FFFF80
FFFF80
FFFF80
F00780
F00780
780F00
780F00
3E3E00
1FFC00
07F000
ENDCHAR
STARTCHAR 0399
ENCODING 9545
SWIDTH 2700 0
DWIDTH 27 0
BBX 4 17 10 0
BITMAP
F0
F0
F0
F0
F0
F0
F0
F0
F0
F0
F0
F0
F0
F0
F0
F0
F0
ENDCHAR
STARTCHAR 039A
ENCODING 9546
SWIDTH 2700 0
DWIDTH 27 0
BBX 16 17 4 0
BITMAP
F01F
F03E
F07C
F0F8
F3E0
F7C0
FF80
FF80
FFC0
FBC0
F1E0
F1E0
F0F0
F0F8
F078
F07C
F03C
ENDCHAR
STARTCHAR 039B
ENCODING 9547
SWIDTH 2700 0
DWIDTH 27 0
BBX 15 17 5 0
BITMAP
0100
0100
0380
0380
0780
07C0
0FC0
0FE0
0EE0
1EF0
1CF0
3C78
3C78
7878
783C
F83C
F03E
ENDCHAR
STARTCHAR 039C
ENCODING 9548
SWIDTH 2700 0
DWIDTH 27 0
BBX 17 17 4 0
BITMAP
F80F80
F80F80
F81F80
FC1F80
FC1F80
FC3F80
FC3F80
FE3F80
FE3780
FE7780
F77780
F77780
F7E780
F7E780
F3E780
F3E780
F3C780
ENDCHAR
STARTCHAR 039D
ENCODING 9549
SWIDTH 2700 0
DWIDTH 27 0
BBX 15 17 5 0
BITMAP
F01E
F81E
F81E
FC1E
FE1E
F61E
F71E
F39E
F19E
F1DE
F0FE
F0FE
F07E
F03E
F03E
F01E
F00E
ENDCHAR
STARTCHAR 039E
ENCODING 9550
SWIDTH 2700 0
DWIDTH 27 0
BBX 14 16 5 0
BITMAP
FFFC
FFFC
FFFC
0000
0000
0000
0000
1FF0
1FF0
0000
0000
0000
0000
0000
7FFC
7FFC
ENDCHAR
STARTCHAR 039F
ENCODING 9551
SWIDTH 2700 0
DWIDTH 27 0
BBX 17 17 4 0
BITMAP
07F000
1FFC00
3FFE00
7C1F00
780F00
F80F80
F00780
F00780
F00780
F00780
F00780
F00F80
780F00
7C1F00
3FFE00
1FFC00
07F800
ENDCHAR
STARTCHAR 03A0
ENCODING 9552
SWIDTH 2700 0
DWIDTH 27 0
BBX 15 17 5 0
BITMAP
FFFE
FFFE
FFFE
F01E
F01E
F01E
F01E
F01E
F01E
F01E
F01E
F01E
F01E
F01E
F01E
F01E
F01E
ENDCHAR
STARTCHAR 03A1
ENCODING 9553
SWIDTH 2700 0
DWIDTH 27 0
BBX 13 17 6 -1
BITMAP
FFE0
FFF0
F078
F038
F078
F078
FFF8
FFF0
FFE0
F000
F000
F000
F000
F000
F000
F000
F000
ENDCHAR
STARTCHAR 03A3
ENCODING 9554
SWIDTH 2700 0
DWIDTH 27 0
BBX 15 17 5 0
BITMAP
FFFE
7FFE
3FFE
1C00
1E00
0F00
0780
03C0
01E0
03C0
0780
0700
0E00
1E00
3FFE
7FFE
FFFE
ENDCHAR
STARTCHAR 03A4
ENCODING 9555
SWIDTH 2700 0
DWIDTH 27 0
BBX 15 17 5 0
BITMAP
FFFE
FFFE
FFFE
0780
0780
0780
0780
0780
0780
0780
0780
0780
0780
0780
0780
0780
0780
ENDCHAR
STARTCHAR 03A5
ENCODING 9556
SWIDTH 2700 0
DWIDTH 27 0
BBX 16 17 4 0
BITMAP
0018
1E7E
7FFF
FFE7
F7C7
C780
4780
0780
0780
0780
0780
0780
0780
0780
0780
0780
0780
ENDCHAR
STARTCHAR 03A6
ENCODING 9557
SWIDTH 2700 0
DWIDTH 27 0
BBX 17 17 4 0
BITMAP
03C000
03C000
07F000
3FFC00
7FFE00
7BCF00
F3C780
F3C780
F3C780
F3C780
F3CF80
7BCF00
7FFE00
1FFC00
07F000
03C000
03C000
ENDCHAR
STARTCHAR 03A7
ENCODING 9558
SWIDTH 2700 0
DWIDTH 27 0
BBX 15 17 5 0
BITMAP
F03E
783C
7C78
3C78
3EF0
1EF0
0FE0
0FC0
07C0
07C0
0FC0
1FE0
1EF0
3CF0
7878
787C
F03C
ENDCHAR
STARTCHAR 03A8
ENCODING 9559
SWIDTH 2700 0
DWIDTH 27 0
BBX 18 17 3 0
BITMAP
11E200
7DEF80
FDEFC0
5DEF80
1DEE00
1DEE00
1DEE00
1DEE00
1FFE00
0FFC00
07F800
01E000
01E000
01E000
01E000
01E000
01E000
ENDCHAR
STARTCHAR 03A9
ENCODING 9560
SWIDTH 2700 0
DWIDTH 27 0
BBX 15 17 5 0
BITMAP
0FE0
1FF0
3FF8
7C7C
F83E
F01E
F01E
F01E
F01E
783C
7EFC
3EF8
1EF0
1EF0
FEFE
FEFE
FEFE
ENDCHAR
STARTCHAR 03B1
ENCODING 9569
SWIDTH 2700 0
DWIDTH 27 0
BBX 15 10 5 1
BITMAP
0070
1FF8
3FF8
7FF0
71F0
F0E0
E0E0
71FC
7FFE
3FBC
ENDCHAR
STARTCHAR 03B2
ENCODING 9570
SWIDTH 2700 0
DWIDTH 27 0
BBX 13 18 7 -1
BITMAP
1F80
7FC0
FFE0
F0F0
F070
F0F0
F7E0
F7F0
F7F8
F078
F038
F078
F0F0
FFF0
FFC0
F000
F000
F000
ENDCHAR
STARTCHAR 03B3
ENCODING 9571
SWIDTH 2700 0
DWIDTH 27 0
BBX 10 11 7 0
BITMAP
71C0
FFC0
FFC0
4F80
0F80
0700
0F00
0F00
0E00
1E00
1E00
ENDCHAR
STARTCHAR 03B4
ENCODING 9572
SWIDTH 2700 0
DWIDTH 27 0
BBX 12 17 7 0
BITMAP
3F80
7FE0
FFF0
F0F0
F060
F000
FC00
7F80
7FC0
FFE0
F0E0
E0F0
E0F0
F0E0
FFE0
7FC0
3F80
ENDCHAR
STARTCHAR 03B5
ENCODING 9573
SWIDTH 2700 0
DWIDTH 27 0
BBX 9 11 8 -1
BITMAP
3E00
7F80
F300
F000
7C00
7C00
FC00
E000
F380
FF80
7E00
ENDCHAR
STARTCHAR 03B6
ENCODING 9574
SWIDTH 2700 0
DWIDTH 27 0
BBX 12 21 7 -3
BITMAP
1CC0
3DF0
3BC0
3F80
3F00
3E00
7C00
7800
7000
F000
F000
F000
7E00
7F80
1FE0
01E0
00E0
01E0
0FE0
1FC0
0700
ENDCHAR
STARTCHAR 03B7
ENCODING 9575
SWIDTH 2700 0
DWIDTH 27 0
BBX 14 12 5 -2
BITMAP
79C0
FFF8
DF7C
1E3C
1E3C
1E3C
1E3C
1E3C
1E3C
1E3C
003C
003C
ENDCHAR
STARTCHAR 03B8
ENCODING 9576
SWIDTH 2700 0
DWIDTH 27 0
BBX 18 17 3 0
BITMAP
03F800
0FFE00
1FFF00
3E0F80
7C0780
7803C0
7803C0
FFFFC0
FFFFC0
FFFFC0
7803C0
7803C0
7C0780
3E0F80
1FFF00
0FFE00
03F800
ENDCHAR
STARTCHAR 03B9
ENCODING 9577
SWIDTH 2700 0
DWIDTH 27 0
BBX 6 10 10 0
BITMAP
70
F0
F0
E0
E0
E0
E8
FC
F8
70
ENDCHAR
STARTCHAR 03BA
ENCODING 9578
SWIDTH 2700 0
DWIDTH 27 0
BBX 11 10 7 0
BITMAP
F1E0
F3E0
F3E0
F700
FF00
FF00
F780
F380
F3E0
F1E0
ENDCHAR
STARTCHAR 03BB
ENCODING 9579
SWIDTH 2700 0
DWIDTH 27 0
BBX 14 18 6 0
BITMAP
1F80
1FC0
1FC0
03C0
03C0
03C0
03C0
03C0
03C0
07C0
07C0
0FE0
1EE0
3CF0
78F8
F07C
E038
4010
ENDCHAR
STARTCHAR 03BC
ENCODING 9580
SWIDTH 2700 0
DWIDTH 27 0
BBX 14 11 6 -1
BITMAP
F1E0
F1E0
F1E0
F1E0
F1E0
F1E8
FFFC
FFFC
FF30
F000
F000
ENDCHAR
STARTCHAR 03BD
ENCODING 9581
SWIDTH 2700 0
DWIDTH 27 0
BBX 13 11 7 0
BITMAP
F040
F078
F0F0
78F0
79E0
79E0
7FC0
3F80
3F80
3F00
3E00
ENDCHAR
STARTCHAR 03BE
ENCODING 9582
SWIDTH 2700 0
DWIDTH 27 0
BBX 11 21 7 -3
BITMAP
3800
7800
7FE0
3FE0
3FE0
7800
7800
7FC0
3FC0
7FC0
F000
E000
F000
FF00
7FC0
3FC0
01C0
09C0
1FC0
3F80
0F00
ENDCHAR
STARTCHAR 03BF
ENCODING 9583
SWIDTH 2700 0
DWIDTH 27 0
BBX 11 10 7 0
BITMAP
1F00
7FC0
7BC0
F1E0
E0E0
E0E0
F1E0
7FC0
3F80
0F00
ENDCHAR
STARTCHAR 03C0
ENCODING 9584
SWIDTH 2700 0
DWIDTH 27 0
BBX 15 10 6 0
BITMAP
FFFC
FFFC
FFFC
3DE0
3DE0
3DE0
3DE0
79FC
79FE
79F8
ENDCHAR
STARTCHAR 03C1
ENCODING 9585
SWIDTH 2700 0
DWIDTH 27 0
BBX 11 13 7 -2
BITMAP
0400
3FC0
7FE0
FFE0
F0E0
F0E0
F0E0
F9E0
FFC0
FF00
F000
F000
F000
ENDCHAR
STARTCHAR 03C3
ENCODING 9586
SWIDTH 2700 0
DWIDTH 27 0
BBX 13 9 6 1
BITMAP
1FF8
7FF8
7FF8
F1E0
E1E0
F1E0
FFC0
7FC0
3F00
ENDCHAR
STARTCHAR 03C4
ENCODING 9587
SWIDTH 2700 0
DWIDTH 27 0
BBX 12 10 7 0
BITMAP
FFE0
FFE0
FFE0
1E00
1E00
1E00
1E40
1FF0
1FE0
0F80
ENDCHAR
STARTCHAR 03C5
ENCODING 9588
SWIDTH 2700 0
DWIDTH 27 0
BBX 12 10 7 0
BITMAP
70E0
78F0
78F0
79F0
79E0
7BE0
7FC0
7F80
7F00
FC00
ENDCHAR
STARTCHAR 03C6
ENCODING 9589
SWIDTH 2700 0
DWIDTH 27 0
BBX 14 12 5 -2
BITMAP
63F0
7FF8
F7FC
F7BC
F79C
F7BC
FFFC
7FF8
3FF0
0780
0780
0780
ENDCHAR
STARTCHAR 03C7
ENCODING 9590
SWIDTH 2700 0
DWIDTH 27 0
BBX 14 12 6 0
BITMAP
F830
FC78
FFF0
1FE0
0FC0
0F80
1F80
3F80
7F80
FBC0
F3FC
61FC
ENDCHAR
STARTCHAR 03C8
ENCODING 9591
SWIDTH 2700 0
DWIDTH 27 0
BBX 15 15 5 0
BITMAP
0780
0780
0780
4798
77BC
E79C
E79E
E79C
F7FC
7FFC
3FF8
0780
0780
0780
0780
ENDCHAR
STARTCHAR 03C9
ENCODING 9592
SWIDTH 2700 0
DWIDTH 27 0
BBX 18 11 3 0
BITMAP
180300
1C0F00
3CE780
78E3C0
70E3C0
F0E1C0
F1E1C0
F1E3C0
FFFFC0
7FFF80
3E3E00
ENDCHAR
STARTCHAR 2500
ENCODING 9761
SWIDTH 2700 0
DWIDTH 27 0
BBX 24 2 0 6
BITMAP
FFFFFF
FFFFFF
ENDCHAR
STARTCHAR 2502
ENCODING 9762
SWIDTH 2700 0
DWIDTH 27 0
BBX 2 24 11 -5
BITMAP
C0
C0
C0
C0
C0
C0
C0
C0
C0
C0
C0
C0
C0
C0
C0
C0
C0
C0
C0
C0
C0
C0
C0
C0
ENDCHAR
STARTCHAR 250C
ENCODING 9763
SWIDTH 2700 0
DWIDTH 27 0
BBX 13 13 11 -5
BITMAP
FFF8
FFF8
C000
C000
C000
C000
C000
C000
C000
C000
C000
C000
C000
ENDCHAR
STARTCHAR 2510
ENCODING 9764
SWIDTH 2700 0
DWIDTH 27 0
BBX 13 13 0 -5
BITMAP
FFF8
FFF8
0018
0018
0018
0018
0018
0018
0018
0018
0018
0018
0018
ENDCHAR
STARTCHAR 2518
ENCODING 9765
SWIDTH 2700 0
DWIDTH 27 0
BBX 13 13 0 6
BITMAP
0018
0018
0018
0018
0018
0018
0018
0018
0018
0018
0018
FFF8
FFF8
ENDCHAR
STARTCHAR 2514
ENCODING 9766
SWIDTH 2700 0
DWIDTH 27 0
BBX 13 13 11 6
BITMAP
C000
C000
C000
C000
C000
C000
C000
C000
C000
C000
C000
FFF8
FFF8
ENDCHAR
STARTCHAR 251C
ENCODING 9767
SWIDTH 2700 0
DWIDTH 27 0
BBX 13 24 11 -5
BITMAP
C000
C000
C000
C000
C000
C000
C000
C000
C000
C000
C000
FFF8
FFF8
FFF8
C000
C000
C000
C000
C000
C000
C000
C000
C000
C000
ENDCHAR
STARTCHAR 252C
ENCODING 9768
SWIDTH 2700 0
DWIDTH 27 0
BBX 24 13 0 -5
BITMAP
FFFFFF
FFFFFF
001800
001800
001800
001800
001800
001800
001800
001800
001800
001800
001800
ENDCHAR
STARTCHAR 2524
ENCODING 9769
SWIDTH 2700 0
DWIDTH 27 0
BBX 13 24 0 -5
BITMAP
0018
0018
0018
0018
0018
0018
0018
0018
0018
0018
0018
FFF8
FFF8
0018
0018
0018
0018
0018
0018
0018
0018
0018
0018
0018
ENDCHAR
STARTCHAR 2534
ENCODING 9770
SWIDTH 2700 0
DWIDTH 27 0
BBX 24 13 0 6
BITMAP
001800
001800
001800
001800
001800
001800
001800
001800
001800
001800
001800
FFFFFF
FFFFFF
ENDCHAR
STARTCHAR 253C
ENCODING 9771
SWIDTH 2700 0
DWIDTH 27 0
BBX 24 24 0 -5
BITMAP
001800
001800
001800
001800
001800
001800
001800
001800
001800
001800
001800
FFFFFF
FFFFFF
FFFFFF
001800
001800
001800
001800
001800
001800
001800
001800
001800
001800
ENDCHAR
STARTCHAR 2501
ENCODING 9772
SWIDTH 2700 0
DWIDTH 27 0
BBX 24 3 0 6
BITMAP
FFFFFF
FFFFFF
FFFFFF
ENDCHAR
STARTCHAR 2503
ENCODING 9773
SWIDTH 2700 0
DWIDTH 27 0
BBX 2 24 11 -5
BITMAP
C0
C0
C0
C0
C0
C0
C0
C0
C0
C0
C0
C0
C0
C0
C0
C0
C0
C0
C0
C0
C0
C0
C0
C0
ENDCHAR
STARTCHAR 250F
ENCODING 9774
SWIDTH 2700 0
DWIDTH 27 0
BBX 13 13 11 -5
BITMAP
FFF8
FFF8
C000
C000
C000
C000
C000
C000
C000
C000
C000
C000
C000
ENDCHAR
STARTCHAR 2513
ENCODING 9775
SWIDTH 2700 0
DWIDTH 27 0
BBX 13 13 0 -5
BITMAP
FFF8
FFF8
0018
0018
0018
0018
0018
0018
0018
0018
0018
0018
0018
ENDCHAR
STARTCHAR 251B
ENCODING 9776
SWIDTH 2700 0
DWIDTH 27 0
BBX 13 13 0 6
BITMAP
0018
0018
0018
0018
0018
0018
0018
0018
0018
0018
FFF8
FFF8
FFF8
ENDCHAR
STARTCHAR 2517
ENCODING 9777
SWIDTH 2700 0
DWIDTH 27 0
BBX 13 13 11 6
BITMAP
C000
C000
C000
C000
C000
C000
C000
C000
C000
C000
C000
FFF8
FFF8
ENDCHAR
STARTCHAR 2523
ENCODING 9778
SWIDTH 2700 0
DWIDTH 27 0
BBX 14 24 11 -5
BITMAP
C000
C000
C000
C000
C000
C000
C000
C000
C000
C000
C000
FFFC
FFFC
C000
C000
C000
C000
C000
C000
C000
C000
C000
C000
C000
ENDCHAR
STARTCHAR 2533
ENCODING 9779
SWIDTH 2700 0
DWIDTH 27 0
BBX 25 13 -2 -5
BITMAP
FFFFFF80
FFFFFF80
001E0000
001E0000
001E0000
001E0000
001E0000
001E0000
001E0000
001E0000
001E0000
001E0000
001E0000
ENDCHAR
STARTCHAR 252B
ENCODING 9780
SWIDTH 2700 0
DWIDTH 27 0
BBX 13 24 0 -5
BITMAP
0018
0018
0018
0018
0018
0018
0018
0018
0018
0018
FFF8
FFF8
FFF8
0018
0018
0018
0018
0018
0018
0018
0018
0018
0018
0018
ENDCHAR
STARTCHAR 253B
ENCODING 9781
SWIDTH 2700 0
DWIDTH 27 0
BBX 24 13 0 6
BITMAP
001800
001800
001800
001800
001800
001800
001800
001800
001800
001800
001800
FFFFFF
FFFFFF
ENDCHAR
STARTCHAR 254B
ENCODING 9782
SWIDTH 2700 0
DWIDTH 27 0
BBX 25 24 -2 -5
BITMAP
001E0000
001E0000
001E0000
001E0000
001E0000
001E0000
001E0000
001E0000
001E0000
001E0000
FFFFFF80
FFFFFF80
FFFFFF80
001E0000
001E0000
001E0000
001E0000
001E0000
001E0000
001E0000
001E0000
001E0000
001E0000
001E0000
ENDCHAR
STARTCHAR 2520
ENCODING 9783
SWIDTH 2700 0
DWIDTH 27 0
BBX 13 24 11 -5
BITMAP
C000
C000
C000
C000
C000
C000
C000
C000
C000
C000
C000
FFF8
FFF8
C000
C000
C000
C000
C000
C000
C000
C000
C000
C000
C000
ENDCHAR
STARTCHAR 252F
ENCODING 9784
SWIDTH 2700 0
DWIDTH 27 0
BBX 24 14 0 -5
BITMAP
FFFFFF
FFFFFF
FFFFFF
001800
001800
001800
001800
001800
001800
001800
001800
001800
001800
001800
ENDCHAR
STARTCHAR 2528
ENCODING 9785
SWIDTH 2700 0
DWIDTH 27 0
BBX 13 24 0 -5
BITMAP
0018
0018
0018
0018
0018
0018
0018
0018
0018
0018
0018
FFF8
FFF8
0018
0018
0018
0018
0018
0018
0018
0018
0018
0018
0018
ENDCHAR
STARTCHAR 2537
ENCODING 9786
SWIDTH 2700 0
DWIDTH 27 0
BBX 24 13 0 6
BITMAP
001800
001800
001800
001800
001800
001800
001800
001800
001800
001800
001800
FFFFFF
FFFFFF
ENDCHAR
STARTCHAR 253F
ENCODING 9787
SWIDTH 2700 0
DWIDTH 27 0
BBX 24 24 0 -5
BITMAP
001800
001800
001800
001800
001800
001800
001800
001800
001800
001800
FFFFFF
FFFFFF
FFFFFF
001800
001800
001800
001800
001800
001800
001800
001800
001800
001800
001800
ENDCHAR
STARTCHAR 251D
ENCODING 9788
SWIDTH 2700 0
DWIDTH 27 0
BBX 13 24 11 -5
BITMAP
C000
C000
C000
C000
C000
C000
C000
C000
C000
C000
FFF8
FFF8
FFF8
C000
C000
C000
C000
C000
C000
C000
C000
C000
C000
C000
ENDCHAR
STARTCHAR 2530
ENCODING 9789
SWIDTH 2700 0
DWIDTH 27 0
BBX 25 13 -2 -5
BITMAP
FFFFFF80
FFFFFF80
001E0000
001E0000
001E0000
001E0000
001E0000
001E0000
001E0000
001E0000
001E0000
001E0000
001E0000
ENDCHAR
STARTCHAR 2525
ENCODING 9790
SWIDTH 2700 0
DWIDTH 27 0
BBX 13 24 0 -5
BITMAP
0018
0018
0018
0018
0018
0018
0018
0018
0018
0018
FFF8
FFF8
FFF8
0018
0018
0018
0018
0018
0018
0018
0018
0018
0018
0018
ENDCHAR
STARTCHAR 2538
ENCODING 9791
SWIDTH 2700 0
DWIDTH 27 0
BBX 24 13 0 6
BITMAP
001800
001800
001800
001800
001800
001800
001800
001800
001800
001800
001800
FFFFFF
FFFFFF
ENDCHAR
STARTCHAR 2542
ENCODING 9792
SWIDTH 2700 0
DWIDTH 27 0
BBX 25 24 -2 -5
BITMAP
001E0000
001E0000
001E0000
001E0000
001E0000
001E0000
001E0000
001E0000
001E0000
001E0000
001E0000
FFFFFF80
FFFFFF80
FFFFFF80
001E0000
001E0000
001E0000
001E0000
001E0000
001E0000
001E0000
001E0000
001E0000
001E0000
ENDCHAR
STARTCHAR 2512
ENCODING 9793
SWIDTH 2700 0
DWIDTH 27 0
BBX 14 13 0 -5
BITMAP
FFFC
FFFC
003C
003C
003C
003C
003C
003C
003C
003C
003C
003C
003C
ENDCHAR
STARTCHAR 2511
ENCODING 9794
SWIDTH 2700 0
DWIDTH 27 0
BBX 13 13 0 -5
BITMAP
FFF8
FFF8
0018
0018
0018
0018
0018
0018
0018
0018
0018
0018
0018
ENDCHAR
STARTCHAR 251A
ENCODING 9795
SWIDTH 2700 0
DWIDTH 27 0
BBX 13 13 0 6
BITMAP
0018
0018
0018
0018
0018
0018
0018
0018
0018
0018
0018
FFF8
FFF8
ENDCHAR
STARTCHAR 2519
ENCODING 9796
SWIDTH 2700 0
DWIDTH 27 0
BBX 13 24 0 -5
BITMAP
0018
0018
0018
0018
0018
0018
0018
0018
0018
0018
0018
FFF8
FFF8
FFF8
0018
0018
0018
0018
0018
0018
0018
0018
0018
0018
ENDCHAR
STARTCHAR 2516
ENCODING 9797
SWIDTH 2700 0
DWIDTH 27 0
BBX 13 13 11 6
BITMAP
C000
C000
C000
C000
C000
C000
C000
C000
C000
C000
C000
FFF8
FFF8
ENDCHAR
STARTCHAR 2515
ENCODING 9798
SWIDTH 2700 0
DWIDTH 27 0
BBX 13 13 11 6
BITMAP
C000
C000
C000
C000
C000
C000
C000
C000
C000
C000
C000
FFF8
FFF8
ENDCHAR
STARTCHAR 250E
ENCODING 9799
SWIDTH 2700 0
DWIDTH 27 0
BBX 13 13 11 -5
BITMAP
FFF8
FFF8
C000
C000
C000
C000
C000
C000
C000
C000
C000
C000
C000
ENDCHAR
STARTCHAR 250D
ENCODING 9800
SWIDTH 2700 0
DWIDTH 27 0
BBX 13 14 11 -5
BITMAP
FFF8
FFF8
FFF8
C000
C000
C000
C000
C000
C000
C000
C000
C000
C000
C000
ENDCHAR
STARTCHAR 251E
ENCODING 9801
SWIDTH 2700 0
DWIDTH 27 0
BBX 13 24 11 -5
BITMAP
C000
C000
C000
C000
C000
C000
C000
C000
C000
C000
C000
FFF8
FFF8
C000
C000
C000
C000
C000
C000
C000
C000
C000
C000
C000
ENDCHAR
STARTCHAR 251F
ENCODING 9802
SWIDTH 2700 0
DWIDTH 27 0
BBX 13 24 11 -5
BITMAP
C000
C000
C000
C000
C000
C000
C000
C000
C000
C000
C000
FFF8
FFF8
FFF8
C000
C000
C000
C000
C000
C000
C000
C000
C000
C000
ENDCHAR
STARTCHAR 2521
ENCODING 9803
SWIDTH 2700 0
DWIDTH 27 0
BBX 13 24 11 -5
BITMAP
C000
C000
C000
C000
C000
C000
C000
C000
C000
C000
C000
FFF8
FFF8
C000
C000
C000
C000
C000
C000
C000
C000
C000
C000
C000
ENDCHAR
STARTCHAR 2522
ENCODING 9804
SWIDTH 2700 0
DWIDTH 27 0
BBX 13 24 11 -5
BITMAP
C000
C000
C000
C000
C000
C000
C000
C000
C000
C000
FFF8
FFF8
FFF8
C000
C000
C000
C000
C000
C000
C000
C000
C000
C000
C000
ENDCHAR
STARTCHAR 2526
ENCODING 9805
SWIDTH 2700 0
DWIDTH 27 0
BBX 13 24 0 -5
BITMAP
0018
0018
0018
0018
0018
0018
0018
0018
0018
0018
0018
FFF8
FFF8
0018
0018
0018
0018
0018
0018
0018
0018
0018
0018
0018
ENDCHAR
STARTCHAR 2527
ENCODING 9806
SWIDTH 2700 0
DWIDTH 27 0
BBX 13 24 0 -5
BITMAP
0018
0018
0018
0018
0018
0018
0018
0018
0018
0018
0018
FFF8
FFF8
FFF8
0018
0018
0018
0018
0018
0018
0018
0018
0018
0018
ENDCHAR
STARTCHAR 2529
ENCODING 9807
SWIDTH 2700 0
DWIDTH 27 0
BBX 13 24 0 -5
BITMAP
0018
0018
0018
0018
0018
0018
0018
0018
0018
0018
0018
FFF8
FFF8
0018
0018
0018
0018
0018
0018
0018
0018
0018
0018
0018
ENDCHAR
STARTCHAR 252A
ENCODING 9808
SWIDTH 2700 0
DWIDTH 27 0
BBX 13 24 0 -5
BITMAP
0018
0018
0018
0018
0018
0018
0018
0018
0018
0018
0018
FFF8
FFF8
FFF8
0018
0018
0018
0018
0018
0018
0018
0018
0018
0018
ENDCHAR
STARTCHAR 252D
ENCODING 9809
SWIDTH 2700 0
DWIDTH 27 0
BBX 24 13 0 -5
BITMAP
FFFFFF
FFFFFF
001800
001800
001800
001800
001800
001800
001800
001800
001800
001800
001800
ENDCHAR
STARTCHAR 252E
ENCODING 9810
SWIDTH 2700 0
DWIDTH 27 0
BBX 24 14 0 -5
BITMAP
001FFF
FFFFFF
FFFFFF
001800
001800
001800
001800
001800
001800
001800
001800
001800
001800
001800
ENDCHAR
STARTCHAR 2531
ENCODING 9811
SWIDTH 2700 0
DWIDTH 27 0
BBX 24 14 0 -5
BITMAP
FFF800
FFFFFF
FFFFFF
001800
001800
001800
001800
001800
001800
001800
001800
001800
001800
001800
ENDCHAR
STARTCHAR 2532
ENCODING 9812
SWIDTH 2700 0
DWIDTH 27 0
BBX 24 13 0 -5
BITMAP
FFFFFF
FFFFFF
001800
001800
001800
001800
001800
001800
001800
001800
001800
001800
001800
ENDCHAR
STARTCHAR 2535
ENCODING 9813
SWIDTH 2700 0
DWIDTH 27 0
BBX 24 13 0 6
BITMAP
001800
001800
001800
001800
001800
001800
001800
001800
001800
001800
001800
FFFFFF
FFFFFF
ENDCHAR
STARTCHAR 2536
ENCODING 9814
SWIDTH 2700 0
DWIDTH 27 0
BBX 24 13 0 6
BITMAP
001800
001800
001800
001800
001800
001800
001800
001800
001800
001800
001800
FFFFFF
FFFFFF
ENDCHAR
STARTCHAR 2539
ENCODING 9815
SWIDTH 2700 0
DWIDTH 27 0
BBX 24 13 0 6
BITMAP
001800
001800
001800
001800
001800
001800
001800
001800
001800
001800
001800
FFFFFF
FFFFFF
ENDCHAR
STARTCHAR 253A
ENCODING 9816
SWIDTH 2700 0
DWIDTH 27 0
BBX 24 14 0 5
BITMAP
001800
001800
001800
001800
001800
001800
001800
001800
001800
001800
001800
FFFFFF
FFFFFF
001FFF
ENDCHAR
STARTCHAR 253D
ENCODING 9817
SWIDTH 2700 0
DWIDTH 27 0
BBX 24 24 0 -5
BITMAP
001800
001800
001800
001800
001800
001800
001800
001800
001800
001800
FFF800
FFFFFF
FFFFFF
001FFF
001800
001800
001800
001800
001800
001800
001800
001800
001800
001800
ENDCHAR
STARTCHAR 253E
ENCODING 9818
SWIDTH 2700 0
DWIDTH 27 0
BBX 24 24 0 -5
BITMAP
001800
001800
001800
001800
001800
001800
001800
001800
001800
001800
001FFF
FFFFFF
FFFFFF
FFF800
001800
001800
001800
001800
001800
001800
001800
001800
001800
001800
ENDCHAR
STARTCHAR 2540
ENCODING 9819
SWIDTH 2700 0
DWIDTH 27 0
BBX 25 24 -2 -5
BITMAP
001E0000
001E0000
001E0000
001E0000
001E0000
001E0000
001E0000
001E0000
001E0000
001E0000
001E0000
FFFFFF80
FFFFFF80
FFFFFF80
00060000
00060000
00060000
00060000
00060000
00060000
00060000
00060000
00060000
00060000
ENDCHAR
STARTCHAR 2541
ENCODING 9820
SWIDTH 2700 0
DWIDTH 27 0
BBX 25 24 -2 -5
BITMAP
00060000
00060000
00060000
00060000
00060000
00060000
00060000
00060000
00060000
00060000
00060000
FFFFFF80
FFFFFF80
FFFFFF80
001E0000
001E0000
001E0000
001E0000
001E0000
001E0000
001E0000
001E0000
001E0000
001E0000
ENDCHAR
STARTCHAR 2543
ENCODING 9821
SWIDTH 2700 0
DWIDTH 27 0
BBX 25 24 -2 -5
BITMAP
001E0000
001E0000
001E0000
001E0000
001E0000
001E0000
001E0000
001E0000
001E0000
001E0000
001E0000
FFFFFF80
FFFFFF80
FFFFFF80
00060000
00060000
00060000
00060000
00060000
00060000
00060000
00060000
00060000
00060000
ENDCHAR
STARTCHAR 2544
ENCODING 9822
SWIDTH 2700 0
DWIDTH 27 0
BBX 25 24 -2 -5
BITMAP
001E0000
001E0000
001E0000
001E0000
001E0000
001E0000
001E0000
001E0000
001E0000
001E0000
001FFF80
FFFFFF80
FFFFFF80
FFFE0000
00060000
00060000
00060000
00060000
00060000
00060000
00060000
00060000
00060000
00060000
ENDCHAR
STARTCHAR 2545
ENCODING 9823
SWIDTH 2700 0
DWIDTH 27 0
BBX 25 24 -2 -5
BITMAP
00060000
00060000
00060000
00060000
00060000
00060000
00060000
00060000
00060000
00060000
00060000
FFFFFF80
FFFFFF80
FFFFFF80
001E0000
001E0000
001E0000
001E0000
001E0000
001E0000
001E0000
001E0000
001E0000
001E0000
ENDCHAR
STARTCHAR 2546
ENCODING 9824
SWIDTH 2700 0
DWIDTH 27 0
BBX 25 24 -2 -5
BITMAP
00060000
00060000
00060000
00060000
00060000
00060000
00060000
00060000
00060000
00060000
0007FF80
FFFFFF80
FFFFFF80
FFFE0000
001E0000
001E0000
001E0000
001E0000
001E0000
001E0000
001E0000
001E0000
001E0000
001E0000
ENDCHAR
STARTCHAR 2547
ENCODING 9825
SWIDTH 2700 0
DWIDTH 27 0
BBX 25 24 -2 -5
BITMAP
001E0000
001E0000
001E0000
001E0000
001E0000
001E0000
001E0000
001E0000
001E0000
001E0000
FFFFFF80
FFFFFF80
FFFFFF80
00060000
00060000
00060000
00060000
00060000
00060000
00060000
00060000
00060000
00060000
00060000
ENDCHAR
STARTCHAR 2548
ENCODING 9826
SWIDTH 2700 0
DWIDTH 27 0
BBX 25 24 -2 -5
BITMAP
00060000
00060000
00060000
00060000
00060000
00060000
00060000
00060000
00060000
00060000
FFFFFF80
FFFFFF80
FFFFFF80
001E0000
001E0000
001E0000
001E0000
001E0000
001E0000
001E0000
001E0000
001E0000
001E0000
001E0000
ENDCHAR
STARTCHAR 2549
ENCODING 9827
SWIDTH 2700 0
DWIDTH 27 0
BBX 25 24 -2 -5
BITMAP
001E0000
001E0000
001E0000
001E0000
001E0000
001E0000
001E0000
001E0000
001E0000
001E0000
FFFE0000
FFFFFF80
FFFFFF80
001FFF80
001E0000
001E0000
001E0000
001E0000
001E0000
001E0000
001E0000
001E0000
001E0000
001E0000
ENDCHAR
STARTCHAR 254A
ENCODING 9828
SWIDTH 2700 0
DWIDTH 27 0
BBX 25 24 -2 -5
BITMAP
001E0000
001E0000
001E0000
001E0000
001E0000
001E0000
001E0000
001E0000
001E0000
001E0000
001FFF80
FFFFFF80
FFFFFF80
FFFE0000
001E0000
001E0000
001E0000
001E0000
001E0000
001E0000
001E0000
001E0000
001E0000
001E0000
ENDCHAR
STARTCHAR 3395
ENCODING 10017
SWIDTH 2700 0
DWIDTH 27 0
BBX 21 19 1 -3
BITMAP
000070
0000F8
0001F8
0001E8
0001E8
0E73C8
0E63D0
0CE3D0
1CE3F0
18C3E0
39C3C0
3987A0
33AF30
7FFFF0
7FEBE0
60C1C0
E00000
C00000
400000
ENDCHAR
STARTCHAR 3396
ENCODING 10018
SWIDTH 2700 0
DWIDTH 27 0
BBX 22 16 1 0
BITMAP
000038
00007C
00007C
0000EC
C080FC
FFE0DC
FFF1D8
CE71F8
CE71F0
CE71F0
CE71E0
CE73C0
CE77DC
CE77F8
CE77F8
CE70F0
ENDCHAR
STARTCHAR 3397
ENCODING 10019
SWIDTH 2700 0
DWIDTH 27 0
BBX 20 16 1 0
BITMAP
01E0E0
01E1E0
01E1F0
01E3D0
09E3D0
3FE3E0
7FE7A0
F3E7A0
E1E7C0
C1E7C0
C1E780
C1E780
E3EF60
7FFF70
7FFFE0
19F3C0
ENDCHAR
STARTCHAR 2113
ENCODING 10020
SWIDTH 2700 0
DWIDTH 27 0
BBX 9 17 8 0
BITMAP
0700
0F00
1F80
1F80
1B80
1B00
3B00
3B00
3F00
3E00
3E00
3C00
7A00
FB80
FF00
DE00
1C00
ENDCHAR
STARTCHAR 3398
ENCODING 10021
SWIDTH 2700 0
DWIDTH 27 0
BBX 18 16 3 0
BITMAP
E00380
E007C0
E007C0
E00FC0
E38FC0
E70DC0
EE0D80
FC1D80
FC1F80
FC1F00
FC1E00
EE1E00
E63DC0
E77FC0
E36F80
E38F00
ENDCHAR
STARTCHAR 33C4
ENCODING 10022
SWIDTH 2700 0
DWIDTH 27 0
BBX 22 12 2 -1
BITMAP
1F81F0
3FC7F8
79CF38
F0FE1C
F01E00
F01E00
F01E00
F0FE1C
79CF38
7FCFF8
1F83F0
040000
ENDCHAR
STARTCHAR 33A3
ENCODING 10023
SWIDTH 2700 0
DWIDTH 27 0
BBX 23 17 1 0
BITMAP
000008
00003E
000036
00001E
000006
00003E
F6FB9C
FFFFE0
FBFDE0
DBEDE0
DBEDE0
DBEDE0
DBEDE0
DBEDE0
DBEDE0
DBEDE0
DBEDE0
ENDCHAR
STARTCHAR 33A4
ENCODING 10024
SWIDTH 2700 0
DWIDTH 27 0
BBX 23 17 1 0
BITMAP
00001C
00003E
000006
00001C
000006
3E703E
7F7FFC
E77FE0
E77FE0
C07FE0
C07FE0
C07FE0
C07FE0
E3FFE0
FF7FE0
7F7FE0
3C7FE0
ENDCHAR
STARTCHAR 33A5
ENCODING 10025
SWIDTH 2700 0
DWIDTH 27 0
BBX 19 17 3 0
BITMAP
0001C0
0003E0
000060
0001E0
000060
0003E0
FFFFC0
FFFE00
F39E00
F39E00
F39E00
F39E00
F39E00
F39E00
F39E00
F39E00
F39E00
ENDCHAR
STARTCHAR 33A6
ENCODING 10026
SWIDTH 2700 0
DWIDTH 27 0
BBX 24 17 -1 0
BITMAP
00000F
F0001B
F0000F
F0000F
F0001B
F3C00F
F7FFFC
FF7FFC
FE7FFC
FE7FBC
FE7FBC
FE7FBC
F77FBC
F77FBC
F3FFBC
F3FFBC
F1FFBC
ENDCHAR
STARTCHAR 3399
ENCODING 10027
SWIDTH 2700 0
DWIDTH 27 0
BBX 23 16 0 0
BITMAP
07C000
0FC000
1E0000
1E0000
FFF800
FFFFFC
FFFFFE
1E79EE
1E79EE
1E79EE
1E79EE
1E79EE
1E79EE
1E79EE
1E79EE
1E79EE
ENDCHAR
STARTCHAR 339A
ENCODING 10028
SWIDTH 2700 0
DWIDTH 27 0
BBX 20 12 2 0
BITMAP
E0E000
FFFFE0
FFFFF0
F3FFF0
F3FFF0
F3FFF0
F3FFF0
F3FFF0
F3FFF0
F3FFF0
F3FFF0
F3FFF0
ENDCHAR
STARTCHAR 339B
ENCODING 10029
SWIDTH 2700 0
DWIDTH 27 0
BBX 24 15 0 -3
BITMAP
022000
0737FE
0677FE
0E7777
0E6777
0CE777
1CC777
19C777
39C777
3BBF77
3FF777
7EE777
700000
E00000
200000
ENDCHAR
STARTCHAR 339C
ENCODING 10030
SWIDTH 2700 0
DWIDTH 27 0
BBX 23 12 0 0
BITMAP
FCFC00
FFFFFC
FFFFFE
F7FFFE
F7FFFE
F7FFFE
F7FFFE
F7FFFE
F7FFFE
F7FFFE
F7FFFE
F7FFFE
ENDCHAR
STARTCHAR 339D
ENCODING 10031
SWIDTH 2700 0
DWIDTH 27 0
BBX 23 12 1 0
BITMAP
007000
3F7FFC
7FFFFE
71FF9E
E07F9E
E07F9E
E07F9E
E07F9E
71FF9E
7BFF9E
3FFF9E
1F7F9E
ENDCHAR
STARTCHAR 339E
ENCODING 10032
SWIDTH 2700 0
DWIDTH 27 0
BBX 22 16 2 0
BITMAP
F00000
F00000
F00000
F00000
F00000
F3FFF8
F7FFFC
FFFF3C
FEFF3C
FEFF3C
FEFF3C
F7FF3C
F3FF3C
F3FF3C
F1FF3C
F1FF3C
ENDCHAR
STARTCHAR 339F
ENCODING 10033
SWIDTH 2700 0
DWIDTH 27 0
BBX 24 17 0 0
BITMAP
00000E
00001F
000033
000006
00001F
00001F
FFFFE0
FFFFF0
FDFEF0
FDEEF0
FDEEF0
FDEEF0
FDEEF0
FDEEF0
FDEEF0
FDEEF0
FDEEF0
ENDCHAR
STARTCHAR 33A0
ENCODING 10034
SWIDTH 2700 0
DWIDTH 27 0
BBX 24 18 0 -1
BITMAP
00000C
00001E
00001B
000006
00001F
00341F
1F3FE0
3FBFE0
7FB760
703760
E03760
E03760
E03760
E03760
E1B760
7FB760
7F3760
3E0000
ENDCHAR
STARTCHAR 33A1
ENCODING 10035
SWIDTH 2700 0
DWIDTH 27 0
BBX 20 16 2 0
BITMAP
0000E0
0001F0
000330
000060
E001C0
FFF9F0
FFFC00
F7BC00
F7BC00
F7BC00
F7BC00
F7BC00
F7BC00
F7BC00
F7BC00
F7BC00
ENDCHAR
STARTCHAR 33A2
ENCODING 10036
SWIDTH 2700 0
DWIDTH 27 0
BBX 24 16 0 0
BITMAP
E0001E
E0001F
E00036
E0000E
E0001F
E73FFF
EE3FE0
FC3FF0
F83F70
FC3F70
FC3F70
EE3F70
E63F70
E73F70
E3BF70
E3BF70
ENDCHAR
STARTCHAR 33CA
ENCODING 10037
SWIDTH 2700 0
DWIDTH 27 0
BBX 18 16 3 0
BITMAP
F00000
F00000
F00000
F00000
F00000
FF0F00
FFFF80
FFFF80
F3D380
F3CF80
F3FFC0
F3F9C0
F3F180
F3F7C0
F3FFC0
F3DFC0
ENDCHAR
STARTCHAR 338D
ENCODING 10038
SWIDTH 2700 0
DWIDTH 27 0
BBX 24 15 0 -3
BITMAP
000007
0639FF
0631FE
0E739C
0E639C
0C63F8
1CE1F8
18C380
39D3F8
3FFBFE
3FF3FF
726387
6003FF
E001FE
E000FC
ENDCHAR
STARTCHAR 338E
ENCODING 10039
SWIDTH 2700 0
DWIDTH 27 0
BBX 23 14 0 -2
BITMAP
00008E
FFE3FE
FFF7F8
FFF738
FFF738
FFF7F0
FFF7E0
FFF700
FFF7F8
FFF7FC
FFF70E
FFF70E
0007FC
0001F8
ENDCHAR
STARTCHAR 338F
ENCODING 10040
SWIDTH 2700 0
DWIDTH 27 0
BBX 21 18 1 -2
BITMAP
F00000
F00000
F00000
F00000
F00000
F1C3B8
F387F8
F70EE0
FE0C60
FE0EE0
FF07C0
F70F80
F38FC0
F1CFF8
F1CF78
F0EC18
000FF8
0007F0
ENDCHAR
STARTCHAR 33CF
ENCODING 10041
SWIDTH 2700 0
DWIDTH 27 0
BBX 22 16 2 0
BITMAP
F00000
F00000
F003C0
F003C0
F003C0
F3CFF8
F78FF8
FF03C0
FE03C0
FF03C0
F703C0
F383C0
F383DC
F1C3DC
F1C3F8
F0E1F8
ENDCHAR
STARTCHAR 3388
ENCODING 10042
SWIDTH 2700 0
DWIDTH 27 0
BBX 25 16 0 0
BITMAP
00000780
00000780
00000780
00000780
001E0780
1F3F0780
3FFF8780
73F38780
619F8780
E03F8780
E07F8780
60788780
61F88780
7FFFE780
3F7FF780
1E3DF780
ENDCHAR
STARTCHAR 3389
ENCODING 10043
SWIDTH 2700 0
DWIDTH 27 0
BBX 24 16 0 0
BITMAP
F0000F
F0000F
F0000F
F0000F
F0000F
F7E0CF
F7F3EF
FFFBFF
FFBB7F
FF81FF
FF83FF
FF86FF
F784FF
F7FCFF
F3F7FF
F3E3FF
ENDCHAR
STARTCHAR 33C8
ENCODING 10044
SWIDTH 2700 0
DWIDTH 27 0
BBX 23 16 -1 0
BITMAP
007FF8
007FFC
007F0C
007F04
007F04
3FFF0C
7FFFF8
78FFF8
F07FFC
F07F04
F07F06
F07F06
F0FF06
7FFF0C
3FFFFC
1F7FF8
ENDCHAR
STARTCHAR 33A7
ENCODING 10045
SWIDTH 2700 0
DWIDTH 27 0
BBX 24 19 0 -3
BITMAP
000180
000380
000300
000300
000300
000378
FFC6FE
FFE6EE
EEE6E7
EEE6F0
EEEE7C
EEEC3E
EEECC7
EEECE7
EEFCFE
EEF87C
001800
001800
003800
ENDCHAR
STARTCHAR 33A8
ENCODING 10046
SWIDTH 2700 0
DWIDTH 27 0
BBX 24 21 0 -4
BITMAP
00001E
00021F
000337
00030E
00061F
00061F
000670
FF87F8
FFCDD8
FFCD80
EDCDE0
EDCCF0
EDC838
EDD818
EDD9D8
EDD9F8
EDD8F0
003000
003000
003000
003000
ENDCHAR
STARTCHAR 33B0
ENCODING 10047
SWIDTH 2700 0
DWIDTH 27 0
BBX 19 15 3 -3
BITMAP
E00600
FE1FC0
FF1FC0
FFB8E0
F0BC00
F09F80
F08FC0
F081C0
F0B8E0
F93DC0
FF1FC0
FE0F80
F00000
F00000
F00000
ENDCHAR
STARTCHAR 33B1
ENCODING 10048
SWIDTH 2700 0
DWIDTH 27 0
BBX 18 12 3 0
BITMAP
000F00
FF9FC0
FFF9C0
F3F8C0
F3FC00
F3DF80
F3CFC0
F3C1C0
F3F0C0
F3FDC0
F3DFC0
F3CF00
ENDCHAR
STARTCHAR 33B2
ENCODING 10049
SWIDTH 2700 0
DWIDTH 27 0
BBX 22 14 1 -3
BITMAP
073800
0630F0
0E71F8
0E739C
0CE39C
1CE3C0
18C1F8
39D07C
3FFB1C
3FF3FC
76E1F8
600000
E00000
600000
ENDCHAR
STARTCHAR 33B3
ENCODING 10050
SWIDTH 2700 0
DWIDTH 27 0
BBX 20 11 2 0
BITMAP
FF87E0
FFCFF0
FFCE70
FDCE30
FDCFC0
FDC7E0
FDC0F0
FDCC70
FDCE70
FDCFF0
FDC7E0
ENDCHAR
STARTCHAR 33B4
ENCODING 10051
SWIDTH 2700 0
DWIDTH 27 0
BBX 21 20 2 -3
BITMAP
006038
007030
007030
003070
003870
F03860
FF98E0
FFDCE0
F9DCE0
F0DCC0
F0CFC0
F0CFC0
F0CF80
F0C780
FFC780
FF8780
FF0300
F00000
F00000
F00000
ENDCHAR
STARTCHAR 33B5
ENCODING 10052
SWIDTH 2700 0
DWIDTH 27 0
BBX 21 16 1 0
BITMAP
007018
007038
003038
003830
F23830
FF9870
FFDC60
F3DC60
F3CCE0
F3CEC0
F3CEC0
F3C7C0
F3C780
F3C780
F3C380
F3C380
ENDCHAR
STARTCHAR 33B6
ENCODING 10053
SWIDTH 2700 0
DWIDTH 27 0
BBX 22 19 1 -3
BITMAP
000E0C
00060C
00060C
00061C
04071C
063B18
0E3318
0E7398
1C73B8
1CE1B0
1CE1B0
38E1F0
39D0F0
7FF8F0
7FF8E0
7FF0E0
E00000
E00000
400000
ENDCHAR
STARTCHAR 33B7
ENCODING 10054
SWIDTH 2700 0
DWIDTH 27 0
BBX 22 16 1 0
BITMAP
00381C
001818
001C18
001C38
000C30
FFFC30
FFFE30
FFFE70
F7FE60
F7FF60
F7FB60
F7FBE0
F7FBC0
F7FBC0
F7F9C0
F7F9C0
ENDCHAR
STARTCHAR 33B8
ENCODING 10055
SWIDTH 2700 0
DWIDTH 27 0
BBX 21 16 1 0
BITMAP
F03018
F03818
F03838
F01838
F01C30
F1DC30
F38C70
F70E60
FE0E60
FE06E0
FE07E0
F707C0
F383C0
F383C0
F1C3C0
F1C180
ENDCHAR
STARTCHAR 33B9
ENCODING 10056
SWIDTH 2700 0
DWIDTH 27 0
BBX 23 16 0 0
BITMAP
E0F60E
F0F70E
F0F70C
F0F30C
F0F31C
F9F39C
F9F398
F9F198
F9F198
F9F1F8
FFF1F8
FEF0F0
F6F0F0
F6F0F0
F6F070
F6F060
ENDCHAR
STARTCHAR 3380
ENCODING 10057
SWIDTH 2700 0
DWIDTH 27 0
BBX 19 19 3 -3
BITMAP
000600
000F00
000F00
000F00
000F00
FE1F80
FF1F80
FF9980
F09FC0
F0BFC0
F0BFC0
F0B0C0
F0B0E0
FDF0E0
FF70E0
FE70E0
F00000
F00000
F00000
ENDCHAR
STARTCHAR 3381
ENCODING 10058
SWIDTH 2700 0
DWIDTH 27 0
BBX 22 16 1 0
BITMAP
0001C0
0001C0
0003E0
0003E0
060360
FF8770
FFC770
F3C770
F3C670
F3CFF8
F3CFF8
F3CC38
F3DC18
F3DC1C
F3D81C
F3F81C
ENDCHAR
STARTCHAR 3382
ENCODING 10059
SWIDTH 2700 0
DWIDTH 27 0
BBX 24 19 0 -3
BITMAP
000070
000070
0000F8
0000F8
0000F8
0738D8
0639DC
0631DC
0E71DC
0C61FC
1CE3FE
1CE38E
18D30E
3FFF0E
3FFF07
7FE707
700000
E00000
600000
ENDCHAR
STARTCHAR 3383
ENCODING 10060
SWIDTH 2700 0
DWIDTH 27 0
BBX 22 16 1 0
BITMAP
0000C0
0001E0
0001E0
0001E0
F003E0
FFE3F0
FFF370
F77730
F77738
F77738
F777F8
F77FF8
F77E1C
F77E1C
F77C1C
F77C0C
ENDCHAR
STARTCHAR 3384
ENCODING 10061
SWIDTH 2700 0
DWIDTH 27 0
BBX 23 16 0 0
BITMAP
E000E0
E000F0
E001F0
E001F0
E001F0
E701B8
EE03B8
FC03B8
F8039C
FC07FC
FC07FC
FE07FC
FE060E
F70E0E
F38E0E
F38E0E
ENDCHAR
STARTCHAR 33BA
ENCODING 10062
SWIDTH 2700 0
DWIDTH 27 0
BBX 22 19 0 -3
BITMAP
00318C
00318C
0031CC
003BCC
001BDC
FE1BD8
FF1BD8
FD9BD8
F09FD8
F08FF8
F08F78
F08F70
F08F70
FF8770
FF0770
FE0670
E00000
E00000
E00000
ENDCHAR
STARTCHAR 33BB
ENCODING 10063
SWIDTH 2700 0
DWIDTH 27 0
BBX 22 16 1 0
BITMAP
01C30C
00C38C
00C78C
00E79C
00E79C
FFE798
FFE7D8
F3F7D8
F3FEF8
F3FEF8
F3FCF0
F3FCF0
F3FCF0
F3DC70
F3DC70
F3DC70
ENDCHAR
STARTCHAR 33BC
ENCODING 10064
SWIDTH 2700 0
DWIDTH 27 0
BBX 23 19 1 -3
BITMAP
0039CE
0039CC
0019CC
0019CC
0019CC
0C7DDC
0CEDD8
1CCDD8
1DCFD8
19CF78
398F70
338770
73C770
736770
7FE770
FFC760
C00000
C00000
C00000
ENDCHAR
STARTCHAR 33BD
ENCODING 10065
SWIDTH 2700 0
DWIDTH 27 0
BBX 22 16 1 0
BITMAP
00739C
00739C
0033DC
0033D8
E033D8
FFF3D8
FFFBD8
FDFBD8
FDFFD8
FDFED8
FDFE78
FDFE70
FDFE70
FDEE70
FDEE70
FDEE70
ENDCHAR
STARTCHAR 33BE
ENCODING 10066
SWIDTH 2700 0
DWIDTH 27 0
BBX 23 16 0 0
BITMAP
F031CE
F039CE
F039CC
F019CC
F019CC
F399EC
F719EC
FE1FFC
FE0F7C
FE0F78
FF0F78
F70F78
F38F38
F38738
F1C738
F1C638
ENDCHAR
STARTCHAR 33BF
ENCODING 10067
SWIDTH 2700 0
DWIDTH 27 0
BBX 25 16 -1 0
BITMAP
F06C7380
F0EC7300
F0EE7300
F8EE7300
F8EE7300
F9E67B00
F9E6FF00
FDE6FF00
FDE7DE00
FDE3DE00
FF63DE00
FF63DE00
F763DE00
F763CE00
F7618E00
F6618E00
ENDCHAR
STARTCHAR 3390
ENCODING 10068
SWIDTH 2700 0
DWIDTH 27 0
BBX 23 16 0 0
BITMAP
F1E000
F1E000
F1E000
F1E000
F1E000
F1EFFC
FFEFFC
FFE038
F1E070
F1E0F0
F1E0E0
F1E1C0
F1E3C0
F1E380
F1E7FE
F1EFFE
ENDCHAR
STARTCHAR 3391
ENCODING 10069
SWIDTH 2700 0
DWIDTH 27 0
BBX 24 16 0 0
BITMAP
E0E600
E0E600
E0E600
E0E600
E0E600
E6E67F
ECFE7E
FCFE0E
F8E61C
F8E61C
F8E638
FCE638
FCE670
ECE670
EEE6FF
E6E6FF
ENDCHAR
STARTCHAR 3392
ENCODING 10070
SWIDTH 2700 0
DWIDTH 27 0
BBX 24 16 0 0
BITMAP
E1F3C0
E1F3C0
E1F3C0
E3F3C0
F3F3C0
F3F3FF
F3FFFE
F3FFCE
F7F3CE
D7F3CC
DFF3DC
DFF3DC
DDF3D8
DDF3F8
DDF3FF
CDF3FF
ENDCHAR
STARTCHAR 3393
ENCODING 10071
SWIDTH 2700 0
DWIDTH 27 0
BBX 24 16 0 0
BITMAP
1E7F00
7FFF00
FBFF00
F1FF00
F1FF00
F07F7F
F07F7E
F07F0E
FFFF0C
FFFF1C
F7FF18
F7FF18
F7FF38
FFFF30
7FFF7F
3FFF7F
ENDCHAR
STARTCHAR 3394
ENCODING 10072
SWIDTH 2700 0
DWIDTH 27 0
BBX 24 16 0 0
BITMAP
FEE780
FEE780
FEE780
18E780
18E780
18E7FF
18FFFE
18FFFE
18FF8C
18E79C
18E798
18E7B8
18E7B0
18E7F0
18E7FF
18E7FF
ENDCHAR
STARTCHAR 2126
ENCODING 10073
SWIDTH 2700 0
DWIDTH 27 0
BBX 18 17 3 0
BITMAP
03F000
07F800
0FFC00
1C1E00
380700
380300
700380
700380
380300
380700
1E1E00
0FBC00
E7B9C0
E3B1C0
E3B1C0
FFBFC0
FFBFC0
ENDCHAR
STARTCHAR 33C0
ENCODING 10074
SWIDTH 2700 0
DWIDTH 27 0
BBX 24 16 0 0
BITMAP
E001F0
E007F8
E00F3C
E01C0E
E01C07
E3D807
E71807
EE1C07
FC1C0E
FE0F3E
FE07BC
E703B0
E31BB7
E39BB7
E1DFBF
E1DFBF
ENDCHAR
STARTCHAR 33C1
ENCODING 10075
SWIDTH 2700 0
DWIDTH 27 0
BBX 24 16 0 0
BITMAP
E1C3F0
E1C7FC
E1CF3E
E1DC0E
F3DC07
F3D807
F3D807
F3DC07
F3DC0E
FFCF3E
FFC7BC
FFC3B0
FFDFB7
FFDFB7
FFDFBF
FFDFBF
ENDCHAR
STARTCHAR 338A
ENCODING 10076
SWIDTH 2700 0
DWIDTH 27 0
BBX 22 20 1 -4
BITMAP
001FFC
001FFC
001E00
001E00
001E00
001E00
FF1E00
FFDFE0
F3DFE0
E1FE00
E1FE00
E1FE00
E1FE00
F3DE00
FFDE00
FF9E00
F00000
F00000
F00000
F00000
ENDCHAR
STARTCHAR 338B
ENCODING 10077
SWIDTH 2700 0
DWIDTH 27 0
BBX 23 16 1 0
BITMAP
000FFE
000FFE
000FFE
000F00
000F00
F78F00
FFEFF8
FFFFF8
F0FF00
F0FF00
F0FF00
F0FF00
F0FF00
F0FF00
F0FF00
F0FF00
ENDCHAR
STARTCHAR 338C
ENCODING 10078
SWIDTH 2700 0
DWIDTH 27 0
BBX 23 18 1 -3
BITMAP
000FFE
000FFE
000F00
000F00
042F00
077FF8
0E7FF8
0E6FF8
1CEF00
1CEF00
39CF00
39CF00
73BF00
7FFF00
7FEF00
FFEF00
E00000
C00000
ENDCHAR
STARTCHAR 33D6
ENCODING 10079
SWIDTH 2700 0
DWIDTH 27 0
BBX 25 16 -1 0
BITMAP
00000380
00000380
00000380
00000380
00000380
FFC3E380
FFE7F380
FFE77380
F7EF7B80
F7EF7B80
F7EF7B80
F7EF7B80
F7EF7B80
F7E7F380
F7E7F380
F7E3C380
ENDCHAR
STARTCHAR 33C5
ENCODING 10080
SWIDTH 2700 0
DWIDTH 27 0
BBX 20 17 2 0
BITMAP
0000F0
0000F0
0000F0
0000F0
0000F0
000FF0
003FF0
0FBFF0
3FFDF0
71F8F0
F078F0
F078F0
F078F0
F0FDF0
7FFFF0
3F9FF0
0F0FF0
ENDCHAR
STARTCHAR 33AD
ENCODING 10081
SWIDTH 2700 0
DWIDTH 27 0
BBX 25 16 0 0
BITMAP
00000780
00000780
00000780
00000780
00000780
E6783F80
FEFC7F80
FCCE7780
F00EF780
E0FEF780
E1FEF780
E1CEF780
E18EF780
E1CE7780
E1FF7F80
E0FF1F80
ENDCHAR
STARTCHAR 33AE
ENCODING 10082
SWIDTH 2700 0
DWIDTH 27 0
BBX 24 20 0 -3
BITMAP
000002
000383
000386
038386
FFCF8C
FEDF8C
F7DB98
F7DB98
F7FFB0
F7EFF0
F323E0
0000FC
0000FE
0001FF
00019C
00038E
000336
00073E
00061C
000600
ENDCHAR
STARTCHAR 33AF
ENCODING 10083
SWIDTH 2700 0
DWIDTH 27 0
BBX 24 19 0 -3
BITMAP
000604
00060E
C3860C
FF9E1C
FFFE18
C3F63E
CFF67F
CFFE62
CFDEEF
07C6CF
000198
0001BC
000376
000738
00061C
000E6E
000C7E
00183C
001800
ENDCHAR
STARTCHAR 33DB
ENCODING 10084
SWIDTH 2700 0
DWIDTH 27 0
BBX 19 11 3 0
BITMAP
3E3CE0
7F3FE0
63BFE0
73BE00
7C3C00
3F3C00
07BC00
E3BC00
73BC00
7F3C00
1E3C00
ENDCHAR
STARTCHAR 33A9
ENCODING 10085
SWIDTH 2700 0
DWIDTH 27 0
BBX 21 16 3 0
BITMAP
FF8000
FFC000
F0E000
F06000
F06000
F0FF80
F1FFE0
FFF1E0
FF07E0
F03FE0
F07FE0
F071E0
F061E0
F073E0
F07FF8
F03E78
ENDCHAR
STARTCHAR 33AA
ENCODING 10086
SWIDTH 2700 0
DWIDTH 27 0
BBX 25 16 -1 0
BITMAP
E03F8000
E03FC000
E03DE000
E03DE000
F03DE000
F73DFC00
FE3DFF00
FC3FF780
F83F8780
F83C3F80
FC3C7F80
FC3C6780
FE3CE780
F63C7780
F63C7F80
F73C3F80
ENDCHAR
STARTCHAR 33AB
ENCODING 10087
SWIDTH 2700 0
DWIDTH 27 0
BBX 24 15 0 0
BITMAP
E1FE00
F1FF00
F1F380
F1F380
F3F380
F3F3FC
FBFF7E
FBFE6E
FBF83E
FBF07E
FFF0EE
FFF0EE
FDF0EE
F5F0FF
F5F07F
ENDCHAR
STARTCHAR 33AC
ENCODING 10088
SWIDTH 2700 0
DWIDTH 27 0
BBX 24 17 0 -1
BITMAP
007E00
3C7F00
7E7F80
FF7F80
E77F80
E77F80
E07FBC
E07F7E
EFFFEE
EFF80E
EFF87E
E778DE
E7789E
E7789E
FF78FF
7F787F
3F0000
ENDCHAR
STARTCHAR 33DD
ENCODING 10089
SWIDTH 2700 0
DWIDTH 27 0
BBX 25 16 0 0
BITMAP
E33BC000
E73BC000
67BBC000
67BBC000
77B3C000
77B3FC00
77B3FE00
7FF3CF00
3FF3C780
3FF3C780
3DF3C780
3DE3C780
3CE3C780
1CE3EF00
1CE3FE00
18E3FC00
ENDCHAR
STARTCHAR 33D0
ENCODING 10090
SWIDTH 2700 0
DWIDTH 27 0
BBX 18 16 4 0
BITMAP
F00000
F00000
F00000
F00000
F00000
FFFF80
FFFFC0
FEF3C0
FEF3C0
FEF3C0
FEF3C0
FEF3C0
FEF3C0
FEF3C0
FEF3C0
FEF3C0
ENDCHAR
STARTCHAR 33D3
ENCODING 10091
SWIDTH 2700 0
DWIDTH 27 0
BBX 17 16 3 0
BITMAP
F00000
F00000
F00000
F00000
F00000
F78700
F3CF00
F1DE00
F0FC00
F07800
F07800
F0FC00
F0FC00
F1CE00
F38700
F78380
ENDCHAR
STARTCHAR 33C3
ENCODING 10092
SWIDTH 2700 0
DWIDTH 27 0
BBX 22 19 2 -3
BITMAP
FF0000
FF8000
F7C000
F3C000
F3C000
F3C09C
F787FC
FF8FFC
FFDE1C
F1FE1C
F0FE1C
F0FE1C
F0FE1C
F1FF1C
FFEFFC
FF87FC
00003C
00003C
00003C
ENDCHAR
STARTCHAR 33C9
ENCODING 10093
SWIDTH 2700 0
DWIDTH 27 0
BBX 23 21 0 -3
BITMAP
0F0000
1FC000
3FE000
79E000
78F000
F0F000
F0F000
F0070E
F0030E
F1FB9C
F1F99C
F1F9DC
F0F1F8
78F0F8
79F0F8
3FF070
1FF070
0F7060
0001E0
0001E0
0001C0
ENDCHAR
STARTCHAR 33DC
ENCODING 10094
SWIDTH 2700 0
DWIDTH 27 0
BBX 20 16 2 0
BITMAP
3E0000
7F8000
E38000
C1C000
C00000
E00000
FC1C70
7F9C70
0FCE70
01EE60
00E6E0
00E7E0
C0E7C0
E1E3C0
7FC3C0
3F8180
ENDCHAR
STARTCHAR 33C6
ENCODING 10095
SWIDTH 2700 0
DWIDTH 27 0
BBX 24 17 0 -2
BITMAP
00C000
78F800
7CF800
EEF800
EEB800
E0BB9F
E1BF3F
E1BE66
E1BC66
E1BE7C
EFBE3C
EDBE70
FDBB7E
7DBB7F
013BE3
01007F
03003E
ENDCHAR
STARTCHAR 00C6
ENCODING 10273
SWIDTH 2700 0
DWIDTH 27 0
BBX 18 16 3 0
BITMAP
01FFC0
01FFC0
03FFC0
03F000
07F000
07F000
0FFF80
0EFF80
1FFF80
1FF000
3FF000
3CF000
38F000
78FFC0
70FFC0
F0FFC0
ENDCHAR
STARTCHAR 00D0
ENCODING 10274
SWIDTH 2700 0
DWIDTH 27 0
BBX 16 16 5 0
BITMAP
1FC0
1FF8
1FFC
1E3E
1E1E
FFCF
FFCF
FFCF
1E0F
1E0F
1E0F
1E1F
1E3E
1FFE
1FFC
1FF0
ENDCHAR
STARTCHAR 00AA
ENCODING 10275
SWIDTH 2700 0
DWIDTH 27 0
BBX 14 13 6 0
BITMAP
1FC0
3FE0
18E0
0FE0
3FE0
38E0
71E0
3FF0
3FF0
0000
0000
FFFC
FFFC
ENDCHAR
STARTCHAR 0126
ENCODING 10276
SWIDTH 2700 0
DWIDTH 27 0
BBX 17 17 4 0
BITMAP
3C1E00
3C1E00
3C1E00
FFFF80
FFFF80
FFFF80
3C1E00
3C1E00
3FFE00
3FFE00
3C1E00
3C1E00
3C1E00
3C1E00
3C1E00
3C1E00
3C1E00
ENDCHAR
STARTCHAR 0132
ENCODING 10278
SWIDTH 2700 0
DWIDTH 27 0
BBX 13 20 6 -3
BITMAP
F038
F038
F038
F038
F038
F038
F038
F038
F038
F038
F038
F038
F038
F038
F038
F038
F738
07F8
07F0
03E0
ENDCHAR
STARTCHAR 013F
ENCODING 10280
SWIDTH 2700 0
DWIDTH 27 0
BBX 15 17 5 0
BITMAP
F000
F000
F000
F000
F000
F000
F01E
F01E
F01E
F000
F000
F000
F000
F000
F000
FFFE
FFFE
ENDCHAR
STARTCHAR 0141
ENCODING 10281
SWIDTH 2700 0
DWIDTH 27 0
BBX 18 17 3 0
BITMAP
0F0000
0F0000
0F0000
0F3000
0FF800
0FF800
3FC000
FF0000
7F0000
4F0000
0F0000
0F0000
0F0000
0F0000
0F0000
0FFFC0
0FFFC0
ENDCHAR
STARTCHAR 00D8
ENCODING 10282
SWIDTH 2700 0
DWIDTH 27 0
BBX 16 16 5 -1
BITMAP
0006
0FEF
3FFE
7FFC
7C7E
F8FF
F1EF
F1CF
F38F
FF0F
7E1E
7C3E
7FFC
FFF0
E3C0
4000
ENDCHAR
STARTCHAR 0152
ENCODING 10283
SWIDTH 2700 0
DWIDTH 27 0
BBX 18 16 3 0
BITMAP
0F0000
1FFFC0
3FFFC0
7C7000
783000
F03800
F01800
F01FC0
F01FC0
F01800
F01800
F83800
783000
7EFFC0
3FFFC0
1FFFC0
ENDCHAR
STARTCHAR 00BA
ENCODING 10284
SWIDTH 2700 0
DWIDTH 27 0
BBX 10 12 8 0
BITMAP
0800
3F00
7F80
7380
6380
7380
7F80
3F00
0000
FFC0
FFC0
FFC0
ENDCHAR
STARTCHAR 00DE
ENCODING 10285
SWIDTH 2700 0
DWIDTH 27 0
BBX 15 16 5 -1
BITMAP
F000
F000
FFE0
FFF8
FFFC
F03C
F01E
F01E
F01E
F01E
F03E
F3FC
FFF8
FFE0
F000
F000
ENDCHAR
STARTCHAR 0166
ENCODING 10286
SWIDTH 2700 0
DWIDTH 27 0
BBX 16 17 4 0
BITMAP
FFFF
FFFF
FFFF
03C0
03C0
03C0
03C0
7FFE
7FFE
7FFE
01C0
01C0
03C0
03C0
03C0
03C0
03C0
ENDCHAR
STARTCHAR 014A
ENCODING 10287
SWIDTH 2700 0
DWIDTH 27 0
BBX 12 17 7 0
BITMAP
F000
F000
F000
F000
F000
F000
FFE0
FFF0
FCF0
F070
F070
F070
F070
F0F0
F3E0
F3C0
F180
ENDCHAR
STARTCHAR 3260
ENCODING 10289
SWIDTH 2700 0
DWIDTH 27 0
BBX 24 22 -1 -4
BITMAP
007F80
03FFF0
07FFF8
1FC0FE
3F003E
3DFFFF
79FFEF
79FFE7
F001E3
F001E3
F001E3
F001E3
F001E3
F001E3
7801E7
7801EF
3C01FF
3F01FE
1FC0FC
07FFF8
03FFF0
007F80
ENDCHAR
STARTCHAR 3261
ENCODING 10290
SWIDTH 2700 0
DWIDTH 27 0
BBX 24 22 -1 -4
BITMAP
007F80
03FFF0
07FFF8
1FC0FE
3FE03E
3DE01F
7DE00F
79E007
F1E003
F1E003
F1E003
F1E003
F1E003
F1E003
79FFF7
79FFFF
3CFFFF
3F003E
1FC0FC
07FFF8
03FFF0
007F80
ENDCHAR
STARTCHAR 3262
ENCODING 10291
SWIDTH 2700 0
DWIDTH 27 0
BBX 24 22 -1 -4
BITMAP
007F80
03FFF0
07FFF8
1FC0FE
3FFFFE
3DFFDF
7DFFCF
79E007
F1E003
F1E003
F1E003
F1E003
F1E003
F1E003
79E007
79FFEF
3DFFEF
3FFFFF
1FC0FC
07FFF8
03FFF0
007F80
ENDCHAR
STARTCHAR 3263
ENCODING 10292
SWIDTH 2700 0
DWIDTH 27 0
BBX 24 22 -1 -4
BITMAP
007F80
03FFF0
07FFF8
1FC0FE
3F003F
3DFFEF
79FFEF
79FFE7
F001E3
F1FFE3
F1FFE3
F1FFE3
F1E003
F1E003
79FFF7
79FFFF
3CFFFF
3F003E
1FC0FC
07FFF8
03FFF0
007F80
ENDCHAR
STARTCHAR 3264
ENCODING 10293
SWIDTH 2700 0
DWIDTH 27 0
BBX 24 22 -1 -4
BITMAP
007F80
03FFF0
07FFF8
1FC0FE
3F003E
3DFFFF
79FFEF
79FFE7
F1E1E3
F1E1E3
F1E1E3
F1E1E3
F1E1E3
F1E1E3
79FFE7
79FFEF
3CFFFF
3F003E
1FC0FC
07FFF8
03FFF0
007F80
ENDCHAR
STARTCHAR 3265
ENCODING 10294
SWIDTH 2700 0
DWIDTH 27 0
BBX 24 22 -1 -4
BITMAP
007F80
03FFF0
07FFF8
1FC0FE
3FE1FE
3DE1FF
79E1EF
79E1E7
F1FFE3
F1FFE3
F1FFE3
F1E1E3
F1E1E3
F1E1E3
79E1E7
79FFEF
3DFFEF
3FFFFE
1FC0FC
07FFF8
03FFF0
007F80
ENDCHAR
STARTCHAR 3266
ENCODING 10295
SWIDTH 2700 0
DWIDTH 27 0
BBX 24 22 -1 -4
BITMAP
007F80
03FFF0
07FFF8
1FC0FE
3F1E3E
3C1E1F
781E0F
781E07
F01E03
F01E03
F01E03
F03F03
F03F03
F0FFC3
7BFFF7
79F3EF
3CC0EF
3F003E
1FC0FC
07FFF8
03FFF0
007F80
ENDCHAR
STARTCHAR 3267
ENCODING 10296
SWIDTH 2700 0
DWIDTH 27 0
BBX 24 22 -1 -4
BITMAP
007F80
03FFF0
07FFF8
1FC0FE
3F003E
3C3F1F
7CFFCF
79FFE7
F1E1E3
F3E1F3
F3C0F3
F3C0F3
F3C0F3
F3C1F3
79E1E7
79FFEF
3CFFDF
3F3F3E
1FC0FC
07FFF8
03FFF0
007F80
ENDCHAR
STARTCHAR 3268
ENCODING 10297
SWIDTH 2700 0
DWIDTH 27 0
BBX 24 21 -1 -3
BITMAP
007F80
03FFF0
07FFF8
1FC0FE
3F003F
3FFFFF
7DFFEF
79FFE7
F01E07
F01E03
F01E03
F01E03
F01E03
F03F03
787F87
7BFFF7
3DF3EF
1EC0FE
0F003C
03C0F0
00FFC0
ENDCHAR
STARTCHAR 3269
ENCODING 10298
SWIDTH 2700 0
DWIDTH 27 0
BBX 24 22 -1 -4
BITMAP
007F80
03FFF0
07FFF8
1FDEFE
3F1E3E
3DFFEF
79FFEF
79FFE7
F01E03
F01E03
F01E03
F01E03
F03F03
F07F83
7BFFF7
7BF3FF
3DC0FF
3F003E
1FC0FC
07FFF8
03FFF0
007F80
ENDCHAR
STARTCHAR 326A
ENCODING 10299
SWIDTH 2700 0
DWIDTH 27 0
BBX 24 22 -1 -4
BITMAP
007F80
03FFF0
07FFF8
1FC0FE
3F003F
3DFFEF
79FFEF
79FFE7
F001E3
F001E3
F1FFE3
F1FFE3
F1FFE3
F001E3
7801E7
7C01EF
3C01FF
3F01FE
1FC0FC
07FFF8
03FFF0
007F80
ENDCHAR
STARTCHAR 326B
ENCODING 10300
SWIDTH 2700 0
DWIDTH 27 0
BBX 24 22 -1 -4
BITMAP
007F80
03FFF0
07FFF8
1FC0FE
3FFFFE
3DFFDF
7DFFCF
79E007
F1E003
F1FFC3
F1FFC3
F1FFC3
F1E003
F1E003
79E007
79FFCF
3DFFCF
3FFFFE
1FC0FC
07FFF8
03FFF0
007F80
ENDCHAR
STARTCHAR 326C
ENCODING 10301
SWIDTH 2700 0
DWIDTH 27 0
BBX 24 22 -1 -4
BITMAP
007F80
03FFF0
07FFF8
1FC0FC
3F003E
3FFFFF
7BFFFF
7BFFF7
F0F3C3
F0F3C3
F0F3C3
F0F3C3
F0F3C3
F0F3C3
7BFFF7
7BFFFF
3FFFFF
3F003E
1FC0FC
07FFF8
03FFF0
007F80
ENDCHAR
STARTCHAR 326D
ENCODING 10302
SWIDTH 2700 0
DWIDTH 27 0
BBX 24 22 -1 -4
BITMAP
007F80
03FFF0
07FFF8
0FC0FE
3F1E1F
3E1E0F
7DFFF7
79FFF7
F1FFF3
F0FBE3
F1F1E3
F1E0F3
F1E0F3
F1E0F3
79F1F7
7CFFEF
3C7FDF
3F3F3E
1FC0FC
07FFF8
03FFF0
007F80
ENDCHAR
STARTCHAR 326E
ENCODING 10303
SWIDTH 2700 0
DWIDTH 27 0
BBX 24 22 -1 -4
BITMAP
007F80
03FFF0
07FFF8
1FC0FE
3F01FF
3DFFFF
7DFFEF
79FFE7
F01FE3
F01FFB
F01FFB
F01FFB
F03DE3
F07DE3
7BF9E7
7DE1EF
3C81FF
3F01FE
1FC0FC
07FFF8
03FFF0
007F80
ENDCHAR
STARTCHAR 326F
ENCODING 10304
SWIDTH 2700 0
DWIDTH 27 0
BBX 24 22 -1 -4
BITMAP
007F80
03FFF0
07FFF8
1FC0FE
3FC03E
3FC1EF
7BC1EF
7BC1E7
F3C1E3
F3C1E3
F3C1FB
F3C1FB
F3FFFB
F3FFE3
79FFE7
7801EF
3C01EF
3F003E
1FC0FC
07FFF8
03FFF0
007F80
ENDCHAR
STARTCHAR 3270
ENCODING 10305
SWIDTH 2700 0
DWIDTH 27 0
BBX 24 22 -1 -4
BITMAP
007F80
03FFF0
07FFF8
1FC0FE
3F01FF
3FFFEF
7FFFEF
7BFFE7
F3C1E3
F3C1FF
F3C1FF
F3C1FF
F3C1E3
F3FFE3
7BFFE7
79FFEF
3C01EF
3F01FF
1FC0FC
07FFF8
03FFF0
007F80
ENDCHAR
STARTCHAR 3271
ENCODING 10306
SWIDTH 2700 0
DWIDTH 27 0
BBX 24 21 -1 -3
BITMAP
007F80
03FFF0
07FFF8
1F80FE
3E001F
3FFFEF
7BFFE7
7BFFE7
F01FE3
F3FFFB
F3FFFB
F3FFFB
F3C1E3
F3FFE3
7BFFE7
79FFEF
3C01EF
1E01FE
0F807C
03FFF0
00FFC0
ENDCHAR
STARTCHAR 3272
ENCODING 10307
SWIDTH 2700 0
DWIDTH 27 0
BBX 24 22 -1 -4
BITMAP
007F80
03FFF0
07FFF8
1FC0FE
3F01FE
3FFFEF
7BFFEF
7BDFE7
F3DFE3
F3DFFB
F3DFFB
F3DFFB
F3DFE3
F3FFE3
7BFFE7
7801EF
3C01EF
3F003E
1FC0FC
07FFF8
03FFF0
007F80
ENDCHAR
STARTCHAR 3273
ENCODING 10308
SWIDTH 2700 0
DWIDTH 27 0
BBX 24 22 -1 -4
BITMAP
007F00
03FFE0
07FFF0
1F81FC
3F019E
3FDFFE
7BDFFF
7BDFEF
F3FFE7
F3FFFF
F3FFFF
F3DFFF
F3DFE7
F3FFE7
7BFFEF
7BFFEF
3C01FE
3E007E
1F80FC
0FFFF0
03FFE0
00FF00
ENDCHAR
STARTCHAR 3274
ENCODING 10309
SWIDTH 2700 0
DWIDTH 27 0
BBX 23 21 2 -3
BITMAP
00FE00
03FF80
0FFFE0
1E07F0
3807F8
6787FC
4787FC
C787BE
8787BE
8787FE
8787FE
8F87FE
9FE79E
BFF79E
BC77BC
4017BC
2007F8
1000F0
0801E0
0607C0
01FF00
ENDCHAR
STARTCHAR 3275
ENCODING 10310
SWIDTH 2700 0
DWIDTH 27 0
BBX 24 21 -1 -3
BITMAP
007F00
03FFE0
0FFFF8
1F81FC
3F019E
7DF9DE
7FFDFF
FB9DEF
F79FEF
F79FFF
F79FFF
F79FFF
F79FE7
F3FDE7
79F9EF
7861EF
3C01FE
1E003C
0F0078
07C1F0
01FF80
ENDCHAR
STARTCHAR 3276
ENCODING 10311
SWIDTH 2700 0
DWIDTH 27 0
BBX 24 22 -1 -4
BITMAP
007F00
03FFE0
07FFF0
1F81FC
3FFF9E
3DFFFE
79FFFF
7878EF
F078E7
F078E7
F078FF
F0FCFF
F3FEE7
F3CFE7
7B02EF
7800FF
3C00FE
3E007E
1F81FC
0FFFF0
03FFE0
00FF00
ENDCHAR
STARTCHAR 3277
ENCODING 10312
SWIDTH 2700 0
DWIDTH 27 0
BBX 24 21 -1 -3
BITMAP
007F00
03FFE0
0FFFF8
1F81FC
3FF09E
7FFEDE
7FFEFF
FFFEEF
F0F0EF
F0F0E7
F0F0FF
F1F8FF
FFFFE7
F7FEE7
7F0EEF
7800EF
3C00FE
1E00DC
0F0078
07C1F0
01FF80
ENDCHAR
STARTCHAR 3278
ENCODING 10313
SWIDTH 2700 0
DWIDTH 27 0
BBX 24 22 -1 -4
BITMAP
007F00
03FFE0
07FFF0
1F81FC
3FFE9C
3DFEDE
7DFEFF
781EEF
F1FEEF
F1FEFF
F1FEFF
F01CE7
F03CE7
F0F8E7
F9F0EF
79E0EF
7C00FE
3E003E
1F007C
0FC1F0
03FFE0
007F00
ENDCHAR
STARTCHAR 3279
ENCODING 10314
SWIDTH 2700 0
DWIDTH 27 0
BBX 23 22 2 -4
BITMAP
00FE00
03FF80
0FFFE0
1E07F0
3FFFF8
7FFFFC
5FFF7C
5E0F3C
9FFFDE
9FFFDE
9FFFDE
9E0F1E
9E0F1E
9FFF1E
5FFF3C
4FFF7C
600FF8
380FF8
1E07F0
0FFFE0
03FF80
00FE00
ENDCHAR
STARTCHAR 327A
ENCODING 10315
SWIDTH 2700 0
DWIDTH 27 0
BBX 24 21 -1 -3
BITMAP
007F80
03FFF0
07FFF8
1FC0FE
3F003F
3FFEFF
7FFEFF
7FFEF7
F3FCF7
F3FCFF
F3FCFF
F3FCFF
F3FCF3
F7FFF3
7FFFF7
7FFFF7
3C00FF
1E00FE
0F003C
03C0F0
00FFC0
ENDCHAR
STARTCHAR 327B
ENCODING 10316
SWIDTH 2700 0
DWIDTH 27 0
BBX 24 22 -1 -4
BITMAP
007F00
03FFE0
07FFF8
1F811C
3E009E
3C70FE
7BFEFF
7BFEEF
F3FEE7
F1DCFF
F38EFF
F38EFF
F38EE7
F3DEE7
79FEEF
79FCEF
3C00FE
3F009E
1F811C
07FFF0
03FFE0
007F00
ENDCHAR
STARTCHAR 24D0
ENCODING 10317
SWIDTH 2700 0
DWIDTH 27 0
BBX 24 22 -1 -4
BITMAP
007F80
03FFF0
07FFF8
1FC0FE
3F1E3E
3C7F8F
79FFCF
78C1C7
F08FC3
F07FC3
F1FFC3
F1C1C3
F1C1C3
F1C7C3
79FFE7
78FCEF
3C000F
3F003E
1FC0FC
07FFF8
03FFF0
007F80
ENDCHAR
STARTCHAR 24D1
ENCODING 10318
SWIDTH 2700 0
DWIDTH 27 0
BBX 24 22 -1 -4
BITMAP
007F80
03FFF0
07FFF8
1FC0FE
3FF03E
3CF01F
78F00F
78FF87
F0FFE3
F0FFE3
F0F0F3
F0F0F3
F0F0F3
F0F0F3
78F9F7
78FFEF
3CFFCF
3FE03E
1FC0FC
07FFF8
03FFF0
007F80
ENDCHAR
STARTCHAR 24D2
ENCODING 10319
SWIDTH 2700 0
DWIDTH 27 0
BBX 24 22 -1 -4
BITMAP
007F80
03FFF0
07FFF8
1FC0FE
3F003F
3C3F1F
787FCF
78FFE7
F0E0C3
F1C003
F1C003
F1C083
F1E0E3
F0E1E3
78FFC7
787F8F
3C1F0F
3F003E
1FC0FC
07FFF8
03FFF0
007F80
ENDCHAR
STARTCHAR 24D3
ENCODING 10320
SWIDTH 2700 0
DWIDTH 27 0
BBX 24 22 -1 -4
BITMAP
007F80
03FFF0
07FFF8
1FC0FE
3F03FF
3C03DF
7803CF
781BC7
F07FC3
F0FFC3
F1E3C3
F1E3C3
F1E3C3
F1E3C3
79F3C7
78FFCF
3C7FCF
3F3FFE
1FC0FC
07FFF8
03FFF0
007F80
ENDCHAR
STARTCHAR 24D4
ENCODING 10321
SWIDTH 2700 0
DWIDTH 27 0
BBX 24 22 -1 -4
BITMAP
007F80
03FFF0
07FFF8
1FC0FE
3F3E3E
3C7F9F
78FFCF
79E1C7
F1C0E3
F1FFE3
F1FFE3
F1FFE3
F1C0E3
F1E1E3
78FFC7
787F8F
3C1F0F
3F003E
1FC0FC
07FFF8
03FFF0
007F80
ENDCHAR
STARTCHAR 24D5
ENCODING 10322
SWIDTH 2700 0
DWIDTH 27 0
BBX 24 22 -1 -4
BITMAP
007F80
03FFF0
07FFF8
1FC0FE
3F0FBF
3C1F9F
781F0F
781E07
F01E03
F1FFE3
F1FFE3
F01E03
F01E03
F01E03
781E07
7C1E0F
3C1E1F
3F1E3E
1FDEFC
07FFF8
03FFF0
007F80
ENDCHAR
STARTCHAR 24D6
ENCODING 10323
SWIDTH 2700 0
DWIDTH 27 0
BBX 24 22 -1 -4
BITMAP
007F80
03FFF0
07FFF8
1FC0FE
3F3FFF
3C7FFF
78FFEF
79F3E7
F1E1E3
F1E1E3
F1E1E3
F1F1E3
F0FFE3
F07FE3
783FE7
7861EF
3CFFCF
3FFFFE
1FFFFC
07FFF8
03FFF0
007F80
ENDCHAR
STARTCHAR 24D7
ENCODING 10324
SWIDTH 2700 0
DWIDTH 27 0
BBX 24 22 -1 -4
BITMAP
007F80
03FFF0
07FFF8
1FC0FE
3FE03E
3DE01F
79E00F
79E707
F1FFC3
F1FFE3
F1F1E3
F1E1E3
F1E1E3
F1E1E3
79E1E7
79E1EF
3DE1EF
3F003E
1FC0FC
07FFF8
03FFF0
007F80
ENDCHAR
STARTCHAR 24D8
ENCODING 10325
SWIDTH 2700 0
DWIDTH 27 0
BBX 24 22 -1 -4
BITMAP
007F80
03FFF0
07FFF8
1FC0FE
3F1E3E
3C1E1F
780E0F
780007
F01E03
F01E03
F01E03
F01E03
F01E03
F01E03
781E07
781E0F
3C1E0F
3F1E3F
1FC0FC
07FFF8
03FFF0
007F80
ENDCHAR
STARTCHAR 24D9
ENCODING 10326
SWIDTH 2700 0
DWIDTH 27 0
BBX 23 22 2 -4
BITMAP
00FE00
03FF80
0FFFE0
1E3FF0
3839F8
2038F8
40387C
40383C
803C1E
803C1E
803C1E
803C1E
803C1E
803C1E
403C3C
403C7C
61FC78
39F9F8
1FE7F0
0FFFE0
03FF80
00FE00
ENDCHAR
STARTCHAR 24DA
ENCODING 10327
SWIDTH 2700 0
DWIDTH 27 0
BBX 24 22 -1 -4
BITMAP
007F80
03FFF0
07FFF8
1FC0FE
3FE03F
3DE01F
7DE00F
79E1F7
F1E3E3
F1EF83
F1FF03
F1FE03
F1FF03
F1E783
79E3C7
79E1CF
3DE1EF
3F003F
1FC0FE
07FFF8
03FFF0
007F80
ENDCHAR
STARTCHAR 24DB
ENCODING 10328
SWIDTH 2700 0
DWIDTH 27 0
BBX 24 22 -1 -4
BITMAP
007F80
03FFF0
07FFF8
1FC0FC
3F1E3E
3C1E1F
7C1E0F
781E07
F01E03
F01E03
F01E03
F01E03
F01E03
F01E03
781E07
7C1E0F
3C1E0F
3F003E
1FC0FC
07FFF8
03FFF0
007F80
ENDCHAR
STARTCHAR 24DC
ENCODING 10329
SWIDTH 2700 0
DWIDTH 27 0
BBX 24 22 -1 -4
BITMAP
007F80
03FFF0
07FFF8
1FC0FC
3F003E
3C001F
7FF3CF
7BFFF7
F3DFF3
F3DEF3
F3DEF3
F3DEF3
F3DEF3
F3DEF3
7BDEF7
7BDEFF
3C000F
3F003E
1FC0FC
07FFF8
03FFF0
007F80
ENDCHAR
STARTCHAR 24DD
ENCODING 10330
SWIDTH 2700 0
DWIDTH 27 0
BBX 24 22 -1 -4
BITMAP
007F80
03FFF0
07FFF8
0FC0FE
3F003E
3C001F
78FF8F
78FFC7
F0F1E3
F0F1E3
F0F1E3
F0F1E3
F0F1E3
F0F1E3
78F1E7
78F1EF
3C000F
3F003F
1FC0FC
07FFF8
03FFF0
007F80
ENDCHAR
STARTCHAR 24DE
ENCODING 10331
SWIDTH 2700 0
DWIDTH 27 0
BBX 24 22 -1 -4
BITMAP
007F80
03FFF0
07FFF8
1FC0FE
3F003E
3C3F9F
78FFEF
79FFF7
F1E1F3
F3C07B
F3C07B
F3C07B
F3C0FB
F1F1F3
79FFF7
78FFEF
3C3F8F
3F003E
1FC0FC
07FFF8
03FFF0
007F80
ENDCHAR
STARTCHAR 24DF
ENCODING 10332
SWIDTH 2700 0
DWIDTH 27 0
BBX 24 22 -1 -4
BITMAP
007F80
03FFF0
07FFF8
1FC0FE
3FF3BF
3CFFEF
7CFFFF
78F0FF
F0F07B
F0F07B
F0F07B
F0F07B
F0FFF3
F0FFF3
78F7C7
78F00F
3CF00F
3FF03F
1FC0FC
07FFF8
03FFF0
007F80
ENDCHAR
STARTCHAR 24E0
ENCODING 10333
SWIDTH 2700 0
DWIDTH 27 0
BBX 24 22 -1 -4
BITMAP
007F80
03FFF0
07FFF8
1FC0FE
3FFFFE
3DFFDF
7BCFCF
7B83C7
F383C3
F383C3
F383C3
F3C7C3
F1FFC3
F0FFC3
7813C7
7803CF
3C03DF
3F03FE
1FC0FC
07FFF8
03FFF0
007F80
ENDCHAR
STARTCHAR 24E1
ENCODING 10334
SWIDTH 2700 0
DWIDTH 27 0
BBX 24 22 -1 -4
BITMAP
007F80
03FFF0
07FFF8
0FC0FE
3F003E
3CF19F
78FFEF
78FFF7
F0F873
F0F063
F0F003
F0F003
F0F003
F0F003
78F007
7CF00F
3CF01F
3F003E
1FC0FC
07FFF8
03FFF0
007F80
ENDCHAR
STARTCHAR 24E2
ENCODING 10335
SWIDTH 2700 0
DWIDTH 27 0
BBX 23 22 2 -4
BITMAP
00FE00
03FF80
0FFFE0
1E07F0
3801F8
21F8F8
43FC7C
43FE3C
878E1E
87E01E
83F81E
81FC1E
871E1E
8F1E1E
479E3C
43FC7C
61F8F8
3861F8
1E07F0
0FFFE0
03FF80
00FE00
ENDCHAR
STARTCHAR 24E3
ENCODING 10336
SWIDTH 2700 0
DWIDTH 27 0
BBX 24 22 -1 -4
BITMAP
007F80
03FFF0
07FFF8
1FDEFE
3F1E3E
3C1E0F
7C1E0F
79FFC7
F1FFC3
F1FFC3
F01E03
F01E03
F01E03
F01E03
781E47
781FEF
3C1FEF
3F0FFE
1FC0FC
07FFF8
03FFF0
007F80
ENDCHAR
STARTCHAR 24E4
ENCODING 10337
SWIDTH 2700 0
DWIDTH 27 0
BBX 24 22 -1 -4
BITMAP
007F80
03FFF0
07FFF8
1FC0FE
3F003E
3DE1FF
7DE1EF
79E1E7
F1E1E3
F1E1E3
F1E1E3
F1E1E3
F1E1E3
F1FFE3
78FFE7
787FEF
3C000F
3F003E
1FC0FC
07FFF8
03FFF0
007F80
ENDCHAR
STARTCHAR 24E5
ENCODING 10338
SWIDTH 2700 0
DWIDTH 27 0
BBX 24 22 -1 -4
BITMAP
007F80
03FFF0
07FFF8
1FC0FE
3F003E
3C001F
7F807F
7BC0F7
F1C0E3
F1E1C3
F0E1C3
F0F383
F07383
F07F03
783F07
783E0F
3C1E0F
3F003E
1FC0FC
07FFF8
03FFF0
007F80
ENDCHAR
STARTCHAR 24E6
ENCODING 10339
SWIDTH 2700 0
DWIDTH 27 0
BBX 23 22 2 -4
BITMAP
00FE00
03FF80
0FFFE0
1E07F0
3801F8
2000F8
5C73FC
4EF3BC
8EF31E
8EFB1E
8EFF1E
87FF1E
87DF1E
87DE1E
43DE3C
43DE7C
63CEF8
3801F8
1E07F0
0FFFE0
03FF80
00FE00
ENDCHAR
STARTCHAR 24E7
ENCODING 10340
SWIDTH 2700 0
DWIDTH 27 0
BBX 24 22 -1 -4
BITMAP
007F80
03FFF0
07FFF8
0E211E
3FF1FE
3CF3DF
7C7F8F
787F87
F03F03
F03F03
F01E03
F01F03
F03F03
F03F03
787F87
787B8F
3CF3DF
3FF1FE
1E211C
07FFF8
03FFF0
007F80
ENDCHAR
STARTCHAR 24E8
ENCODING 10341
SWIDTH 2700 0
DWIDTH 27 0
BBX 24 22 -1 -4
BITMAP
007F80
03FFF0
07FFF8
1FC0FE
3F003E
3CE1EF
78F1CF
7879C7
F03BC3
F03F83
F01F83
F01F03
F00F03
F00E03
781E07
78FC0F
3DF80F
3F703E
1FC0FC
07FFF8
03FFF0
007F80
ENDCHAR
STARTCHAR 24E9
ENCODING 10342
SWIDTH 2700 0
DWIDTH 27 0
BBX 24 22 -1 -4
BITMAP
007F80
03FFF0
07FFF8
1FC0FE
3F003E
3DFFFF
79FFEF
79FFE7
F003C3
F00783
F00F03
F01E03
F07803
F0F003
79FFE7
79FFEF
3DFFEF
3F003E
1FC0FC
07FFF8
03FFF0
007F80
ENDCHAR
STARTCHAR 2460
ENCODING 10343
SWIDTH 2700 0
DWIDTH 27 0
BBX 24 22 -1 -4
BITMAP
007F80
03FFF0
07FFF8
1FC0FE
3F1E3E
3C3E1F
7CFE0F
78FE07
F09E03
F01E03
F01E03
F01E03
F01E03
F01E03
781E07
781E0F
3C1E0F
3F1E3E
1FC0FC
07FFF8
03FFF0
007F80
ENDCHAR
STARTCHAR 2461
ENCODING 10344
SWIDTH 2700 0
DWIDTH 27 0
BBX 24 22 -1 -4
BITMAP
007F80
03FFF0
07FFF8
1FC0FE
3F7F3E
3CFF9F
7CE3CF
78C3C7
F00383
F00783
F00F03
F03E03
F07803
F0F003
78FFC7
79FFCF
3DFFCF
3F003E
1FC0FC
07FFF8
03FFF0
007F80
ENDCHAR
STARTCHAR 2462
ENCODING 10345
SWIDTH 2700 0
DWIDTH 27 0
BBX 24 22 -1 -4
BITMAP
007F80
03FFF0
07FFF8
1FC0FE
3F1F3E
3C7FCF
78F3CF
7821C7
F001C3
F01FC3
F01FC3
F01FC3
F001E3
F060E3
78F1C7
787FCF
3C3F8F
3F1F3E
1FC0FC
07FFF8
03FFF0
007F80
ENDCHAR
STARTCHAR 2463
ENCODING 10346
SWIDTH 2700 0
DWIDTH 27 0
BBX 24 22 -1 -4
BITMAP
007F80
03FFF0
07FFF8
1FCFFE
3F1F3E
3C3F1F
7C3F0F
787F07
F0FF03
F0FF03
F1EF03
F3FFE3
F3FFE3
F3FFE3
780F07
780F0F
3C0F1F
3F003E
1FC0FC
07FFF8
03FFF0
007F80
ENDCHAR
STARTCHAR 2464
ENCODING 10347
SWIDTH 2700 0
DWIDTH 27 0
BBX 24 22 -1 -4
BITMAP
007F80
03FFF0
07FFF8
1FC0FE
3FFFFE
3CFFDF
7CFFCF
78F007
F0FE03
F0FF83
F0FFC3
F081C3
F001E3
F021E3
78E1C7
78FFCF
3C7F8F
3F1E3E
1FC0FC
07FFF8
03FFF0
007F80
ENDCHAR
STARTCHAR 2465
ENCODING 10348
SWIDTH 2700 0
DWIDTH 27 0
BBX 24 22 -1 -4
BITMAP
007F80
03FFF0
07FFF8
1FC0FE
3F033E
3C079F
7C1F8F
783E07
F03C03
F07F03
F0FF83
F0FFC3
F0C3C3
F0C3C3
78E7C7
787F8F
3C3F0F
3F083E
1FC0FC
07FFF8
03FFF0
007F80
ENDCHAR
STARTCHAR 2466
ENCODING 10349
SWIDTH 2700 0
DWIDTH 27 0
BBX 24 22 -1 -4
BITMAP
007F80
03FFF0
07FFF8
1FC0FE
3F003E
3DFFDF
7DFFCF
79FFC7
F00383
F00383
F00783
F00703
F00F03
F00F03
780F07
780E0F
3C1E0F
3F1E3E
1FC0FC
07FFF8
03FFF0
007F80
ENDCHAR
STARTCHAR 2467
ENCODING 10350
SWIDTH 2700 0
DWIDTH 27 0
BBX 24 21 -1 -3
BITMAP
007F80
03FFF0
07FFF8
1FC0FE
3F043F
3E3F1F
7C7F8F
7873C7
F873C7
F07F83
F03F83
F07FC3
F0F1C3
F0E1C3
78F3C7
787FC7
3C3F8F
1E0C1E
0F003C
03C0F0
00FFC0
ENDCHAR
STARTCHAR 2468
ENCODING 10351
SWIDTH 2700 0
DWIDTH 27 0
BBX 24 22 -1 -4
BITMAP
007F80
03FFF0
07FFF8
1FC0FE
3F0C3E
3C3F8F
787F8F
78F3C7
F0E1C3
F0F7C3
F07FC3
F03FC3
F001C3
F0F1C3
787BC7
787F8F
3C3F0F
3F003E
1FC0FC
07FFF8
03FFF0
007F80
ENDCHAR
STARTCHAR 2469
ENCODING 10352
SWIDTH 2700 0
DWIDTH 27 0
BBX 24 22 -1 -4
BITMAP
007F80
03FFF0
07FFF8
1FC0FE
3FE7FE
3DEFFF
7FFFFF
7FFE7F
F7FC3F
F1FC3F
F1FC3F
F1FC3F
F1FC3F
F1FC3F
79FE7F
79FFFF
3DEFFF
3F03FE
1FC0FC
07FFF8
03FFF0
007F80
ENDCHAR
STARTCHAR 246A
ENCODING 10353
SWIDTH 2700 0
DWIDTH 27 0
BBX 24 22 -1 -4
BITMAP
007F80
03FFF0
07FFF8
1FC0FE
3FE3FE
3DE3DF
7FEFCF
7FEFC7
F5EFC3
F1E3C3
F1E3C3
F1E3C3
F1E3C3
F1E3C3
79E3C7
79E3CF
3DE3CF
3F003E
1FC0FC
07FFF8
03FFF0
007F80
ENDCHAR
STARTCHAR 246B
ENCODING 10354
SWIDTH 2700 0
DWIDTH 27 0
BBX 24 22 -1 -4
BITMAP
007F80
03FFF0
07FFF8
1FCF7E
3FDFFE
3FFFFF
7FFDEF
7FD8E7
F7C0E3
F3C0E3
F3C1E3
F3C3C3
F3C783
F3CF03
7BDF07
7BDE0F
3FFFEF
3F3FDE
1FFF1C
07FFF8
03FFF0
007F80
ENDCHAR
STARTCHAR 246C
ENCODING 10355
SWIDTH 2700 0
DWIDTH 27 0
BBX 24 21 -1 -3
BITMAP
007F80
03FFF0
07FFF8
1FC0FE
3FE1BF
3FEFFF
7FFFFF
7FEC77
FFE077
F1E3F3
F1E3E3
F1E3F3
F1E07B
F1E83B
79FE7F
79FFF7
3DE7EF
1E001E
0F003C
03C0F0
00FFC0
ENDCHAR
STARTCHAR 246D
ENCODING 10356
SWIDTH 2700 0
DWIDTH 27 0
BBX 24 22 -1 -4
BITMAP
007F80
03FFF0
07FFF8
0FC0FE
3F003E
3DE1FF
7FE1FF
7FE3F7
F7E3F3
F1E7F3
F1EF73
F1EEF3
F1FFFF
F1FFFF
79FFFF
79E0FF
3DE0FF
3F00FE
1FC0FC
07FFF8
03FFF0
007F80
ENDCHAR
STARTCHAR 246E
ENCODING 10357
SWIDTH 2700 0
DWIDTH 27 0
BBX 24 22 -1 -4
BITMAP
007F80
03FFF0
07FFF8
1E5F1E
3CDFDE
3BDFFF
7FDC0F
7FDD87
F5DFE3
F1DFF3
F1DC73
F1C033
F1C03B
F1C03B
79D877
7DDCFF
3DDFFF
3ECFDE
1E473C
07FFF8
03FFF0
007F80
ENDCHAR
STARTCHAR 00BD
ENCODING 10358
SWIDTH 2700 0
DWIDTH 27 0
BBX 19 20 2 -4
BITMAP
180000
380080
F801C0
F80380
F80700
380E00
381E00
383C00
387800
38F780
39FFC0
03DFC0
039DC0
0701C0
0E03C0
1C0780
380FE0
700FE0
E00FE0
400000
ENDCHAR
STARTCHAR 2153
ENCODING 10359
SWIDTH 2700 0
DWIDTH 27 0
BBX 20 20 2 -3
BITMAP
1E0000
3E0100
7E0380
7E0380
1E0700
1E0E00
1E1C00
1E3800
1E7000
1EE3C0
01C7E0
03CFF0
078070
0F03E0
1E03F0
3C00F0
780C70
700FF0
E007E0
400380
ENDCHAR
STARTCHAR 2154
ENCODING 10360
SWIDTH 2700 0
DWIDTH 27 0
BBX 21 21 2 -4
BITMAP
780000
FE0000
FE0180
CE0380
1E0700
3C0E00
781E00
FE3C00
FE7800
00F3C0
00E7F0
01C7F0
038270
0703F0
0E03F0
1C00F8
380678
700FF0
E007F0
E001C0
400000
ENDCHAR
STARTCHAR 00BC
ENCODING 10361
SWIDTH 2700 0
DWIDTH 27 0
BBX 18 20 3 -4
BITMAP
3C0000
3C0180
FC0380
FC0700
FC0F00
3C1E00
3C3C00
3C7800
3CFF00
3CFF00
3DDF00
03BF00
077F00
0EFF00
1DFFC0
3DFFC0
79FFC0
F00F00
E00F00
400000
ENDCHAR
STARTCHAR 00BE
ENCODING 10362
SWIDTH 2700 0
DWIDTH 27 0
BBX 20 20 2 -4
BITMAP
3C0020
7E0070
FF00E0
6701C0
3F0380
3E0700
3F0E00
671C00
FF39C0
7F7BC0
3EF7C0
01E7C0
03CFC0
079DC0
0F3FF0
1E3FF0
3C3FF0
7801C0
7001C0
200000
ENDCHAR
STARTCHAR 215B
ENCODING 10363
SWIDTH 2700 0
DWIDTH 27 0
BBX 21 20 1 -3
BITMAP
1E0000
3E0000
7E0180
7E0380
1E0700
1E0E00
1E1E00
1E3C00
1E7800
1EF3F0
01E7F8
01C738
038738
0707F8
0E07F8
1C0738
380F38
7007F8
E007F0
6001C0
ENDCHAR
STARTCHAR 215C
ENCODING 10364
SWIDTH 2700 0
DWIDTH 27 0
BBX 22 20 1 -3
BITMAP
3E0000
7F0080
7700C0
0701C0
3F0380
3F0700
270E00
E71C00
7F3800
3E79F8
00F3F8
01E31C
03C3BC
0783F8
0F03FC
0E079C
1C079C
3807FC
7003F8
6000E0
ENDCHAR
STARTCHAR 215D
ENCODING 10365
SWIDTH 2700 0
DWIDTH 27 0
BBX 23 20 1 -3
BITMAP
7F0000
7F0040
7F0060
7000E0
7E01C0
7F0380
778700
038E00
E39C00
7F3DF8
7F7BFC
1CF39C
01E39C
03C3FC
0783FC
0F039E
0E039E
1C03FC
3801F8
3000F0
ENDCHAR
STARTCHAR 215E
ENCODING 10366
SWIDTH 2700 0
DWIDTH 27 0
BBX 21 21 2 -4
BITMAP
FF8000
FF8000
FF8180
070380
0E0700
0E0E00
1C1E00
1C3C00
1C7800
3CF3E0
39E7F0
03CF78
038F78
0707F0
0E07F8
1C0F38
380F38
700FF8
F007F0
E00080
400000
ENDCHAR
STARTCHAR 00E6
ENCODING 10529
SWIDTH 2700 0
DWIDTH 27 0
BBX 17 13 4 -1
BITMAP
1F3C00
7FFE00
7FE700
F3C300
01FF80
1FFF80
3FFF80
79C000
71C380
7BEF80
7FFF00
7FFE00
1E3C00
ENDCHAR
STARTCHAR 0111
ENCODING 10530
SWIDTH 2700 0
DWIDTH 27 0
BBX 17 17 4 0
BITMAP
003C00
003C00
003C00
3FFF80
3FFF80
3FFF80
003C00
1FFC00
7FFC00
7DFC00
F03C00
F03C00
F03C00
F03C00
7FFC00
3FFC00
0FBC00
ENDCHAR
STARTCHAR 00F0
ENCODING 10531
SWIDTH 2700 0
DWIDTH 27 0
BBX 15 17 5 -1
BITMAP
0008
0FDC
3FFC
78F8
73F8
079C
0E1C
000E
FFFE
FFFE
FFFE
701E
701C
783C
3FF8
1FF0
07E0
ENDCHAR
STARTCHAR 0127
ENCODING 10532
SWIDTH 2700 0
DWIDTH 27 0
BBX 16 17 4 0
BITMAP
1E00
1E00
1E00
FFFC
FFFC
1E00
1E00
1FFC
1FFE
1F1F
1E0F
1E0F
1E0F
1E0F
1E0F
1E0F
1E0F
ENDCHAR
STARTCHAR 0131
ENCODING 10533
SWIDTH 2700 0
DWIDTH 27 0
BBX 4 17 11 0
BITMAP
F0
F0
F0
F0
F0
F0
F0
F0
F0
F0
F0
F0
F0
F0
F0
F0
F0
ENDCHAR
STARTCHAR 0133
ENCODING 10534
SWIDTH 2700 0
DWIDTH 27 0
BBX 13 20 6 -3
BITMAP
E070
F078
F078
6030
0000
F078
F078
F078
F078
F078
F078
F078
F078
F078
F078
F078
F078
03F8
03F0
03E0
ENDCHAR
STARTCHAR 0138
ENCODING 10535
SWIDTH 2700 0
DWIDTH 27 0
BBX 15 16 5 0
BITMAP
F000
F000
F000
F000
F07E
F0F8
F1F0
F7C0
FF80
FF80
FFC0
F9E0
F0F0
F078
F03C
F01E
ENDCHAR
STARTCHAR 0140
ENCODING 10536
SWIDTH 2700 0
DWIDTH 27 0
BBX 10 17 8 0
BITMAP
F000
F000
F000
F000
F000
F000
F000
F3C0
F3C0
F3C0
F000
F000
F000
F000
F000
F000
F000
ENDCHAR
STARTCHAR 0142
ENCODING 10537
SWIDTH 2700 0
DWIDTH 27 0
BBX 16 17 4 0
BITMAP
03C7
03CE
03DE
03DC
03F8
03F8
03F0
03E0
03C0
07C0
0FC0
0FC0
1FC0
3FC0
3BC0
73C0
E3C0
ENDCHAR
STARTCHAR 00F8
ENCODING 10538
SWIDTH 2700 0
DWIDTH 27 0
BBX 16 21 4 -4
BITMAP
000C
001C
001C
0038
0FF8
3FFC
3E7E
78EF
70E7
F1C7
F1C7
F387
7387
770F
3F0E
3F3E
1FF8
1FF0
1C00
3800
1800
ENDCHAR
STARTCHAR 0153
ENCODING 10539
SWIDTH 2700 0
DWIDTH 27 0
BBX 19 12 3 0
BITMAP
1FFF80
3FFFC0
79F1C0
F0F0E0
F0FFE0
F0FFE0
F0F000
F0F000
F0F0E0
79F9E0
3FFFC0
0F1F80
ENDCHAR
STARTCHAR 00DF
ENCODING 10540
SWIDTH 2700 0
DWIDTH 27 0
BBX 14 18 6 -2
BITMAP
0F80
3FE0
78F0
F0F0
F070
F0F0
F3F0
F3F0
F3F8
F038
F03C
F03C
F03C
F03C
FE78
EFF0
E7C0
E000
ENDCHAR
STARTCHAR 00FE
ENCODING 10541
SWIDTH 2700 0
DWIDTH 27 0
BBX 13 17 6 -1
BITMAP
F000
F000
F000
FF80
FFE0
FFF0
F070
F078
F038
F038
F078
F0F8
FFF0
FFE0
FF80
F000
F000
ENDCHAR
STARTCHAR 0167
ENCODING 10542
SWIDTH 2700 0
DWIDTH 27 0
BBX 13 19 6 -2
BITMAP
0F00
0F10
0FF8
1FF0
FF80
FF00
8F00
0F00
FFF0
FFF0
FFF0
0F00
0F00
0F00
0F00
0F00
0FF8
0FF8
07F0
ENDCHAR
STARTCHAR 014B
ENCODING 10543
SWIDTH 2700 0
DWIDTH 27 0
BBX 11 14 7 -2
BITMAP
E000
FFC0
FFE0
F1E0
F1E0
F1E0
F1E0
F1E0
F1E0
F1E0
01E0
3FC0
3F80
3F00
ENDCHAR
STARTCHAR 0149
ENCODING 10544
SWIDTH 2700 0
DWIDTH 27 0
BBX 12 13 7 0
BITMAP
E700
FFC0
FFE0
F0F0
F0F0
F0F0
F0F0
F0F0
F0F0
F0F0
F0F0
F0F0
F0F0
ENDCHAR
STARTCHAR 3200
ENCODING 10545
SWIDTH 2700 0
DWIDTH 27 0
BBX 24 19 -1 -2
BITMAP
040008
0F001C
1FFFEE
3FFFEF
7BFFE7
7801E7
F001E3
F001E3
F001E3
F001E3
F001E3
F001E3
7801E7
7801E7
3C01E7
3C01EF
1E001E
0F003C
020018
ENDCHAR
STARTCHAR 3201
ENCODING 10546
SWIDTH 2700 0
DWIDTH 27 0
BBX 25 19 0 -2
BITMAP
08003800
1E003C00
3C001E00
3BC01E00
73C00F00
73C00700
63C00780
63C00780
63C00780
E3C00780
63C00780
63C00780
73C00F00
73FFEF00
3BFFFE00
3DFFFE00
1E003C00
0E007800
04002000
ENDCHAR
STARTCHAR 3202
ENCODING 10547
SWIDTH 2700 0
DWIDTH 27 0
BBX 24 19 -1 -2
BITMAP
040008
0F001C
1C000E
3DFFE6
79FFE7
79FFE3
F1E003
F1E003
F1E003
F1E003
F1E003
F1E003
79E003
79FFE7
3DFFE7
3CFFEE
1E001C
0F003C
020018
ENDCHAR
STARTCHAR 3203
ENCODING 10548
SWIDTH 2700 0
DWIDTH 27 0
BBX 24 19 -1 -2
BITMAP
040008
0F001C
1C000E
3FFFEE
7BFFE7
7BFFE7
F001E3
F001E3
F1FFE3
F1FFE3
F1FFE3
F1E003
F9E003
79FFF7
7DFFF7
3CFFFE
1E001C
0F0038
020010
ENDCHAR
STARTCHAR 3204
ENCODING 10549
SWIDTH 2700 0
DWIDTH 27 0
BBX 24 19 -1 -2
BITMAP
04001C
0F001E
1C000F
3DFFE7
79FFE7
79FFE3
F1E1E3
F1E1E3
F1E1E3
F1E1E3
F1E1E3
F1E1E3
F9E1E7
79FFE7
7DFFEF
3CFFEF
1E001E
0F003C
020010
ENDCHAR
STARTCHAR 3205
ENCODING 10550
SWIDTH 2700 0
DWIDTH 27 0
BBX 24 19 -1 -2
BITMAP
040008
0F001C
1DE1EE
3DE1EF
79E1E7
79E1E7
F1FFE3
F1FFE3
F1FFE3
F1E1E3
F1E1E3
F1E1E3
79FFE7
79FFE7
3CFFEF
3C000F
1E001E
0F003C
020018
ENDCHAR
STARTCHAR 3206
ENCODING 10551
SWIDTH 2700 0
DWIDTH 27 0
BBX 24 19 -1 -2
BITMAP
040008
0F001E
1C1E0F
3C1E0F
781E07
781E07
F01E03
F01E03
F01E03
F01F03
F03F03
F07FC3
7BFFF7
79F3E7
7DC0EF
3C000F
1E001E
0F003C
020018
ENDCHAR
STARTCHAR 3207
ENCODING 10552
SWIDTH 2700 0
DWIDTH 27 0
BBX 24 19 -1 -2
BITMAP
040008
0F001E
1C3F0E
3CFFCF
79FFE7
79E1E7
F3E1F3
F3C0F3
F3C0F3
F3C0F3
F3C1F3
F1E1E3
F9FFE7
78FFC7
7C3F0F
3C000F
1E001E
0F003C
020018
ENDCHAR
STARTCHAR 3208
ENCODING 10553
SWIDTH 2700 0
DWIDTH 27 0
BBX 24 20 -1 -3
BITMAP
000008
0E001C
1E001E
3DFFEF
39FFE7
79FFE7
701E03
F01E03
F01E03
F01E03
F01E03
F03F03
F07FC7
7BFFF7
79F3F7
3DC0EF
3E001E
1F003C
0F0038
020000
ENDCHAR
STARTCHAR 3209
ENCODING 10554
SWIDTH 2700 0
DWIDTH 27 0
BBX 24 19 -1 -2
BITMAP
040008
0E001C
1C1E0E
3C1E0F
79FFE7
79FFE7
F01E03
F01E03
F01E03
F01E03
F03F03
F07F83
7BFFF7
7BFBF7
7FE1F7
3D000F
1E001E
0F003C
020038
ENDCHAR
STARTCHAR 320A
ENCODING 10555
SWIDTH 2700 0
DWIDTH 27 0
BBX 24 19 -1 -2
BITMAP
040008
0F001C
1C000E
3DFFEF
79FFE7
79FFE7
F001E3
F001E3
F1FFE3
F1FFE3
F1FFE3
F001E3
7801E7
7801E7
3C01E7
3C01EF
1E001E
0F003C
020018
ENDCHAR
STARTCHAR 320B
ENCODING 10556
SWIDTH 2700 0
DWIDTH 27 0
BBX 24 19 -1 -2
BITMAP
040008
0F001E
1DFFCF
3DFFCF
79FFC7
79E003
F1E003
F1FFC3
F1FFC3
F1FFC3
F1E003
F1E003
F9FFC7
79FFC7
7CFFCF
3C000F
1E001E
0F003C
020010
ENDCHAR
STARTCHAR 320C
ENCODING 10557
SWIDTH 2700 0
DWIDTH 27 0
BBX 24 19 -1 -2
BITMAP
040008
0F001C
1C000E
3FFFFE
7FFFFF
7FFFFB
F0F3C3
F0F3C3
F0F3C3
F0F3C3
F0F3C3
F0F3C3
FFFFFB
7FFFFF
7FFFFF
3C000E
1E001C
0F0038
020010
ENDCHAR
STARTCHAR 320D
ENCODING 10558
SWIDTH 2700 0
DWIDTH 27 0
BBX 24 19 -1 -2
BITMAP
040008
0F001C
1C1E0E
3C1E0F
7BFFF7
7BFFF7
F3FFF3
F1FFE3
F1F3E3
F3C1F3
F3C0F3
F3C0F3
7BC0F7
79E1F7
3DFFE7
3CFFCF
1E3F1E
0F003C
020038
ENDCHAR
STARTCHAR 320E
ENCODING 10559
SWIDTH 2700 0
DWIDTH 27 0
BBX 24 19 -1 -2
BITMAP
040008
0E001C
1FFFEE
3FFFEF
7BFFE7
781FE7
F01FFB
F01FFB
F03FFB
F03DE3
F0F9E3
F3F9E3
79E1E7
7981E7
7C01E7
3C01EF
1E001E
0F003C
020038
ENDCHAR
STARTCHAR 320F
ENCODING 10560
SWIDTH 2700 0
DWIDTH 27 0
BBX 24 19 -1 -2
BITMAP
040008
0F001C
1C01EE
3FC1EE
7BC1E7
7BC1E7
F3C1E3
F3C1E3
F3C1FB
F3C1FB
F3C1FB
F3FFE3
7BFFE7
79FFE7
3C01E7
3C01EE
1E01FC
0F0038
020010
ENDCHAR
STARTCHAR 3210
ENCODING 10561
SWIDTH 2700 0
DWIDTH 27 0
BBX 24 19 -1 -2
BITMAP
040008
0F001C
1C01EE
3FFFEF
7BFFE7
7BFFE7
F3C1E3
F3C1E3
F3C1FB
F3C1FB
F3C1FB
F3FFE3
7BFFE7
79FFE7
3C01EF
3C01EF
1E01FE
0F003C
020018
ENDCHAR
STARTCHAR 3211
ENCODING 10562
SWIDTH 2700 0
DWIDTH 27 0
BBX 24 19 -1 -2
BITMAP
040008
0F001C
1FFFEE
3FFFEF
7BFFE7
781FE7
F01FE3
F3FFFB
F3FFFB
F3FFFB
F3C1E3
F3FFE3
FBFFE7
7BFFE7
7C01EF
3C01EF
1E01FE
0F003C
020018
ENDCHAR
STARTCHAR 3212
ENCODING 10563
SWIDTH 2700 0
DWIDTH 27 0
BBX 24 19 -1 -2
BITMAP
040008
0F001C
1E01EE
3DFDEF
79FDE7
79FDE7
F1DDE3
F1DDFB
F1DDFB
F1DDFB
F1DDE3
F1FDE3
F9FDE7
79FDE7
7C01EF
3C01EF
1E001E
0F003C
020018
ENDCHAR
STARTCHAR 3213
ENCODING 10564
SWIDTH 2700 0
DWIDTH 27 0
BBX 25 19 0 -2
BITMAP
08001000
1E003800
3FBFDC00
3FBFDE00
77BFCF00
77BFCF00
67FFC780
67FFF780
67FFF780
E7BFF780
67BFC780
67FFC780
77FFCF00
77FFCF00
3803DF00
3C03DE00
1E03FC00
0F007800
04003000
ENDCHAR
STARTCHAR 3214
ENCODING 10565
SWIDTH 2700 0
DWIDTH 27 0
BBX 24 19 -1 -2
BITMAP
040008
0F001C
1C00FE
3CF0FF
78F0F7
78F0F7
F0F0F3
F0F0FF
F0F0FF
F1F8FF
F7FEF3
F7DEF3
7F0EF7
7800F7
3C00F7
3C00FF
1E00FE
0F003C
020018
ENDCHAR
STARTCHAR 3215
ENCODING 10566
SWIDTH 2700 0
DWIDTH 27 0
BBX 24 19 -1 -2
BITMAP
040008
0F001C
1C40FE
3DF8FF
7BFCF7
7F9EF7
F79EF3
F79EFF
F79EFF
F79EFF
F79EF3
F3FCF3
F9F8F7
7860F7
7C00FF
3C00FF
1E00FE
0F003C
020018
ENDCHAR
STARTCHAR 3216
ENCODING 10567
SWIDTH 2700 0
DWIDTH 27 0
BBX 24 19 -1 -2
BITMAP
040008
0F001C
1DFFEE
3DFFEF
79FFE7
7879E7
F079E3
F079FB
F079FB
F079FB
F0FDE3
F7FFE3
7BCFE7
7B03E7
7C01EF
3C01EF
1E01FE
0F003C
020038
ENDCHAR
STARTCHAR 3217
ENCODING 10568
SWIDTH 2700 0
DWIDTH 27 0
BBX 24 19 -1 -2
BITMAP
040008
0E001C
1CF1EE
3FFFEE
7FFFE7
7FFFE7
F0F1E3
F0F1FB
F0F1FB
F0F1FB
F3F9E3
F7FFE3
7F9DE3
7C01E7
3C01E7
3C01EE
1E01FC
0F003C
020038
ENDCHAR
STARTCHAR 3218
ENCODING 10569
SWIDTH 2700 0
DWIDTH 27 0
BBX 24 19 -1 -2
BITMAP
040008
0F001C
1DFFEE
3DFFEE
79FFE7
781FE7
F1FFFB
F1FFFB
F1FFFB
F01DE3
F03DE3
F1F9E3
79F1E3
79C1E7
3C01E7
3C01EE
1E01FC
0F003C
020018
ENDCHAR
STARTCHAR 3219
ENCODING 10570
SWIDTH 2700 0
DWIDTH 27 0
BBX 24 19 -1 -2
BITMAP
040008
0F001C
1FFFEE
3FFFEF
7BFFE7
7BC1E7
F3FFFB
F3FFFB
F3FFFB
F3C1E3
F3C1E3
F3FFE3
FBFFE7
7BFFE7
7C01EF
3C01EF
1E01FE
0F003C
020018
ENDCHAR
STARTCHAR 321A
ENCODING 10571
SWIDTH 2700 0
DWIDTH 27 0
BBX 24 19 -1 -2
BITMAP
040008
0F001C
1C000E
3FFFFF
7BFFF7
7BFFF7
F1FEF3
F1FEFF
F1FEFF
F1FEFF
F1FEF3
F3FFF3
FBFFF7
7BFFF7
7C00F7
3C00FF
1E00FE
0F003C
020018
ENDCHAR
STARTCHAR 321B
ENCODING 10572
SWIDTH 2700 0
DWIDTH 27 0
BBX 24 19 -1 -2
BITMAP
040008
0F001C
1C01EE
3CF1EF
7FFFE7
7FFFE7
F7FFE3
F39DFB
F79FFB
F79FE3
F79FE3
F7FFE3
7FFDE7
7BFDE7
3C61E7
3E01EF
1F001E
0F003C
020038
ENDCHAR
STARTCHAR 249C
ENCODING 10573
SWIDTH 2700 0
DWIDTH 27 0
BBX 24 19 -1 -2
BITMAP
040008
0F001E
1C000E
3C7F0F
79FF87
79F7C7
F181C3
F03FC3
F0FFC3
F1FFC3
F3C1C3
F383C3
7BDFC7
79FFF7
7DFDEF
3C000F
1E001E
0F003C
020018
ENDCHAR
STARTCHAR 249D
ENCODING 10574
SWIDTH 2700 0
DWIDTH 27 0
BBX 24 19 -1 -2
BITMAP
040008
0F001C
1CF00E
3CF006
78F007
78F783
F0FFE3
F0FFE3
F0F9F3
F0F0F3
F0F0F3
F0F0F3
78F0F7
78FFE7
3CFFCE
3CFF8E
1E001C
0F0038
020010
ENDCHAR
STARTCHAR 249E
ENCODING 10575
SWIDTH 2700 0
DWIDTH 27 0
BBX 24 19 -1 -2
BITMAP
040008
0E001E
1C0C0E
3C3F8F
787FE7
70F1E7
F1E043
F1C003
F1C003
F1C003
F1C073
F0E0F3
78F1E7
787FC7
7C3FCF
3C1F0F
1F001E
0F003C
020018
ENDCHAR
STARTCHAR 249F
ENCODING 10576
SWIDTH 2700 0
DWIDTH 27 0
BBX 24 19 -1 -2
BITMAP
040018
0F03DC
1C03CE
3C03CE
7803C7
78FFC7
F1FFC3
F3FFC3
F7C3C3
F783C3
F783C3
F783C3
7FC3C7
7BFFC7
3DFFCE
3C7FCE
1E001C
0F0038
020010
ENDCHAR
STARTCHAR 24A0
ENCODING 10577
SWIDTH 2700 0
DWIDTH 27 0
BBX 24 19 -1 -2
BITMAP
040008
0F001E
1C000F
3C1F0F
787F87
78FFC7
F1E1E3
F1C0E3
F1FFE3
F1FFF3
F1FFF3
F1C0E3
79E0E7
78FFC7
3C7FCF
3C1F0F
1E001E
0F003C
020018
ENDCHAR
STARTCHAR 24A1
ENCODING 10578
SWIDTH 2700 0
DWIDTH 27 0
BBX 24 19 -1 -2
BITMAP
040008
0F011C
1C0F0E
3C1F0F
781F07
781C07
F01C03
F1FFE3
F1FFE3
F1FFE3
F01C03
F01C03
781C07
781C07
3C1C07
3C1C0F
1F1C1E
0F1C3C
020038
ENDCHAR
STARTCHAR 24A2
ENCODING 10579
SWIDTH 2700 0
DWIDTH 27 0
BBX 24 19 -1 -2
BITMAP
040008
0F001C
1C1FEE
3C7FEF
78FFE7
79F1E7
F1E1E3
F1E1E3
F1E1E3
F1F3E3
F0FFE3
F07FE3
783FE7
7861E7
3CFFCF
3CFFCF
1E7F9E
0F003C
020018
ENDCHAR
STARTCHAR 24A3
ENCODING 10580
SWIDTH 2700 0
DWIDTH 27 0
BBX 24 19 -1 -2
BITMAP
04001C
0F001E
1DE00F
3DE00F
79E007
79E003
F1FF83
F1FFC3
F1FFE3
F1E1E3
F1E0E3
F1E0E3
F9E0E7
79E0E7
7DE0EF
3DE0EF
1E001E
0F007C
020010
ENDCHAR
STARTCHAR 24A4
ENCODING 10581
SWIDTH 2700 0
DWIDTH 27 0
BBX 24 19 1 -2
BITMAP
100020
3C0070
383838
70383C
E0381E
E0101E
C0780F
C0780F
C0780F
C0780F
C0780F
C0780F
E0781E
E0781E
70781E
78783C
3C7878
1E00F0
0800E0
ENDCHAR
STARTCHAR 24A5
ENCODING 10582
SWIDTH 2700 0
DWIDTH 27 0
BBX 24 19 -1 -2
BITMAP
040008
0E071C
1C078E
3C078E
780307
780007
F00783
F00783
F00783
F00783
F00783
F00783
F80787
780787
7C078E
3C3F8E
1E3F1C
0F3838
020010
ENDCHAR
STARTCHAR 24A6
ENCODING 10583
SWIDTH 2700 0
DWIDTH 27 0
BBX 25 19 0 -2
BITMAP
08001000
1E003C00
3C001E00
3BC01E00
73C10F00
73C78F00
63CF8780
63DF0780
63FE0780
E3FC0780
63FE0780
63EF0780
73C70F00
73C78F00
3BC3DE00
3FC3DE00
1E003C00
0E00F800
04002000
ENDCHAR
STARTCHAR 24A7
ENCODING 10584
SWIDTH 2700 0
DWIDTH 27 0
BBX 24 19 1 -2
BITMAP
100020
3C0078
380038
703C3C
E03C1E
E03C1E
E03C0F
C03C0F
C03C0F
C03C0F
C03C0F
E03C0F
E03C1E
E03C1E
703C3E
783C3C
3C0078
1E00F0
080060
ENDCHAR
STARTCHAR 24A8
ENCODING 10585
SWIDTH 2700 0
DWIDTH 27 0
BBX 24 19 0 -2
BITMAP
080010
1E0038
3C001C
38001C
77E38E
77FFEE
67FFE6
671CE7
671CE7
E71CE7
671CE7
671CE6
771CEE
771CEE
3F1CFC
3C001C
1E0038
0E0070
040020
ENDCHAR
STARTCHAR 24A9
ENCODING 10586
SWIDTH 2700 0
DWIDTH 27 0
BBX 24 19 -1 -2
BITMAP
040008
0F001E
1C000F
3C000F
79E607
79FFC7
F1FFE3
F1E0E3
F1E0E3
F1E0E3
F1E0E3
F1E0E3
79E0E7
79E0E7
3DE0EF
3C000F
1E001E
0F003C
020018
ENDCHAR
STARTCHAR 24AA
ENCODING 10587
SWIDTH 2700 0
DWIDTH 27 0
BBX 24 19 -1 -2
BITMAP
040008
0F001E
1C000F
3C1F8F
787FE7
78FFFF
F1F0FB
F3E07F
F3C03F
F3C03F
F3C03F
F3E07F
79F0FF
78FFF7
3C7FE7
3C1F8F
1E001E
0F003C
020018
ENDCHAR
STARTCHAR 24AB
ENCODING 10588
SWIDTH 2700 0
DWIDTH 27 0
BBX 24 19 -1 -2
BITMAP
040008
0F001C
1E000E
3CFFEF
78FFF7
78FFF7
F0F07B
F0F07B
F0F07B
F0F07B
F0F0FB
F0FFF3
78FFF7
78F7C7
3CF00F
3CF00F
1EF01E
0F003C
020018
ENDCHAR
STARTCHAR 24AC
ENCODING 10589
SWIDTH 2700 0
DWIDTH 27 0
BBX 24 19 -1 -2
BITMAP
040008
0F001C
1C33CE
3DFFCF
7BFFC7
7FC7C7
F783C3
F783C3
F783C3
F783C3
F3C7C3
F3FFC3
79FFC7
7803C7
3C03C7
3C03CF
1E03DE
0F003C
020018
ENDCHAR
STARTCHAR 24AD
ENCODING 10590
SWIDTH 2700 0
DWIDTH 27 0
BBX 24 19 -1 -2
BITMAP
040008
0F001C
1C000E
3C000F
787BE7
787FF7
F07E7B
F07C3B
F07823
F07803
F07803
F07803
F87807
787807
7C7807
3C780F
1E001E
0F003C
020038
ENDCHAR
STARTCHAR 24AE
ENCODING 10591
SWIDTH 2700 0
DWIDTH 27 0
BBX 24 19 -1 -2
BITMAP
040008
0E001C
1C000E
3C1E0E
783F87
787FC7
F0F9E3
F0F083
F07E03
F07F83
F01FC3
F1E3C3
78E1C7
78FFC7
3C7FC7
3C3F8E
1E001C
0F0038
020010
ENDCHAR
STARTCHAR 24AF
ENCODING 10592
SWIDTH 2700 0
DWIDTH 27 0
BBX 24 19 -1 -2
BITMAP
040008
0E001C
1C3C0E
3C3C0F
783C07
783C07
F3FFC3
F3FFC3
F3FFC3
F03C03
F03C03
F03C03
F83C07
783C87
7C3DCF
3C3FCF
1E3F9E
0F0F3C
020018
ENDCHAR
STARTCHAR 24B0
ENCODING 10593
SWIDTH 2700 0
DWIDTH 27 0
BBX 24 20 -1 -3
BITMAP
040008
1E001C
1C001E
3C000F
79E1E7
71E1E7
F1E1E3
F1E1E3
F1E1E3
F1E1E3
F1E1E3
F1E1E3
F9FFE3
78FFE7
7C7FE7
3C000F
1E001E
0F803C
060038
000010
ENDCHAR
STARTCHAR 24B1
ENCODING 10594
SWIDTH 2700 0
DWIDTH 27 0
BBX 24 19 -1 -2
BITMAP
040008
0E001E
1C000E
3C000F
780007
7BC077
F3C0F3
F1E0E3
F1E1E3
F0F1C3
F0F3C3
F07B83
787F87
783F07
7C3F0F
3C1E0F
1E1E1E
0F003C
020018
ENDCHAR
STARTCHAR 24B2
ENCODING 10595
SWIDTH 2700 0
DWIDTH 27 0
BBX 24 19 -1 -2
BITMAP
040008
0F001E
1C000F
3C000F
780007
7B8E3F
F38E73
F1DE73
F1DF73
F1DF73
F0FFE3
F0FBE3
78FBE7
787BC7
7C7BCF
3C79CF
1E001E
0F003C
020018
ENDCHAR
STARTCHAR 24B3
ENCODING 10596
SWIDTH 2700 0
DWIDTH 27 0
BBX 24 19 -1 -2
BITMAP
040008
0F001E
1C000F
3C000F
79E0F7
78F1E7
F07BC3
F07F83
F03F03
F01E03
F01F03
F03F83
787B87
78F3C7
3DE1EF
3C000F
1E001E
0F003C
020010
ENDCHAR
STARTCHAR 24B4
ENCODING 10597
SWIDTH 2700 0
DWIDTH 27 0
BBX 24 19 -1 -2
BITMAP
040008
0F001E
1C000E
3C000F
78F0F7
78F0F7
F079E3
F03DE3
F01FC3
F01FC3
F00F83
F00703
780F07
785E07
7CFC0F
3DFC0F
1E781E
0F003C
020018
ENDCHAR
STARTCHAR 24B5
ENCODING 10598
SWIDTH 2700 0
DWIDTH 27 0
BBX 24 19 -1 -2
BITMAP
040008
0F001C
1C000E
3DFFEE
79FFE7
79FFE7
F003E3
F007C3
F00F83
F01F03
F03C03
F07803
F8F007
79FFE7
7DFFE7
3DFFEE
1E001C
0F0038
020010
ENDCHAR
STARTCHAR 2474
ENCODING 10599
SWIDTH 2700 0
DWIDTH 27 0
BBX 24 19 -1 -2
BITMAP
040008
0F001C
1E000E
3C1E0E
787E07
78FE07
F0FE03
F01E03
F01E03
F01E03
F01E03
F01E03
F81E07
781E07
7C1E07
3C1E0E
1E1E1C
0F0038
020010
ENDCHAR
STARTCHAR 2475
ENCODING 10600
SWIDTH 2700 0
DWIDTH 27 0
BBX 25 19 0 -2
BITMAP
08001000
1E003C00
3C3C1C00
38FF1E00
71FF8F00
71C38F00
60838780
60078780
600F8780
E01F0780
603C0780
60780780
70F00F00
71FFCF00
39FFDF00
3DFFDE00
1E003C00
0F007800
04003000
ENDCHAR
STARTCHAR 2476
ENCODING 10601
SWIDTH 2700 0
DWIDTH 27 0
BBX 24 19 -1 -2
BITMAP
040008
0F001C
1C000E
3C1F8F
787FC7
707FE7
F031E3
F001C3
F00FC3
F00FC3
F00FE3
F000E3
F860E7
78F1E7
7C7FEF
3C3FCF
1E1F1E
0F003C
020018
ENDCHAR
STARTCHAR 2477
ENCODING 10602
SWIDTH 2700 0
DWIDTH 27 0
BBX 24 19 -1 -2
BITMAP
04001C
0E001E
1C078F
3C0F87
781F87
783F87
F07F83
F0F783
F1E783
F1C783
F3FFF3
F3FFF3
7BFFF7
780787
7C078F
3C078F
1E001E
0F003C
020010
ENDCHAR
STARTCHAR 2478
ENCODING 10603
SWIDTH 2700 0
DWIDTH 27 0
BBX 24 19 -1 -2
BITMAP
040008
0F001E
1C000E
3C7FCF
787FC7
787FC7
F07003
F07F03
F07FC3
F07FE3
F061E3
F000E3
7820E7
78F1E7
7CFFEF
3C7FCF
1E1F1E
0F003C
020018
ENDCHAR
STARTCHAR 2479
ENCODING 10604
SWIDTH 2700 0
DWIDTH 27 0
BBX 23 19 1 -2
BITMAP
100020
3C0070
380038
700638
E00F1C
E01F1C
E07C0C
C0F80E
C0FE0E
C1FF0E
C1FF8E
E3878C
E3879C
E18F9C
71FF38
78FF38
3C7C70
1E00E0
080040
ENDCHAR
STARTCHAR 247A
ENCODING 10605
SWIDTH 2700 0
DWIDTH 27 0
BBX 24 19 -1 -2
BITMAP
040008
0F001C
1C000E
3CFFEF
78FFE7
70FFE7
F001E3
F001C3
F003C3
F003C3
F00783
F00783
780787
780787
7C0F0F
3C0F0F
1E0F1E
0F003C
020018
ENDCHAR
STARTCHAR 247B
ENCODING 10606
SWIDTH 2700 0
DWIDTH 27 0
BBX 24 19 -1 -2
BITMAP
040008
0E001C
1C000E
3C0E0E
783F87
787FC7
F071C3
F07BC3
F07FC3
F03F83
F07FC3
F0F1E3
78E0E7
78F1E7
7C7FC7
3C7F8E
1E1F1C
0F0038
020010
ENDCHAR
STARTCHAR 247C
ENCODING 10607
SWIDTH 2700 0
DWIDTH 27 0
BBX 25 19 0 -2
BITMAP
08001000
1E003800
3C001C00
387E1E00
70FF0F00
70FF8F00
61E38780
61E38780
60FF8780
E0FF8780
603F8780
60038780
70E38F00
70FF8F00
387F9F00
3C3F1E00
1E003C00
0F007800
04003000
ENDCHAR
STARTCHAR 247D
ENCODING 10608
SWIDTH 2700 0
DWIDTH 27 0
BBX 24 19 -1 -2
BITMAP
040008
0E001C
1DE00E
3DE1EE
7FE3FF
7FE7FF
F5E7BF
F1EF1F
F1EF1F
F1EF1F
F1EF1F
F1EF1F
F9EF1F
79E7BF
7DE7FF
3DE3FE
1E00FC
0F0038
020010
ENDCHAR
STARTCHAR 247E
ENCODING 10609
SWIDTH 2700 0
DWIDTH 27 0
BBX 24 19 -1 -2
BITMAP
040008
0F001E
1C79EE
3C79EF
79FFE7
79FFE7
F17DE3
F079E3
F079E3
F079E3
F079E3
F079E3
7879E7
7879E7
3C79EF
3C79EF
1E001E
0F003C
020018
ENDCHAR
STARTCHAR 247F
ENCODING 10610
SWIDTH 2700 0
DWIDTH 27 0
BBX 24 19 -1 -2
BITMAP
040008
0F001E
1DE30E
3FEFEF
7FFFE7
7FFCF7
F5E873
F1E0F3
F1E1E3
F1E3E3
F1E7C3
F1EF03
79EF07
79FFF7
3DFFFF
3DFFFF
1E001E
0F003C
020018
ENDCHAR
STARTCHAR 2480
ENCODING 10611
SWIDTH 2700 0
DWIDTH 27 0
BBX 24 19 -1 -2
BITMAP
040008
0E001C
1DE38E
3FEFEF
7FFFF7
7FFC77
F5E073
F1E0F3
F1E3E3
F1E3F3
F1E0F3
F1E03B
79E83F
79FEF7
7DFFFF
3DEFEF
1E001E
0F003C
020018
ENDCHAR
STARTCHAR 2481
ENCODING 10612
SWIDTH 2700 0
DWIDTH 27 0
BBX 24 19 -1 -2
BITMAP
04001C
0F001E
1DE1EF
3FE3EF
7FE3E7
7FE7E3
F5E7E3
F1EFE3
F1EFE3
F1FDE3
F1FFFB
F1FFFB
F9FFFF
79E1E7
7DE1EF
3DE1EF
1E001E
0F003C
020018
ENDCHAR
STARTCHAR 2482
ENCODING 10613
SWIDTH 2700 0
DWIDTH 27 0
BBX 24 19 -1 -2
BITMAP
040008
0F001E
1C000E
3DFFFF
7BFFF7
7FFFF7
F7FC03
F1FFC3
F1FFF3
F1FFF3
F1E07B
F1E03B
79E03F
79FC77
3DFFFF
3DEFEF
1E07DE
0F003C
020018
ENDCHAR
STARTCHAR 00B9
ENCODING 10614
SWIDTH 2700 0
DWIDTH 27 0
BBX 6 12 9 6
BITMAP
3C
7C
FC
FC
BC
3C
3C
3C
3C
3C
3C
3C
ENDCHAR
STARTCHAR 00B2
ENCODING 10615
SWIDTH 2700 0
DWIDTH 27 0
BBX 11 12 7 6
BITMAP
1E00
7F80
FFC0
63C0
43C0
0780
0F00
1E00
3C00
7800
FFE0
FFE0
ENDCHAR
STARTCHAR 00B3
ENCODING 10616
SWIDTH 2700 0
DWIDTH 27 0
BBX 11 13 7 5
BITMAP
1F00
7F80
FFC0
23C0
03C0
1FC0
1FC0
1FE0
21E0
71E0
7FE0
7F80
1E00
ENDCHAR
STARTCHAR 2074
ENCODING 10617
SWIDTH 2700 0
DWIDTH 27 0
BBX 13 12 6 5
BITMAP
03C0
07C0
0FC0
1FC0
3FC0
7FC0
73C0
FFF8
FFF8
FFF8
03C0
03C0
ENDCHAR
STARTCHAR 207F
ENCODING 10618
SWIDTH 2700 0
DWIDTH 27 0
BBX 11 10 7 6
BITMAP
F300
FFC0
FFE0
F1E0
F1E0
F1E0
F1E0
F1E0
F1E0
F1E0
ENDCHAR
STARTCHAR 2081
ENCODING 10619
SWIDTH 2700 0
DWIDTH 27 0
BBX 6 11 8 -4
BITMAP
3C
FC
FC
FC
3C
3C
3C
3C
3C
3C
3C
ENDCHAR
STARTCHAR 2082
ENCODING 10620
SWIDTH 2700 0
DWIDTH 27 0
BBX 11 12 7 -4
BITMAP
3F00
7F80
F3C0
63C0
0380
0780
1F00
3C00
7800
FFE0
FFE0
FFE0
ENDCHAR
STARTCHAR 2083
ENCODING 10621
SWIDTH 2700 0
DWIDTH 27 0
BBX 10 12 8 -3
BITMAP
1E00
7F80
7F80
6380
0780
1F80
1F80
03C0
21C0
F3C0
7F80
3F00
ENDCHAR
STARTCHAR 2084
ENCODING 10622
SWIDTH 2700 0
DWIDTH 27 0
BBX 13 12 6 -4
BITMAP
03C0
07C0
0FC0
1FC0
3FC0
7BC0
FFF8
FFF8
FFF8
03C0
03C0
03C0
ENDCHAR
STARTCHAR 3041
ENCODING 10785
SWIDTH 2700 0
DWIDTH 27 0
BBX 14 13 5 -1
BITMAP
0E20
1FC0
7FC0
7EE0
0FE0
1FF0
3FF8
7FDC
EFDC
EFBC
FFF8
7F70
0400
ENDCHAR
STARTCHAR 3042
ENCODING 10786
SWIDTH 2700 0
DWIDTH 27 0
BBX 20 18 2 -1
BITMAP
03C000
038000
23BE00
3FFE00
3FFE00
3FF000
038700
03FF00
0FFFC0
1F8FE0
3F9EF0
7BBC70
73FC70
F3F8F0
F7E1F0
7FE7E0
3FE380
008000
ENDCHAR
STARTCHAR 3043
ENCODING 10787
SWIDTH 2700 0
DWIDTH 27 0
BBX 15 13 6 -1
BITMAP
F000
F000
F000
F000
F010
F078
F03C
F03C
F01E
FF9E
7F8C
3F00
0800
ENDCHAR
STARTCHAR 3044
ENCODING 10788
SWIDTH 2700 0
DWIDTH 27 0
BBX 19 17 3 0
BITMAP
F00000
F00000
F00000
F00000
F00000
F01800
F03C00
F03E00
F01F00
F00F80
F007C0
F003C0
F823E0
7C71E0
7FF180
3FF000
1FC000
ENDCHAR
STARTCHAR 3045
ENCODING 10789
SWIDTH 2700 0
DWIDTH 27 0
BBX 10 15 7 -3
BITMAP
1000
3F80
3F80
0F80
0000
3F80
FFC0
FFC0
C1C0
01C0
03C0
0780
1F80
0F00
0400
ENDCHAR
STARTCHAR 3046
ENCODING 10790
SWIDTH 2700 0
DWIDTH 27 0
BBX 15 20 5 -3
BITMAP
1000
1C00
3F80
1FFC
07F8
0078
07E0
7FF8
FFFC
FC7C
E03E
001E
001E
003E
007C
00F8
03F0
03E0
01C0
0100
ENDCHAR
STARTCHAR 3047
ENCODING 10791
SWIDTH 2700 0
DWIDTH 27 0
BBX 14 15 5 -1
BITMAP
0400
0FE0
0FE0
03E0
0000
7FE0
7FE0
7FC0
0780
0F80
1FC0
7DC0
F9FC
F1FC
40FC
ENDCHAR
STARTCHAR 3048
ENCODING 10792
SWIDTH 2700 0
DWIDTH 27 0
BBX 18 18 3 -1
BITMAP
020000
07C000
07FE00
03FC00
003C00
000000
3FFC00
3FFC00
3FFC00
007800
01F000
03E000
07F000
1FF800
3F7800
FC3FC0
783FC0
301FC0
ENDCHAR
STARTCHAR 3049
ENCODING 10793
SWIDTH 2700 0
DWIDTH 27 0
BBX 16 13 4 -1
BITMAP
0F00
0F3C
0FFE
7FEF
3F04
0FF8
1FFC
7FFE
FF0E
E70E
FF7E
7E7E
1030
ENDCHAR
STARTCHAR 304A
ENCODING 10794
SWIDTH 2700 0
DWIDTH 27 0
BBX 20 18 1 -1
BITMAP
038000
03C000
03C800
1FF9C0
3FFBE0
3FE0F0
03C070
03FFA0
07FFC0
1FFFE0
3FC0F0
7FC070
F3C070
F3C070
F38CF0
7F8FF0
7F0FE0
1E0380
ENDCHAR
STARTCHAR 304B
ENCODING 10795
SWIDTH 2700 0
DWIDTH 27 0
BBX 18 13 3 -1
BITMAP
0F0000
0E0000
0E0000
7FF300
7FF780
7FF380
1EF3C0
1CF1C0
3CF180
38F000
79F000
F3E000
23C000
ENDCHAR
STARTCHAR 304C
ENCODING 10796
SWIDTH 2700 0
DWIDTH 27 0
BBX 22 19 1 -1
BITMAP
000010
0F0078
0F01FC
0F01FC
0F00E8
7FFB60
7FFF80
7FFB80
0F79C0
0F79C0
0F79E0
1E7880
1E7800
3C7800
3C7800
78F000
F7F000
63E000
038000
ENDCHAR
STARTCHAR 304D
ENCODING 10797
SWIDTH 2700 0
DWIDTH 27 0
BBX 17 20 4 -2
BITMAP
030000
070800
077C00
07FC00
7FF000
7FC600
7FDF00
01FF00
FFFC00
FFF000
FFF800
07FE00
1FFC00
3FFC00
780000
700100
780780
7FFF80
3FFF00
0FF800
ENDCHAR
STARTCHAR 304E
ENCODING 10798
SWIDTH 2700 0
DWIDTH 27 0
BBX 22 21 1 -2
BITMAP
000010
000078
0700BC
071DDC
07FDE8
7FF8E0
7FE240
7FCF00
01FF00
FFFC00
FFF000
FFF800
07FC00
1FFC00
7FFC00
780000
700100
700F80
7FFF80
3FFF00
0FF800
ENDCHAR
STARTCHAR 304F
ENCODING 10799
SWIDTH 2700 0
DWIDTH 27 0
BBX 11 18 7 -1
BITMAP
0080
01E0
03C0
0780
0F00
3E00
7C00
F000
E000
F000
7800
3C00
1E00
0F00
0780
03C0
01C0
0180
ENDCHAR
STARTCHAR 3050
ENCODING 10800
SWIDTH 2700 0
DWIDTH 27 0
BBX 19 18 3 -1
BITMAP
008000
01E180
03E3C0
078DE0
0F1EE0
3E0E80
7C0600
F80400
F00000
F80000
7C0000
3E0000
1F0000
0F0000
078000
03C000
01C000
008000
ENDCHAR
STARTCHAR 3051
ENCODING 10801
SWIDTH 2700 0
DWIDTH 27 0
BBX 19 18 3 -1
BITMAP
701E00
701E00
701EC0
701FE0
F7FFE0
F7FF00
F7FC00
F01E00
F01E00
701C00
701C00
701C00
703C00
703C00
79F800
39F000
39E000
300000
ENDCHAR
STARTCHAR 3052
ENCODING 10802
SWIDTH 2700 0
DWIDTH 27 0
BBX 23 19 0 -1
BITMAP
000010
0078B8
7079DC
F078FE
F079FC
E07F60
E7FF80
E7FE00
E7F800
E07800
E07800
F07800
707800
70F000
70F000
77E000
7BC000
3B8000
320000
ENDCHAR
STARTCHAR 3053
ENCODING 10803
SWIDTH 2700 0
DWIDTH 27 0
BBX 18 17 3 -1
BITMAP
0FFF00
0FFF00
0FFF00
000000
000000
000000
000000
000000
000000
C00000
F00000
E00000
F00000
7E00C0
7FFFC0
1FFFC0
01FF80
ENDCHAR
STARTCHAR 3054
ENCODING 10804
SWIDTH 2700 0
DWIDTH 27 0
BBX 22 20 1 -1
BITMAP
000030
000078
0001BC
0003DC
0001D8
1FFEE0
1FFEC0
1FFE00
000000
000000
000000
000000
000000
C00000
E00000
E00000
F000C0
FFFFC0
7FFFC0
1FFF80
ENDCHAR
STARTCHAR 3055
ENCODING 10805
SWIDTH 2700 0
DWIDTH 27 0
BBX 17 18 4 -1
BITMAP
010000
078E00
03BE00
03FE00
FFF000
FFE000
FCF000
007800
07FE00
1FFF00
3FFE00
7C0600
780000
780000
780700
3FFF80
1FFF00
07F800
ENDCHAR
STARTCHAR 3056
ENCODING 10806
SWIDTH 2700 0
DWIDTH 27 0
BBX 21 20 1 -1
BITMAP
000060
0000F0
000378
078BB8
079BD8
03FDF0
0FF8C0
FFE000
FFF000
70F800
01FE00
0FFF00
3FFF00
3C0600
780000
780000
780300
3E3F80
1FFF80
0FFC00
ENDCHAR
STARTCHAR 3057
ENCODING 10807
SWIDTH 2700 0
DWIDTH 27 0
BBX 13 17 7 0
BITMAP
F000
F000
F000
F000
F000
F000
F000
F000
F000
F000
F000
F020
F078
F878
7FF0
3FF0
1FC0
ENDCHAR
STARTCHAR 3058
ENCODING 10808
SWIDTH 2700 0
DWIDTH 27 0
BBX 14 19 7 -1
BITMAP
0010
F078
F03C
F39C
F1C8
F1E0
F0C0
F000
F000
F000
F000
F000
F020
F030
F878
7CF8
7FF0
3FE0
0780
ENDCHAR
STARTCHAR 3059
ENCODING 10809
SWIDTH 2700 0
DWIDTH 27 0
BBX 16 20 5 -3
BITMAP
01E0
01E0
01E0
FFFF
FFFF
FFFF
01E0
01E0
3FE0
7FE0
71E0
71F0
79F0
7FF0
3FF0
1EE0
03E0
1FC0
0F80
0C00
ENDCHAR
STARTCHAR 305A
ENCODING 10810
SWIDTH 2700 0
DWIDTH 27 0
BBX 21 21 3 -3
BITMAP
000040
01E0E0
01E370
01E3B8
FFFFB0
FFFDC0
FFFC80
01E000
01E000
3FE000
7FE000
71E000
71F000
73F000
7FF000
3FF000
1FE000
03E000
1FC000
1F8000
0C0000
ENDCHAR
STARTCHAR 305B
ENCODING 10811
SWIDTH 2700 0
DWIDTH 27 0
BBX 20 18 1 -1
BITMAP
0F0700
0F0F00
0F0F00
0F0F00
FFFFF0
FFFFF0
FFFFF0
0F0F00
0F0F00
0F0F00
0F7E00
0F7E00
0F7800
0F0000
0F8060
07FFE0
07FFE0
00FFC0
ENDCHAR
STARTCHAR 305C
ENCODING 10812
SWIDTH 2700 0
DWIDTH 27 0
BBX 23 20 0 -1
BITMAP
000008
00003C
00005E
0F07EE
0F0F70
0F0F30
0F0F00
FFFFE0
FFFFE0
FFFFE0
0F0F00
0F0F00
0F1F00
0F7E00
0F7C00
0F3000
0F8060
0FFFE0
07FFE0
00FFC0
ENDCHAR
STARTCHAR 305D
ENCODING 10813
SWIDTH 2700 0
DWIDTH 27 0
BBX 17 18 4 -1
BITMAP
200000
780E00
7C1E00
1E3C00
0C7800
00F380
0FFF80
FFFF80
FFF800
E78000
070000
0F0000
0F0000
0F0000
0F8000
07FF80
03FF00
007F00
ENDCHAR
STARTCHAR 305E
ENCODING 10814
SWIDTH 2700 0
DWIDTH 27 0
BBX 22 19 1 -1
BITMAP
000010
300838
781FDC
3C3CFC
1E78F8
0CF060
01EF00
3FFF00
FFFF00
FFF000
878000
0F0000
0E0000
1E0000
1E0000
0F8000
0FFF00
07FF00
00FE00
ENDCHAR
STARTCHAR 305F
ENCODING 10815
SWIDTH 2700 0
DWIDTH 27 0
BBX 21 18 2 -1
BITMAP
070000
070000
070000
0FF800
7FF800
7FF800
7F1FF0
0E1FF0
0E1FF0
0E0000
1E0000
1E0000
3CF000
3CF808
787FF8
F83FF8
701FF8
200000
ENDCHAR
STARTCHAR 3060
ENCODING 10816
SWIDTH 2700 0
DWIDTH 27 0
BBX 21 19 2 -1
BITMAP
000080
0701C0
0706E0
070770
0F73C0
7FF380
7FF000
7F9FF0
0F1FF0
0E1FF0
0E0000
1E0000
1E0000
3CF000
3CF808
787FF8
F83FF8
701FF8
200000
ENDCHAR
STARTCHAR 3061
ENCODING 10817
SWIDTH 2700 0
DWIDTH 27 0
BBX 16 17 4 0
BITMAP
0F00
0F00
0F70
FFF0
FFF0
FF00
0F00
0FF8
1FFE
1FFF
3E0F
180F
001F
007E
07FC
03F8
03C0
ENDCHAR
STARTCHAR 3062
ENCODING 10818
SWIDTH 2700 0
DWIDTH 27 0
BBX 20 18 2 0
BITMAP
000080
0F01C0
0F06E0
0F7770
FFF3C0
FFF180
FF0000
0F0000
0FF800
1FFE00
3FFE00
3E0F00
180F00
001F00
007E00
07FC00
03F800
03C000
ENDCHAR
STARTCHAR 3063
ENCODING 10819
SWIDTH 2700 0
DWIDTH 27 0
BBX 15 12 6 0
BITMAP
07F0
3FF8
FFFC
F83E
C01E
001E
001E
003C
00FC
07F8
07E0
0700
ENDCHAR
STARTCHAR 3064
ENCODING 10820
SWIDTH 2700 0
DWIDTH 27 0
BBX 19 15 2 0
BITMAP
00FC00
07FF80
1FFFC0
FE07C0
7801E0
6001E0
0001E0
0001E0
0001C0
0003C0
000780
001F00
00FE00
007C00
007000
ENDCHAR
STARTCHAR 3065
ENCODING 10821
SWIDTH 2700 0
DWIDTH 27 0
BBX 23 18 1 0
BITMAP
000018
00003C
0000DC
01FCEE
0FFF70
3FFFB0
FE07C0
F803C0
E003C0
0003C0
0003C0
0003C0
000780
000F80
003F00
01FE00
00F800
006000
ENDCHAR
STARTCHAR 3066
ENCODING 10822
SWIDTH 2700 0
DWIDTH 27 0
BBX 16 16 5 0
BITMAP
003F
1FFF
FFFF
FFF0
67C0
0F00
0E00
1E00
1E00
1E00
1E00
1F00
0FC0
0FFE
03FE
007E
ENDCHAR
STARTCHAR 3067
ENCODING 10823
SWIDTH 2700 0
DWIDTH 27 0
BBX 23 17 1 0
BITMAP
000010
000038
007FDC
1FFEEE
FFFE78
FFC060
0F0000
1E0000
1E0000
3C0000
3C0000
3C0000
1E0000
1F8000
0FFC00
03FC00
007C00
ENDCHAR
STARTCHAR 3068
ENCODING 10824
SWIDTH 2700 0
DWIDTH 27 0
BBX 16 17 3 0
BITMAP
0E00
0F00
0F00
0703
073F
07FF
07FC
0FC0
3F00
7C00
7800
F000
F000
F803
7FFF
3FFF
0FFC
ENDCHAR
STARTCHAR 3069
ENCODING 10825
SWIDTH 2700 0
DWIDTH 27 0
BBX 22 18 2 0
BITMAP
000030
020078
0E01B8
0E01DC
0F02E0
0F1E60
07FF00
07FE00
0FE000
1F8000
3E0000
780000
F00000
F00000
F00100
7FBF00
7FFF00
1FFF00
ENDCHAR
STARTCHAR 306A
ENCODING 10826
SWIDTH 2700 0
DWIDTH 27 0
BBX 21 18 1 -1
BITMAP
078180
0783C0
0791F0
7FF8F0
7FF820
7FE3C0
0783C0
0783C0
0783C0
0F03C0
0F3F80
0FFF80
1FFFC0
3DC7F0
7DEFF8
F8FF38
707C18
200000
ENDCHAR
STARTCHAR 306B
ENCODING 10827
SWIDTH 2700 0
DWIDTH 27 0
BBX 19 18 3 -1
BITMAP
700000
780000
780000
F0FFC0
F0FFC0
F0FFC0
F00000
F00000
F00000
F00000
F70000
F78000
F3C0E0
F3FFE0
79FFE0
787F80
780000
600000
ENDCHAR
STARTCHAR 306C
ENCODING 10828
SWIDTH 2700 0
DWIDTH 27 0
BBX 20 17 2 0
BITMAP
007000
007000
307000
70FC00
7FFF00
3FFF80
3FE3C0
3EE1C0
7FE1E0
7FC1E0
FFC1E0
E7CFE0
E7DFE0
E7FFE0
FF33F0
7E3FF0
381E20
ENDCHAR
STARTCHAR 306D
ENCODING 10829
SWIDTH 2700 0
DWIDTH 27 0
BBX 21 18 2 -1
BITMAP
0F0000
0F0000
0F0000
1FBF00
7FFF80
7FFFC0
6FE3C0
0F81C0
1F01C0
1F01C0
3F1FC0
7F7FC0
FF7FE0
6F73F0
2F73F8
0F7F20
0F3E00
0F0000
ENDCHAR
STARTCHAR 306E
ENCODING 10830
SWIDTH 2700 0
DWIDTH 27 0
BBX 19 16 2 -1
BITMAP
01FC00
0FFF00
1FFF80
3F7FC0
7C73E0
F8F1E0
F0F0E0
E0E0E0
E1E0E0
E3C0E0
FF81E0
7F83E0
3F0FC0
0C1F80
001F00
000800
ENDCHAR
STARTCHAR 306F
ENCODING 10831
SWIDTH 2700 0
DWIDTH 27 0
BBX 21 18 2 -1
BITMAP
700000
780F00
F00F00
F00770
F1FFF0
F1FFF0
F1FF80
F00700
F00700
F00700
F00700
F1FF80
F3FFC0
F38FF0
FB9EF8
7BFE70
7BFC20
60F800
ENDCHAR
STARTCHAR 3070
ENCODING 10832
SWIDTH 2700 0
DWIDTH 27 0
BBX 22 20 1 -1
BITMAP
000010
000038
0000DC
783CFC
783C6C
F01DF0
F3FFA0
F3FFC0
F3FF00
F01C00
F01C00
F01C00
F01C00
F1FE00
F3FF00
F73FC0
FF7BE0
7FF9C0
7FF080
61E000
ENDCHAR
STARTCHAR 3071
ENCODING 10833
SWIDTH 2700 0
DWIDTH 27 0
BBX 22 19 1 -1
BITMAP
000078
00006C
781E6C
781E78
F01E40
F3FFC0
F3FFC0
F3FFC0
F00E00
F01E00
F01E00
F05E00
F3FF00
F7FFC0
F71FE0
FF3FF0
7FFCE0
7FF840
61E000
ENDCHAR
STARTCHAR 3072
ENCODING 10834
SWIDTH 2700 0
DWIDTH 27 0
BBX 20 16 3 -1
BITMAP
060400
1F1E00
FF1F00
FE1F00
7C0F80
3C0FC0
780FF0
780EC0
781E00
701E00
781E00
783E00
7EFC00
3FF800
1FF000
038000
ENDCHAR
STARTCHAR 3073
ENCODING 10835
SWIDTH 2700 0
DWIDTH 27 0
BBX 22 18 1 0
BITMAP
000010
000078
0001FC
0E1DFC
3F1EE8
FE1F60
FE1F40
7C1F80
781FE0
781FE0
781EC0
701E00
F01E00
701E00
783C00
7FFC00
3FF800
1FE000
ENDCHAR
STARTCHAR 3074
ENCODING 10836
SWIDTH 2700 0
DWIDTH 27 0
BBX 21 18 2 0
BITMAP
000070
0000F8
000198
0E1EF8
3F1EF0
FF1F00
7E0F80
7C0FC0
3C0FE0
780FE0
780EC0
781E00
781E00
781E00
7C3C00
3FFC00
3FF800
0FE000
ENDCHAR
STARTCHAR 3075
ENCODING 10837
SWIDTH 2700 0
DWIDTH 27 0
BBX 19 18 3 -1
BITMAP
038000
07F000
07F000
006000
000000
070000
070000
078300
67C380
E3F1C0
E0F9E0
7C3CE0
7C1C00
3C1C00
003C00
03F800
03F000
03E000
ENDCHAR
STARTCHAR 3076
ENCODING 10838
SWIDTH 2700 0
DWIDTH 27 0
BBX 22 19 1 -1
BITMAP
000020
020070
03F3B8
03F9DC
0070F8
0010E0
038000
038000
038180
23E3C0
F1F9E0
707CF0
7E1E60
3E1E40
1E1E00
001E00
01FC00
01F800
01F000
ENDCHAR
STARTCHAR 3077
ENCODING 10839
SWIDTH 2700 0
DWIDTH 27 0
BBX 20 19 2 -1
BITMAP
0000E0
0001F0
03E190
07F1F0
00F0E0
000000
070000
070000
078380
23C3C0
E3F1C0
F0FCE0
7C3CE0
3E1C40
1C1C00
003C00
03FC00
03F800
03E000
ENDCHAR
STARTCHAR 3078
ENCODING 10840
SWIDTH 2700 0
DWIDTH 27 0
BBX 21 13 2 0
BITMAP
018000
03E000
0FF000
1F7800
3E3C00
7C1E00
F00F00
600780
0003C0
0003F0
0000F8
000070
000020
ENDCHAR
STARTCHAR 3079
ENCODING 10841
SWIDTH 2700 0
DWIDTH 27 0
BBX 21 16 2 0
BITMAP
000080
0001C0
0002E0
018E70
03E760
0FF380
1F7B00
3E3C00
7C1E00
F00F00
600780
0003C0
0003F0
0000F8
000070
000020
ENDCHAR
STARTCHAR 307A
ENCODING 10842
SWIDTH 2700 0
DWIDTH 27 0
BBX 21 16 2 0
BITMAP
000080
0003E0
000360
018360
03E3E0
0FF080
1F7800
3E3C00
7C1E00
F00F00
600780
0003C0
0003F0
0000F8
000070
000020
ENDCHAR
STARTCHAR 307B
ENCODING 10843
SWIDTH 2700 0
DWIDTH 27 0
BBX 21 18 2 -1
BITMAP
7000E0
79FFE0
F1FFE0
F1FE00
F01E10
F1FFF0
F1FFF8
F1FFE0
F00F00
F00F00
F0FF00
F1FFC0
F3FFE0
F39FF0
739E78
79FC20
79F800
600000
ENDCHAR
STARTCHAR 307C
ENCODING 10844
SWIDTH 2700 0
DWIDTH 27 0
BBX 24 19 0 -1
BITMAP
000008
70039C
7BFF9E
F3FFEF
F3FC76
F03C38
F03CB8
F3FFD0
F3FFC0
F3FF00
F03C00
F03C00
F1FE00
F7FF80
F73FC0
773FE0
7FF9E0
7FF840
61E000
ENDCHAR
STARTCHAR 307D
ENCODING 10845
SWIDTH 2700 0
DWIDTH 27 0
BBX 23 19 0 -1
BITMAP
00001C
7003BE
7BFFB2
F3FFBE
F3FC1C
F03C00
F03C80
F3FFC0
F3FFC0
F3FE00
F03C00
F03C00
F3FE00
F7FF80
F73FC0
7F3FE0
7FF8E0
7FF040
61E000
ENDCHAR
STARTCHAR 307E
ENCODING 10846
SWIDTH 2700 0
DWIDTH 27 0
BBX 16 19 5 -2
BITMAP
01C0
01CC
01FC
7FFE
7FE0
7BC6
03FE
7FFE
7FF8
7FC0
03C0
3FC0
7FF8
FFFE
E3FF
C78E
FF84
7F00
1C00
ENDCHAR
STARTCHAR 307F
ENCODING 10847
SWIDTH 2700 0
DWIDTH 27 0
BBX 21 18 1 -2
BITMAP
07FC00
07FF00
07FE00
003C00
003C00
0079E0
0FF1E0
3FFFE0
7FFFC0
FBEFE0
F7C3F0
FF87F8
FF0FF0
7E1F00
383E00
007C00
003800
002000
ENDCHAR
STARTCHAR 3080
ENCODING 10848
SWIDTH 2700 0
DWIDTH 27 0
BBX 20 18 2 -1
BITMAP
03C000
03C000
03F800
7FFC80
7FFBC0
7FC1E0
03C0F0
3FC070
7FC060
73E000
E3E000
73C000
7FC100
3F01C0
0F03C0
0FFFC0
07FF80
03FE00
ENDCHAR
STARTCHAR 3081
ENCODING 10849
SWIDTH 2700 0
DWIDTH 27 0
BBX 20 18 1 -1
BITMAP
007800
007800
187800
387C00
3BFF80
3FFFC0
3FF7E0
1F71E0
3E60F0
3FE0F0
7FE0F0
73E0F0
71C0F0
F3F1E0
7FF3E0
7F7FC0
3E0780
080600
ENDCHAR
STARTCHAR 3082
ENCODING 10850
SWIDTH 2700 0
DWIDTH 27 0
BBX 16 18 3 -1
BITMAP
0180
03C0
03C0
33F0
3FF0
7FF0
0F00
0E00
4E00
FFE0
FFE0
3FEE
1C07
1C07
1E0F
1FFF
0FFE
07F8
ENDCHAR
STARTCHAR 3083
ENCODING 10851
SWIDTH 2700 0
DWIDTH 27 0
BBX 15 13 5 0
BITMAP
0700
2700
F7F8
7FFC
3FFC
3F1E
7C1E
FEFC
6EF8
0FF0
0700
0700
0600
ENDCHAR
STARTCHAR 3084
ENCODING 10852
SWIDTH 2700 0
DWIDTH 27 0
BBX 18 19 3 -1
BITMAP
01C000
01C000
21C000
61CE00
F07F80
71FFC0
7BF3C0
3FC1C0
3F01C0
7E01C0
FF01C0
E707C0
478F80
03CF00
03C000
01C000
01E000
00E000
008000
ENDCHAR
STARTCHAR 3085
ENCODING 10853
SWIDTH 2700 0
DWIDTH 27 0
BBX 16 14 5 -2
BITMAP
01E0
01E0
73F8
7FFE
FFFE
FFEF
F9E7
F3FF
77FE
77FC
73F0
47C0
0780
0300
ENDCHAR
STARTCHAR 3086
ENCODING 10854
SWIDTH 2700 0
DWIDTH 27 0
BBX 17 19 4 -2
BITMAP
00F000
00F000
00F000
E3FC00
E7FE00
FFFF00
FEF780
FCF780
F8F780
F0F780
F6F780
FFFF00
FFFF00
F3FE00
71F800
43E000
0FC000
078000
060000
ENDCHAR
STARTCHAR 3087
ENCODING 10855
SWIDTH 2700 0
DWIDTH 27 0
BBX 14 13 4 -1
BITMAP
03C0
03C0
03FC
03FC
03F8
03C0
3FC0
7FE0
FFF8
F3FC
FF9C
7F08
3C00
ENDCHAR
STARTCHAR 3088
ENCODING 10856
SWIDTH 2700 0
DWIDTH 27 0
BBX 18 17 3 0
BITMAP
00F000
00F000
00F000
00F380
00FFC0
00FF80
00F000
00F000
0FF000
3FF000
7FFC00
FFFF00
F0FF80
F1E7C0
FFC3C0
7F8180
3F0000
ENDCHAR
STARTCHAR 3089
ENCODING 10857
SWIDTH 2700 0
DWIDTH 27 0
BBX 17 18 5 -1
BITMAP
180000
1F0000
1FC000
07C000
F18000
F00000
F0F000
F7FC00
FFFE00
FF0F00
FC0700
F80780
700780
000F00
003F00
07FE00
07FC00
03C000
ENDCHAR
STARTCHAR 308A
ENCODING 10858
SWIDTH 2700 0
DWIDTH 27 0
BBX 12 17 7 0
BITMAP
00F0
F0F0
F0F0
F0F0
F0F0
F0F0
F0F0
F0F0
F0F0
F0F0
F0F0
01E0
01E0
07C0
1FC0
1F00
1C00
ENDCHAR
STARTCHAR 308B
ENCODING 10859
SWIDTH 2700 0
DWIDTH 27 0
BBX 18 19 3 -2
BITMAP
3FF800
3FF800
3FF800
01F000
03E000
07C000
0FF800
1FFE00
3FFF00
7C0F80
F80780
7003C0
23E3C0
07F3C0
073BC0
073F80
07FF80
03FF00
01FC00
ENDCHAR
STARTCHAR 308C
ENCODING 10860
SWIDTH 2700 0
DWIDTH 27 0
BBX 20 18 3 -1
BITMAP
0F0000
0F0000
0F8000
FFC000
7F9C00
7F7E00
0FFF00
0FFF00
0FCF00
1F8E00
3F1E00
7F1E00
FF1E70
6F1EF0
4F1FE0
0F0FE0
0F0FC0
000200
ENDCHAR
STARTCHAR 308D
ENCODING 10861
SWIDTH 2700 0
DWIDTH 27 0
BBX 16 18 5 -1
BITMAP
FFC0
FFE0
FFE0
03C0
0780
0F00
1FFC
3FFE
7FFF
FC0F
F00F
6007
000F
000F
003E
1FFC
1FF8
0FC0
ENDCHAR
STARTCHAR 308E
ENCODING 10862
SWIDTH 2700 0
DWIDTH 27 0
BBX 15 13 6 -1
BITMAP
1E00
1E00
FF00
FF00
FFF8
1FFC
1FFE
1F8E
7E1E
FE1E
FEFC
5EF8
1E60
ENDCHAR
STARTCHAR 308F
ENCODING 10863
SWIDTH 2700 0
DWIDTH 27 0
BBX 20 18 2 -1
BITMAP
078000
078000
7F8000
7FE000
7FE200
07DFC0
07FFE0
07FFE0
07F9F0
0FE0F0
1FC0F0
7F80F0
FF80F0
7781E0
2787E0
079FC0
078F80
078E00
ENDCHAR
STARTCHAR 3090
ENCODING 10864
SWIDTH 2700 0
DWIDTH 27 0
BBX 20 19 2 -2
BITMAP
0FF800
0FFC00
0FFC00
003C00
007800
01FE00
07FF80
1FFFC0
3FE3E0
3DE1F0
79C0F0
F3C070
F7BE70
E7FFF0
EF7FF0
FE71E0
7C7FC0
003F80
001E00
ENDCHAR
STARTCHAR 3091
ENCODING 10865
SWIDTH 2700 0
DWIDTH 27 0
BBX 18 19 3 -2
BITMAP
3FF000
3FF800
3FF000
03E000
07FC00
1FFE00
7E1F00
7B8780
3FC780
1FC780
1CCF80
0FFF00
0FFE00
1FF200
3E0F00
FE3780
FFFB80
EFF1C0
01E100
ENDCHAR
STARTCHAR 3092
ENCODING 10866
SWIDTH 2700 0
DWIDTH 27 0
BBX 16 18 4 -1
BITMAP
03C0
0380
2398
7FF8
7FF8
0F00
1FE0
3FE2
7CFE
F8FF
F3FC
67F0
0FF0
1EF0
1C02
1FFE
1FFE
07FC
ENDCHAR
STARTCHAR 3093
ENCODING 10867
SWIDTH 2700 0
DWIDTH 27 0
BBX 19 18 3 -1
BITMAP
00C000
01E000
01E000
03C000
03C000
038000
078000
070000
0FE000
0FF000
1FF000
1CF000
3CF080
78F1E0
70F1E0
F0FFC0
607F80
003F00
ENDCHAR
STARTCHAR 30A1
ENCODING 11041
SWIDTH 2700 0
DWIDTH 27 0
BBX 16 14 4 -1
BITMAP
1FFF
1FFF
1FFF
000F
001E
003E
0F7C
0F78
0F70
1E00
3E00
FC00
7800
2000
ENDCHAR
STARTCHAR 30A2
ENCODING 11042
SWIDTH 2700 0
DWIDTH 27 0
BBX 17 17 4 -1
BITMAP
FFFF80
FFFF80
FFFF80
000780
000780
000F80
078F00
079F00
07FE00
07FC00
0F3800
0F0000
1F0000
3E0000
FC0000
780000
300000
ENDCHAR
STARTCHAR 30A3
ENCODING 11043
SWIDTH 2700 0
DWIDTH 27 0
BBX 11 12 6 0
BITMAP
0080
01C0
07E0
1FC0
7F80
FF80
7F80
2780
0780
0780
0780
0780
ENDCHAR
STARTCHAR 30A4
ENCODING 11044
SWIDTH 2700 0
DWIDTH 27 0
BBX 15 17 4 0
BITMAP
000C
001E
003E
007C
01F8
07F0
0FE0
3FE0
FFE0
F9E0
61E0
01E0
01E0
01E0
01E0
01E0
01E0
ENDCHAR
STARTCHAR 30A5
ENCODING 11045
SWIDTH 2700 0
DWIDTH 27 0
BBX 14 13 6 -1
BITMAP
0780
0780
FFFC
FFFC
FFFC
F03C
F078
0078
00F0
01F0
07E0
03C0
0100
ENDCHAR
STARTCHAR 30A6
ENCODING 11046
SWIDTH 2700 0
DWIDTH 27 0
BBX 17 18 4 -1
BITMAP
01E000
01E000
01E000
FFFF80
FFFF80
FFFF80
F00780
F00780
F00780
000F80
000F00
000F00
001E00
003E00
007C00
01F800
00F000
00C000
ENDCHAR
STARTCHAR 30A7
ENCODING 11047
SWIDTH 2700 0
DWIDTH 27 0
BBX 16 12 4 -1
BITMAP
7FFE
7FFE
7FFE
03C0
03C0
03C0
03C0
03C0
03C0
FFFF
FFFF
FFFF
ENDCHAR
STARTCHAR 30A8
ENCODING 11048
SWIDTH 2700 0
DWIDTH 27 0
BBX 20 16 2 0
BITMAP
7FFFE0
7FFFE0
7FFFE0
00F000
00F000
00F000
00F000
00F000
00F000
00F000
00F000
00F000
00F000
FFFFF0
FFFFF0
FFFFF0
ENDCHAR
STARTCHAR 30A9
ENCODING 11049
SWIDTH 2700 0
DWIDTH 27 0
BBX 16 13 4 -1
BITMAP
00F0
00F0
3FFF
3FFF
3FFF
00F0
1CF0
3CF0
7CF0
F8F0
F7F0
43E0
0380
ENDCHAR
STARTCHAR 30AA
ENCODING 11050
SWIDTH 2700 0
DWIDTH 27 0
BBX 19 17 3 0
BITMAP
007800
007800
007800
7FFFE0
7FFFE0
7FFFE0
007800
007800
077800
0F7800
0E7800
1E7800
3C7800
7C7800
FBF800
F3F000
61C000
ENDCHAR
STARTCHAR 30AB
ENCODING 11051
SWIDTH 2700 0
DWIDTH 27 0
BBX 16 18 4 -1
BITMAP
0780
0780
0780
7FFF
7FFF
7FFF
078F
078F
078F
078F
0F0F
0F0F
1F0F
3E1F
7DFE
FCFE
78F8
2060
ENDCHAR
STARTCHAR 30AC
ENCODING 11052
SWIDTH 2700 0
DWIDTH 27 0
BBX 22 18 1 -1
BITMAP
078030
0781F8
0783FC
0781DC
7FFFFC
7FFFC0
7FFF00
078F00
078F00
078F00
0F8F00
0F0F00
0F0F00
1E1F00
3EBE00
FCFE00
787C00
206000
ENDCHAR
STARTCHAR 30AD
ENCODING 11053
SWIDTH 2700 0
DWIDTH 27 0
BBX 18 17 3 0
BITMAP
030000
0F0000
0F3C00
07FC00
0FFC00
FFE000
7FC180
7BCFC0
43FFC0
07FE00
3FF000
7FF000
7CF000
60F000
007800
007800
006000
ENDCHAR
STARTCHAR 30AE
ENCODING 11054
SWIDTH 2700 0
DWIDTH 27 0
BBX 20 19 2 -1
BITMAP
0000C0
0005E0
1E1EF0
1E0F70
1EE760
0FE300
7FE000
FF0000
FF8E00
47FE00
07FE00
1FF800
FFC000
FFE000
71E000
01E000
00F000
00F000
00C000
ENDCHAR
STARTCHAR 30AF
ENCODING 11055
SWIDTH 2700 0
DWIDTH 27 0
BBX 18 18 3 -1
BITMAP
010000
03C000
07C000
078000
0FFFC0
1FFF80
3FFF80
7C0780
F80780
300F00
000F00
001F00
003E00
00FC00
03F800
0FF000
0FC000
060000
ENDCHAR
STARTCHAR 30B0
ENCODING 11056
SWIDTH 2700 0
DWIDTH 27 0
BBX 23 19 1 -1
BITMAP
000030
030078
03C3BC
0781DE
0F00EC
1FFEE0
3FFE40
3FFE00
F81E00
F81E00
601E00
001C00
003C00
007C00
00F800
03F000
0FE000
078000
060000
ENDCHAR
STARTCHAR 30B1
ENCODING 11057
SWIDTH 2700 0
DWIDTH 27 0
BBX 19 18 2 -1
BITMAP
030000
03C000
078000
078000
0FFFE0
1FFFE0
1FFFE0
3C1C00
7C1E00
F81C00
301C00
003C00
003C00
007C00
00F800
03F000
01E000
00C000
ENDCHAR
STARTCHAR 30B2
ENCODING 11058
SWIDTH 2700 0
DWIDTH 27 0
BBX 23 19 1 -1
BITMAP
020030
038078
0783BC
0781DE
0F00EC
0FFFE0
1FFF40
3FFF00
7C3800
783800
F03800
707800
007800
007800
00F000
01F000
07E000
03C000
010000
ENDCHAR
STARTCHAR 30B3
ENCODING 11059
SWIDTH 2700 0
DWIDTH 27 0
BBX 17 15 4 0
BITMAP
FFFF80
FFFF80
FFFF80
000780
000780
000780
000780
000780
000780
000780
000780
FFFF80
FFFF80
FFFF80
000780
ENDCHAR
STARTCHAR 30B4
ENCODING 11060
SWIDTH 2700 0
DWIDTH 27 0
BBX 23 19 1 0
BITMAP
000010
000078
0001BC
0001DE
0000EC
FFFF78
FFFF40
FFFF00
000F00
000F00
000F00
000F00
000F00
000F00
000F00
FFFF00
FFFF00
FFFF00
000F00
ENDCHAR
STARTCHAR 30B5
ENCODING 11061
SWIDTH 2700 0
DWIDTH 27 0
BBX 20 17 3 0
BITMAP
0F0F00
0F0F00
0F0F00
0F0F00
FFFFF0
FFFFF0
FFFFF0
0F0F00
0F0F00
0F0F00
0F1E00
001E00
003E00
00FC00
0FF800
07F000
03C000
ENDCHAR
STARTCHAR 30B6
ENCODING 11062
SWIDTH 2700 0
DWIDTH 27 0
BBX 23 20 0 -1
BITMAP
000008
00003C
0F3CDE
0F3CEE
0F3C76
0F3C7C
FFFFB0
FFFF80
FFFF80
0F3C00
0F3C00
0F3C00
0F3C00
007800
007800
00F800
03F000
1FE000
0FC000
0E0000
ENDCHAR
STARTCHAR 30B7
ENCODING 11063
SWIDTH 2700 0
DWIDTH 27 0
BBX 19 17 4 0
BITMAP
100000
780000
3C0000
3E0080
1E01C0
0803E0
6007C0
F00F80
781F00
7C3E00
30FC00
03F800
0FE000
7FC000
FF0000
FC0000
600000
ENDCHAR
STARTCHAR 30B8
ENCODING 11064
SWIDTH 2700 0
DWIDTH 27 0
BBX 20 20 3 -1
BITMAP
0000C0
0001E0
000EF0
0C0F70
1E0730
0F0380
078300
070080
2200C0
7001E0
7803C0
3C0F80
1C1F00
107E00
01FC00
07F000
3FE000
FF8000
7C0000
600000
ENDCHAR
STARTCHAR 30B9
ENCODING 11065
SWIDTH 2700 0
DWIDTH 27 0
BBX 17 18 3 -1
BITMAP
7FFF00
7FFF00
7FFF80
000F00
001F00
003E00
007C00
00F800
01F000
03F800
03F800
07FC00
0FBE00
1F1F00
3E0F80
FC0780
380700
100200
ENDCHAR
STARTCHAR 30BA
ENCODING 11066
SWIDTH 2700 0
DWIDTH 27 0
BBX 23 19 1 0
BITMAP
000010
000078
0001BC
FFFDDC
FFFDEE
FFFCF8
003C40
007800
00F000
01F000
03E000
07E000
0FF000
1FF800
3E7C00
7C3E00
F81F00
F00E00
200800
ENDCHAR
STARTCHAR 30BB
ENCODING 11067
SWIDTH 2700 0
DWIDTH 27 0
BBX 19 18 1 -1
BITMAP
078080
0783C0
079FE0
07FFE0
07FFE0
1FF1E0
FFC3C0
FF87C0
F78F80
078700
078200
078000
078000
078000
078000
07FFE0
07FFE0
07FFE0
ENDCHAR
STARTCHAR 30BC
ENCODING 11068
SWIDTH 2700 0
DWIDTH 27 0
BBX 23 20 1 -1
BITMAP
000010
000078
0003BC
0F03DE
0F01EC
0F0EE8
0F7FC0
0FFF00
1FFF00
FFCF00
FF1E00
FF1E00
0F7C00
0F1800
0F0000
0F0000
0F0000
0FFFC0
0FFFC0
0FFFC0
ENDCHAR
STARTCHAR 30BD
ENCODING 11069
SWIDTH 2700 0
DWIDTH 27 0
BBX 18 17 4 -1
BITMAP
000300
7003C0
F80780
780780
3C0F00
3C0F00
181E00
003E00
007C00
00F800
01F000
03E000
0FC000
3F8000
FF0000
7C0000
300000
ENDCHAR
STARTCHAR 30BE
ENCODING 11070
SWIDTH 2700 0
DWIDTH 27 0
BBX 22 18 1 0
BITMAP
000010
000078
1001BC
380BDC
7C0FEC
3E1EF8
1E1E40
0C3C00
087C00
007800
00F000
03F000
07E000
1FC000
7F0000
FE0000
F80000
600000
ENDCHAR
STARTCHAR 30BF
ENCODING 11071
SWIDTH 2700 0
DWIDTH 27 0
BBX 16 17 4 0
BITMAP
0200
0780
0780
0F00
1FFF
1FFF
3FFF
7C0F
FB0E
73DE
23FE
00FC
007E
01FF
1FEF
1FC6
0E00
ENDCHAR
STARTCHAR 30C0
ENCODING 11072
SWIDTH 2700 0
DWIDTH 27 0
BBX 22 19 1 -1
BITMAP
000010
000078
0301BC
0783DC
0F01EC
0FFEE8
1FFE40
3FFE00
7C1E00
FA1E00
779E00
27FC00
03FC00
00FC00
01FE00
07FF00
3FCE00
1F8400
0C0000
ENDCHAR
STARTCHAR 30C1
ENCODING 11073
SWIDTH 2700 0
DWIDTH 27 0
BBX 17 18 4 -1
BITMAP
001800
00FC00
07FC00
7FF000
3FE000
3DE000
01E000
FFFF80
FFFF80
FFFF80
01E000
01E000
01E000
03C000
07C000
1F8000
0F0000
060000
ENDCHAR
STARTCHAR 30C2
ENCODING 11074
SWIDTH 2700 0
DWIDTH 27 0
BBX 21 19 2 -1
BITMAP
000060
0000F0
00F770
07FFB8
FFF3B8
7FC1D0
7FC180
03C000
FFFF00
FFFF00
FFFF00
03C000
03C000
03C000
078000
0F8000
3F0000
1E0000
0C0000
ENDCHAR
STARTCHAR 30C3
ENCODING 11075
SWIDTH 2700 0
DWIDTH 27 0
BBX 19 13 2 0
BITMAP
000080
0101E0
33C1E0
FBC3C0
79E3C0
3CF780
1CEF80
183F00
00FE00
1FFC00
3FF000
3FC000
3C0000
ENDCHAR
STARTCHAR 30C4
ENCODING 11076
SWIDTH 2700 0
DWIDTH 27 0
BBX 20 18 2 -1
BITMAP
000040
000070
0000F0
0180F0
23C1E0
F3E1E0
F9E3C0
78F3C0
3CC780
380F80
101F00
003E00
00FC00
03F800
3FF000
7FC000
3F0000
380000
ENDCHAR
STARTCHAR 30C5
ENCODING 11077
SWIDTH 2700 0
DWIDTH 27 0
BBX 22 19 1 -1
BITMAP
000030
000078
0001BC
0001DC
0000EC
0204F0
0F07E0
678F00
F3CF00
7BCF00
7D9E00
383E00
107C00
00F800
03F000
7FE000
7FC000
7F0000
300000
ENDCHAR
STARTCHAR 30C6
ENCODING 11078
SWIDTH 2700 0
DWIDTH 27 0
BBX 18 18 3 -1
BITMAP
0FFE00
0FFE00
0FFE00
000000
000000
FFFFC0
FFFFC0
FFFFC0
01E000
01E000
01E000
01E000
03C000
03C000
078000
1F8000
1F0000
040000
ENDCHAR
STARTCHAR 30C7
ENCODING 11079
SWIDTH 2700 0
DWIDTH 27 0
BBX 22 19 1 -1
BITMAP
000020
0FF870
0FF9B8
0FFBDC
0001FC
0000E0
FFFF60
FFFF00
FFFF00
03C000
03C000
03C000
03C000
078000
078000
0F0000
3F0000
1E0000
080000
ENDCHAR
STARTCHAR 30C8
ENCODING 11080
SWIDTH 2700 0
DWIDTH 27 0
BBX 14 17 8 0
BITMAP
F000
F000
F000
F000
F200
F780
F7C0
F3F0
F1F8
F07C
F03C
F018
F000
F000
F000
F000
F000
ENDCHAR
STARTCHAR 30C9
ENCODING 11081
SWIDTH 2700 0
DWIDTH 27 0
BBX 15 18 6 0
BITMAP
0018
F0BC
F1DE
F1EE
F0F4
F070
F040
F000
F700
FF80
F7E0
F1F0
F0F8
F078
F030
F000
F000
F000
ENDCHAR
STARTCHAR 30CA
ENCODING 11082
SWIDTH 2700 0
DWIDTH 27 0
BBX 18 18 4 -1
BITMAP
01E000
01E000
01E000
01E000
FFFFC0
FFFFC0
FFFFC0
01E000
01E000
01E000
01E000
03C000
03C000
07C000
0F8000
1F0000
0F0000
040000
ENDCHAR
STARTCHAR 30CB
ENCODING 11083
SWIDTH 2700 0
DWIDTH 27 0
BBX 18 12 3 3
BITMAP
3FFF00
3FFF00
3FFF00
000000
000000
000000
000000
000000
000000
FFFFC0
FFFFC0
FFFFC0
ENDCHAR
STARTCHAR 30CC
ENCODING 11084
SWIDTH 2700 0
DWIDTH 27 0
BBX 17 18 4 -1
BITMAP
7FFE00
7FFE00
7FFE00
001E00
001E00
001E00
043C00
0F3C00
0FFC00
07F800
03F800
01FC00
07FE00
0FDF00
3F8F80
FE0700
7C0200
300000
ENDCHAR
STARTCHAR 30CD
ENCODING 11085
SWIDTH 2700 0
DWIDTH 27 0
BBX 18 17 4 0
BITMAP
01E000
01E000
7FFF00
7FFF00
7FFF80
003E00
00FC00
01F800
07F000
1FFC00
7FFE00
FDEF00
71EFC0
41E780
01E300
01E000
01E000
ENDCHAR
STARTCHAR 30CE
ENCODING 11086
SWIDTH 2700 0
DWIDTH 27 0
BBX 16 18 4 -1
BITMAP
0004
000F
000F
001E
001E
003C
003C
0078
00F8
01F0
01E0
03C0
0F80
1F00
7E00
FC00
7800
6000
ENDCHAR
STARTCHAR 30CF
ENCODING 11087
SWIDTH 2700 0
DWIDTH 27 0
BBX 20 12 2 2
BITMAP
000800
079C00
071E00
0F1F00
0F0F80
1E0780
1E03C0
3C03C0
3C01E0
7801F0
F800F0
3000C0
ENDCHAR
STARTCHAR 30D0
ENCODING 11088
SWIDTH 2700 0
DWIDTH 27 0
BBX 22 18 1 1
BITMAP
000020
000070
000278
00073C
00039C
0003D8
0209C0
079C80
071E00
0F0F00
0F0F80
1E0780
1E03C0
3C03E0
3C01E0
7800F0
F000F0
000040
ENDCHAR
STARTCHAR 30D1
ENCODING 11089
SWIDTH 2700 0
DWIDTH 27 0
BBX 22 15 1 2
BITMAP
000030
000078
0000CC
0008CC
071C78
079E00
071F00
0F0F80
0E0780
1E03C0
3E03C0
3C01E0
7801F0
F800F0
7000C0
ENDCHAR
STARTCHAR 30D2
ENCODING 11090
SWIDTH 2700 0
DWIDTH 27 0
BBX 16 18 5 -1
BITMAP
F000
F000
F000
F018
F07C
F3FC
FFF8
FFC0
FF00
F000
F000
F000
F000
F000
F000
FFFF
FFFF
FFFF
ENDCHAR
STARTCHAR 30D3
ENCODING 11091
SWIDTH 2700 0
DWIDTH 27 0
BBX 21 20 2 -1
BITMAP
000020
000070
000278
F00738
F007B8
F00BD0
F039C0
F0FC80
FFFC00
FFE000
FF8000
F80000
F00000
F00000
F00000
F00000
F00000
FFFF00
FFFF00
00FF00
ENDCHAR
STARTCHAR 30D4
ENCODING 11092
SWIDTH 2700 0
DWIDTH 27 0
BBX 19 18 2 -1
BITMAP
0001C0
F003E0
F00320
F00360
F019E0
F0F800
FFFC00
FFF000
FF8000
F80000
F00000
F00000
F00000
F00000
F00000
FFFC00
FFFC00
FFFC00
ENDCHAR
STARTCHAR 30D5
ENCODING 11093
SWIDTH 2700 0
DWIDTH 27 0
BBX 15 17 5 -1
BITMAP
FFFC
FFFE
FFFE
001E
003C
003C
0078
00F8
00F0
01E0
03C0
07C0
1F80
3F00
7E00
3800
1000
ENDCHAR
STARTCHAR 30D6
ENCODING 11094
SWIDTH 2700 0
DWIDTH 27 0
BBX 22 18 1 0
BITMAP
000030
000178
0007B8
FFFFDC
FFFDD8
FFFCC0
003C00
007800
007800
00F000
01F000
01E000
03C000
0F8000
1F0000
7E0000
3C0000
180000
ENDCHAR
STARTCHAR 30D7
ENCODING 11095
SWIDTH 2700 0
DWIDTH 27 0
BBX 21 18 2 0
BITMAP
000070
0000F0
000198
FFF8F8
FFFCF0
FFFC00
003C00
007800
007800
00F000
01F000
03E000
07C000
0F8000
1F0000
7E0000
3C0000
100000
ENDCHAR
STARTCHAR 30D8
ENCODING 11096
SWIDTH 2700 0
DWIDTH 27 0
BBX 16 9 5 0
BITMAP
0F00
1F80
1FC0
3DF0
78F8
F07C
E03E
401F
0004
ENDCHAR
STARTCHAR 30D9
ENCODING 11097
SWIDTH 2700 0
DWIDTH 27 0
BBX 18 14 3 0
BITMAP
000100
000780
003BC0
003DC0
071EC0
0F8E80
0FE400
1FF000
3CF800
787C00
F03E00
E01F00
000F00
000600
ENDCHAR
STARTCHAR 30DA
ENCODING 11098
SWIDTH 2700 0
DWIDTH 27 0
BBX 18 13 3 -1
BITMAP
000380
0007C0
0004C0
0387C0
07C380
0FE000
1FF000
3E7800
7C3C00
F81F00
700F80
200780
000300
ENDCHAR
STARTCHAR 30DB
ENCODING 11099
SWIDTH 2700 0
DWIDTH 27 0
BBX 20 17 2 0
BITMAP
00F000
00F000
00F000
3FFFC0
3FFFC0
3FFFC0
00F000
04F100
0EF780
1EF380
3CF3C0
7CF1F0
F8F1F0
30F0C0
07F000
07F000
07C000
ENDCHAR
STARTCHAR 30DC
ENCODING 11100
SWIDTH 2700 0
DWIDTH 27 0
BBX 21 19 2 0
BITMAP
000020
0002F0
00F778
00F3B8
00F1C0
00F180
7FFFC0
7FFFC0
7FFFC0
00F000
1CF600
1CFF00
7CF780
F8F7E0
F0F3C0
60F080
07F000
07F000
07C000
ENDCHAR
STARTCHAR 30DD
ENCODING 11101
SWIDTH 2700 0
DWIDTH 27 0
BBX 21 18 2 0
BITMAP
000070
00F0D8
00F0D8
00F0F8
00F070
7FFF80
7FFF80
7FFF80
00F000
1CF600
1CFF00
3CF780
F8F7E0
F0F3C0
60F080
07F000
07F000
07C000
ENDCHAR
STARTCHAR 30DE
ENCODING 11102
SWIDTH 2700 0
DWIDTH 27 0
BBX 14 15 6 -1
BITMAP
7FF8
7FFC
7FF8
00F0
00F0
01E0
23C0
7780
FF00
7F00
3F00
1FC0
07E0
03C0
00C0
ENDCHAR
STARTCHAR 30DF
ENCODING 11103
SWIDTH 2700 0
DWIDTH 27 0
BBX 17 18 4 -1
BITMAP
0C0000
1F8000
1FF000
03FC00
00FE00
1C1C00
1F8800
3FE000
03F800
60FC00
FC3800
FF8800
1FE000
07FC00
00FF00
003F80
000F00
000100
ENDCHAR
STARTCHAR 30E0
ENCODING 11104
SWIDTH 2700 0
DWIDTH 27 0
BBX 20 17 2 0
BITMAP
038000
03C000
03C000
038000
078000
078000
078000
070000
0F0000
0F0700
0E0780
1E07C0
1E1FC0
3FFFE0
FFFFF0
FFF8F0
F00040
ENDCHAR
STARTCHAR 30E1
ENCODING 11105
SWIDTH 2700 0
DWIDTH 27 0
BBX 17 18 3 -1
BITMAP
000600
000780
000F00
000F00
001E00
081E00
1E3C00
1FBC00
0FF800
03F800
01FE00
03FF00
07DF80
1F8700
3F0100
FE0000
780000
200000
ENDCHAR
STARTCHAR 30E2
ENCODING 11106
SWIDTH 2700 0
DWIDTH 27 0
BBX 19 18 2 -1
BITMAP
3FFF00
3FFF00
3FFF00
01E000
01E000
01E000
01E000
FFFFE0
FFFFE0
FFFFE0
01E000
01E000
01E000
01E000
01E000
01FFC0
01FFC0
01FFC0
ENDCHAR
STARTCHAR 30E3
ENCODING 11107
SWIDTH 2700 0
DWIDTH 27 0
BBX 15 12 5 0
BITMAP
0400
3C7E
1FFE
1FFC
3FDC
FF1C
FFBC
E780
03C0
03C0
03C0
0100
ENDCHAR
STARTCHAR 30E4
ENCODING 11108
SWIDTH 2700 0
DWIDTH 27 0
BBX 18 18 3 -1
BITMAP
0C0000
3C0000
1E0700
1E1FC0
1E7F80
0FFF80
0FF780
3FC780
FF8780
FBC780
63C000
03C000
01E000
01E000
00F000
00F000
00F000
004000
ENDCHAR
STARTCHAR 30E5
ENCODING 11109
SWIDTH 2700 0
DWIDTH 27 0
BBX 16 11 4 -1
BITMAP
3FF8
3FF8
3FF8
0078
0078
0078
0078
0078
FFFF
FFFF
FFFF
ENDCHAR
STARTCHAR 30E6
ENCODING 11110
SWIDTH 2700 0
DWIDTH 27 0
BBX 22 16 1 -1
BITMAP
1FFFC0
1FFFC0
1FFFC0
0003C0
0003C0
0003C0
0003C0
0003C0
0003C0
0003C0
0003C0
0003C0
0003C0
FFFFFC
FFFFFC
FFFFFC
ENDCHAR
STARTCHAR 30E7
ENCODING 11111
SWIDTH 2700 0
DWIDTH 27 0
BBX 19 12 3 -1
BITMAP
3FFF80
3FFF80
3FFF80
000780
3FFF80
3FFF80
3FFF80
000780
000780
FFFFE0
FFFFE0
FFFFE0
ENDCHAR
STARTCHAR 30E8
ENCODING 11112
SWIDTH 2700 0
DWIDTH 27 0
BBX 20 15 3 -1
BITMAP
7FFFC0
7FFFC0
7FFFC0
0003C0
0003C0
0003C0
7FFFC0
7FFFC0
7FFFC0
0003C0
0003C0
0003C0
FFFFF0
FFFFF0
FFFFF0
ENDCHAR
STARTCHAR 30E9
ENCODING 11113
SWIDTH 2700 0
DWIDTH 27 0
BBX 17 18 4 -1
BITMAP
1FFE00
1FFE00
1FFE00
000000
000000
FFFF00
FFFF80
FFFF80
001F00
003C00
007800
00F000
03E000
07C000
0F8000
1F0000
1E0000
0C0000
ENDCHAR
STARTCHAR 30EA
ENCODING 11114
SWIDTH 2700 0
DWIDTH 27 0
BBX 13 20 7 -3
BITMAP
0078
F078
F078
F078
F078
F078
F078
F078
F078
F078
F078
F0F0
F0F0
00F0
01F0
03E0
07C0
0F80
0F00
0200
ENDCHAR
STARTCHAR 30EB
ENCODING 11115
SWIDTH 2700 0
DWIDTH 27 0
BBX 19 18 3 -1
BITMAP
07F800
07F800
07F800
07F800
07F800
07F800
07F800
07F800
07F800
07F800
0F7840
0F79E0
1F7BE0
1E7FC0
3C7F80
FC7E00
783C00
201000
ENDCHAR
STARTCHAR 30EC
ENCODING 11116
SWIDTH 2700 0
DWIDTH 27 0
BBX 15 17 6 0
BITMAP
F000
F000
F000
F000
F000
F000
F000
F000
F000
F01C
F07C
F3FE
FFF0
FFC0
FF00
7800
6000
ENDCHAR
STARTCHAR 30ED
ENCODING 11117
SWIDTH 2700 0
DWIDTH 27 0
BBX 17 13 4 1
BITMAP
FFFF80
FFFF80
FFFF80
F00780
F00780
F00780
F00780
F00780
F00780
F00780
FFFF80
FFFF80
FFFF80
ENDCHAR
STARTCHAR 30EE
ENCODING 11118
SWIDTH 2700 0
DWIDTH 27 0
BBX 13 12 7 -1
BITMAP
FFF8
FFF8
FFF8
F078
F078
F078
0078
00F8
03F0
07E0
03C0
0300
ENDCHAR
STARTCHAR 30EF
ENCODING 11119
SWIDTH 2700 0
DWIDTH 27 0
BBX 17 17 4 0
BITMAP
FF8000
FFFF80
FFFF80
F00780
F00780
F00780
F00780
F00780
000780
000780
000780
000780
000F80
001F00
007E00
003C00
001000
ENDCHAR
STARTCHAR 30F0
ENCODING 11120
SWIDTH 2700 0
DWIDTH 27 0
BBX 17 17 4 0
BITMAP
007800
007800
007800
7FFF00
7FFF00
7FFF00
0F7800
0F7800
0F7800
0F7800
FFFF80
FFFF80
FFFF80
007800
007800
007800
007800
ENDCHAR
STARTCHAR 30F1
ENCODING 11121
SWIDTH 2700 0
DWIDTH 27 0
BBX 19 16 3 -1
BITMAP
7FFF80
7FFF80
7FFF80
000780
000780
000F00
000F00
03DE00
03FE00
03DC00
03C000
03C000
03C000
FFFFE0
FFFFE0
FFFFE0
ENDCHAR
STARTCHAR 30F2
ENCODING 11122
SWIDTH 2700 0
DWIDTH 27 0
BBX 16 15 4 0
BITMAP
FFFE
FFFF
FFFF
001E
001E
7FFC
7FFC
7FF8
0078
0070
00F0
01E0
01E0
03C0
00C0
ENDCHAR
STARTCHAR 30F3
ENCODING 11123
SWIDTH 2700 0
DWIDTH 27 0
BBX 19 13 3 0
BITMAP
080000
1C0000
1E01C0
0F03E0
0F87C0
060F80
001F00
003E00
01FC00
7FF800
FFE000
7F8000
700000
ENDCHAR
STARTCHAR 30F4
ENCODING 11124
SWIDTH 2700 0
DWIDTH 27 0
BBX 22 19 2 -1
BITMAP
000030
078178
0787B8
0783DC
FFFFD0
FFFE80
FFFE00
F01E00
F01E00
F01E00
001E00
001E00
001E00
001E00
003E00
00FC00
01F800
00F000
004000
ENDCHAR
STARTCHAR 30F5
ENCODING 11125
SWIDTH 2700 0
DWIDTH 27 0
BBX 16 13 4 -1
BITMAP
0780
0780
FFFF
FFFF
FFFF
078F
0F0F
0F0F
1F0F
3E1F
FC7E
787C
2020
ENDCHAR
STARTCHAR 30F6
ENCODING 11126
SWIDTH 2700 0
DWIDTH 27 0
BBX 16 14 4 -1
BITMAP
0400
0F00
1F00
1E00
3FFF
3FFF
7FFF
F878
F078
6078
20F0
01F0
03E0
00C0
ENDCHAR
STARTCHAR 0410
ENCODING 11297
SWIDTH 2700 0
DWIDTH 27 0
BBX 20 17 2 0
BITMAP
002000
003000
007000
00F800
00F800
01FC00
01DC00
03DE00
078F00
078F00
0FFF80
0FFF80
1FFFC0
3E03E0
3C01E0
7C01F0
F800F0
ENDCHAR
STARTCHAR 0411
ENCODING 11298
SWIDTH 2700 0
DWIDTH 27 0
BBX 13 17 6 0
BITMAP
FFF0
FFF0
FFF0
F000
F000
F000
F000
FFC0
FFF0
FFF0
F0F8
F078
F078
F0F8
FFF0
FFE0
FF80
ENDCHAR
STARTCHAR 0412
ENCODING 11299
SWIDTH 2700 0
DWIDTH 27 0
BBX 14 17 6 0
BITMAP
FFE0
FFF0
FFF8
F03C
F01C
F01C
F038
FFF0
FFF8
FFFC
F03C
F01C
F01C
F01C
FFFC
FFF8
FFE0
ENDCHAR
STARTCHAR 0413
ENCODING 11300
SWIDTH 2700 0
DWIDTH 27 0
BBX 15 17 5 0
BITMAP
FFFE
FFFE
FFFE
F000
F000
F000
F000
F000
F000
F000
F000
F000
F000
F000
F000
F000
F000
ENDCHAR
STARTCHAR 0414
ENCODING 11301
SWIDTH 2700 0
DWIDTH 27 0
BBX 17 19 4 -2
BITMAP
3FFE00
3FFE00
3FFE00
3C1E00
3C1E00
3C1E00
7C1E00
7C1E00
781E00
781E00
781E00
F81E00
FFFE00
FFFF80
FFFF80
F00780
F00780
E00780
E00780
ENDCHAR
STARTCHAR 0415
ENCODING 11302
SWIDTH 2700 0
DWIDTH 27 0
BBX 15 16 5 0
BITMAP
FFFE
FFFE
FFFE
F000
F000
F000
FFFC
FFFC
FFFC
F000
F000
F000
F000
FFFE
FFFE
FFFE
ENDCHAR
STARTCHAR 0401
ENCODING 11303
SWIDTH 2700 0
DWIDTH 27 0
BBX 13 18 6 0
BITMAP
E070
F078
F078
6030
0000
FFF8
FFF8
FFF8
F000
F000
FFF0
FFF0
FFF0
F000
F000
FFF8
FFF8
FFF8
ENDCHAR
STARTCHAR 0416
ENCODING 11304
SWIDTH 2700 0
DWIDTH 27 0
BBX 17 17 4 0
BITMAP
83C080
E3C380
F3C780
F3CF80
7BDF00
3BDE00
3BDE00
3FFE00
3FFE00
3FFE00
3DDE00
3DDE00
79DF00
F9CF80
F1CF80
E1C780
C1C180
ENDCHAR
STARTCHAR 0417
ENCODING 11305
SWIDTH 2700 0
DWIDTH 27 0
BBX 14 17 6 0
BITMAP
0FC0
3FF0
7FF0
F8F8
7078
0078
01F8
0FF0
0FF0
0FF8
00FC
007C
307C
F078
FFF8
7FF0
3FE0
ENDCHAR
STARTCHAR 0418
ENCODING 11306
SWIDTH 2700 0
DWIDTH 27 0
BBX 15 17 5 0
BITMAP
F01E
F01E
F03E
F07E
F0FE
F0FE
F1FE
F3DE
F3DE
F79E
FF1E
FE1E
FE1E
FC1E
F81E
F01E
F01E
ENDCHAR
STARTCHAR 0419
ENCODING 11307
SWIDTH 2700 0
DWIDTH 27 0
BBX 16 16 5 0
BITMAP
1C70
1EF0
F7CF
F01F
F03F
F07F
F0FF
F1FF
F3EF
F7CF
FF8F
FF0F
FE0F
FC0F
F80F
F00F
ENDCHAR
STARTCHAR 041A
ENCODING 11308
SWIDTH 2700 0
DWIDTH 27 0
BBX 16 17 5 0
BITMAP
F01F
F03E
F0FC
F1F8
F3F0
F7C0
FF80
FF80
FFC0
FFE0
F1E0
F0F0
F0F8
F078
F03C
F03E
F01E
ENDCHAR
STARTCHAR 041B
ENCODING 11309
SWIDTH 2700 0
DWIDTH 27 0
BBX 16 17 4 0
BITMAP
1FFF
1FFF
1FFF
1E0F
1E0F
1E0F
1E0F
1E0F
1E0F
1E0F
1E0F
1E0F
3E0F
7C0F
FC0F
F80F
E00F
ENDCHAR
STARTCHAR 041C
ENCODING 11310
SWIDTH 2700 0
DWIDTH 27 0
BBX 18 17 3 0
BITMAP
F003C0
F003C0
F807C0
FC07C0
FC0FC0
FE0FC0
FE1FC0
FF1FC0
F73BC0
F7BBC0
F3F3C0
F3F3C0
F1E3C0
F0E3C0
F0C3C0
F043C0
F003C0
ENDCHAR
STARTCHAR 041D
ENCODING 11311
SWIDTH 2700 0
DWIDTH 27 0
BBX 15 17 5 0
BITMAP
F01E
F01E
F01E
F01E
F01E
F01E
F01E
FFFE
FFFE
FFFE
F01E
F01E
F01E
F01E
F01E
F01E
F01E
ENDCHAR
STARTCHAR 041E
ENCODING 11312
SWIDTH 2700 0
DWIDTH 27 0
BBX 18 17 3 0
BITMAP
03F800
1FFE00
3FFF00
7E0F80
780780
F807C0
F003C0
F003C0
F003C0
F003C0
F003C0
F807C0
780780
7C0F80
3FFF00
1FFE00
07F800
ENDCHAR
STARTCHAR 041F
ENCODING 11313
SWIDTH 2700 0
DWIDTH 27 0
BBX 15 17 5 0
BITMAP
FFFE
FFFE
FFFE
F01E
F01E
F01E
F01E
F01E
F01E
F01E
F01E
F01E
F01E
F01E
F01E
F01E
F01E
ENDCHAR
STARTCHAR 0420
ENCODING 11314
SWIDTH 2700 0
DWIDTH 27 0
BBX 14 17 6 0
BITMAP
FF00
FFF0
FFF8
F1F8
F03C
F03C
F03C
F07C
FFF8
FFF8
FFE0
F000
F000
F000
F000
F000
F000
ENDCHAR
STARTCHAR 0421
ENCODING 11315
SWIDTH 2700 0
DWIDTH 27 0
BBX 17 17 4 0
BITMAP
07F000
1FFC00
3FFF00
7E3E00
780400
F00000
F00000
F00000
E00000
F00000
F00000
F00780
F80F80
7C1F00
3FFF00
1FFC00
07F800
ENDCHAR
STARTCHAR 0422
ENCODING 11316
SWIDTH 2700 0
DWIDTH 27 0
BBX 17 17 4 0
BITMAP
FFFF80
FFFF80
FFFF80
03C000
03C000
03C000
03C000
03C000
03C000
03C000
03C000
03C000
03C000
03C000
03C000
03C000
03C000
ENDCHAR
STARTCHAR 0423
ENCODING 11317
SWIDTH 2700 0
DWIDTH 27 0
BBX 16 17 5 0
BITMAP
F00F
781E
3C1E
3C3C
1E3C
0F78
0FF8
07F0
03F0
03E0
03E0
03C0
07C0
0780
3F80
3F00
3C00
ENDCHAR
STARTCHAR 0424
ENCODING 11318
SWIDTH 2700 0
DWIDTH 27 0
BBX 18 17 3 0
BITMAP
01E000
01E000
03F000
1FFE00
3FFF00
7FFF80
F9E780
F1E3C0
F1E3C0
F1E3C0
F9E780
7DFF80
3FFF00
1FFE00
07F800
01E000
01E000
ENDCHAR
STARTCHAR 0425
ENCODING 11319
SWIDTH 2700 0
DWIDTH 27 0
BBX 19 17 3 0
BITMAP
F803E0
7C07C0
3E0F80
1E1F00
1F1E00
0FBC00
07F800
03F800
01F000
03F800
07FC00
0FFC00
1F3E00
1E1F00
3E0F80
7C07C0
F803C0
ENDCHAR
STARTCHAR 0426
ENCODING 11320
SWIDTH 2700 0
DWIDTH 27 0
BBX 17 19 4 -2
BITMAP
F03C00
F03C00
F03C00
F03C00
F03C00
F03C00
F03C00
F03C00
F03C00
F03C00
F03C00
F03C00
FFFE00
FFFF80
FFFF80
000F80
000780
000780
000780
ENDCHAR
STARTCHAR 0427
ENCODING 11321
SWIDTH 2700 0
DWIDTH 27 0
BBX 15 16 5 0
BITMAP
F01E
F01E
F01E
F01E
F01E
F01E
F03E
F07E
FFFE
7FFE
1FDE
001E
001E
001E
001E
001E
ENDCHAR
STARTCHAR 0428
ENCODING 11322
SWIDTH 2700 0
DWIDTH 27 0
BBX 18 17 3 0
BITMAP
F1E3C0
F1E3C0
F1E3C0
F1E3C0
F1E3C0
F1E3C0
F1E3C0
F1E3C0
F1E3C0
F1E3C0
F1E3C0
F1E3C0
F1E3C0
F1E3C0
FFFFC0
FFFFC0
FFFFC0
ENDCHAR
STARTCHAR 0429
ENCODING 11323
SWIDTH 2700 0
DWIDTH 27 0
BBX 18 19 4 -2
BITMAP
F3CF00
F3CF00
F3CF00
F3CF00
F3CF00
F3CF00
F3CF00
F3CF00
F3CF00
F3CF00
F3CF00
F3CF00
F3CF00
FFFF00
FFFF80
FFFFC0
0003C0
0003C0
0003C0
ENDCHAR
STARTCHAR 042A
ENCODING 11324
SWIDTH 2700 0
DWIDTH 27 0
BBX 17 17 4 0
BITMAP
FE0000
FE0000
FE0000
1E0000
1E0000
1E0000
1E0000
1FFE00
1FFF00
1FFF80
1E0F80
1E0780
1E0780
1E0F80
1FFF00
1FFF00
1FFC00
ENDCHAR
STARTCHAR 042B
ENCODING 11325
SWIDTH 2700 0
DWIDTH 27 0
BBX 18 17 3 0
BITMAP
F003C0
F003C0
F003C0
F003C0
F003C0
F003C0
F003C0
FFF3C0
FFFBC0
FFFFC0
F03FC0
F03FC0
F03FC0
F07FC0
FFFBC0
FFFBC0
FFC3C0
ENDCHAR
STARTCHAR 042C
ENCODING 11326
SWIDTH 2700 0
DWIDTH 27 0
BBX 14 17 6 0
BITMAP
F000
F000
F000
F000
F000
F000
FC00
FFF0
FFF8
FFFC
F03C
F03C
F03C
F07C
FFF8
FFF8
FFC0
ENDCHAR
STARTCHAR 042D
ENCODING 11327
SWIDTH 2700 0
DWIDTH 27 0
BBX 15 17 5 0
BITMAP
0F80
3FF0
7FF8
FCFC
703C
003E
001E
07FE
07FE
07FE
001E
001E
F03E
F87C
7FF8
3FF0
1FE0
ENDCHAR
STARTCHAR 042E
ENCODING 11328
SWIDTH 2700 0
DWIDTH 27 0
BBX 19 17 3 0
BITMAP
F03C00
F0FF00
F1FF80
F1EFC0
F3C3C0
F381E0
FF81E0
FF81E0
FF81E0
F781E0
F781E0
F781E0
F3C3C0
F3FFC0
F1FF80
F0FF00
F03800
ENDCHAR
STARTCHAR 042F
ENCODING 11329
SWIDTH 2700 0
DWIDTH 27 0
BBX 15 17 5 0
BITMAP
07FE
1FFE
3FFE
7E1E
781E
781E
7C1E
3FFE
3FFE
0FFE
079E
0F1E
1F1E
3E1E
3C1E
7C1E
F81E
ENDCHAR
STARTCHAR 0430
ENCODING 11345
SWIDTH 2700 0
DWIDTH 27 0
BBX 11 12 6 0
BITMAP
1F00
7F80
FFC0
F3C0
43C0
3FC0
7FC0
F1C0
F3C0
FFC0
FFE0
7FE0
ENDCHAR
STARTCHAR 0431
ENCODING 11346
SWIDTH 2700 0
DWIDTH 27 0
BBX 12 13 6 0
BITMAP
03C0
1FC0
3F80
7C00
7FC0
7FE0
FDF0
F0F0
7070
70F0
7FE0
3FE0
1F80
ENDCHAR
STARTCHAR 0432
ENCODING 11347
SWIDTH 2700 0
DWIDTH 27 0
BBX 12 12 7 0
BITMAP
FFC0
FFE0
FFE0
F0E0
FFE0
FFE0
FFE0
F0F0
F0F0
FFF0
FFE0
FFC0
ENDCHAR
STARTCHAR 0433
ENCODING 11348
SWIDTH 2700 0
DWIDTH 27 0
BBX 12 12 7 0
BITMAP
FFF0
FFF0
FFF0
F000
F000
F000
F000
F000
F000
F000
F000
F000
ENDCHAR
STARTCHAR 0434
ENCODING 11349
SWIDTH 2700 0
DWIDTH 27 0
BBX 12 13 7 -1
BITMAP
7FE0
7FE0
7FE0
71E0
71E0
F1E0
F1E0
E1E0
FFE0
FFF0
FFF0
E070
C030
ENDCHAR
STARTCHAR 0435
ENCODING 11350
SWIDTH 2700 0
DWIDTH 27 0
BBX 12 13 6 -1
BITMAP
1F80
3FE0
7DE0
F0F0
FFF0
FFF0
FFF0
F000
F0F0
FBF0
7FE0
3FC0
0400
ENDCHAR
STARTCHAR 0451
ENCODING 11351
SWIDTH 2700 0
DWIDTH 27 0
BBX 12 16 6 0
BITMAP
2060
70F0
78F0
7070
1F80
3FE0
79E0
F0F0
FFF0
FFF0
FFF0
F000
F0F0
7FF0
3FE0
1F80
ENDCHAR
STARTCHAR 0436
ENCODING 11352
SWIDTH 2700 0
DWIDTH 27 0
BBX 16 13 4 0
BITMAP
0001
73C7
7BCF
7FDF
3FDE
3FFE
3FFE
3FFE
3FDE
3FDE
FBCF
F3CF
E3C3
ENDCHAR
STARTCHAR 0437
ENCODING 11353
SWIDTH 2700 0
DWIDTH 27 0
BBX 10 12 7 0
BITMAP
1F00
7F80
7FC0
73C0
07C0
1F80
1F80
0FC0
63C0
FFC0
7F80
3F00
ENDCHAR
STARTCHAR 0438
ENCODING 11354
SWIDTH 2700 0
DWIDTH 27 0
BBX 12 12 6 0
BITMAP
F0F0
F0F0
F1F0
F3F0
F7F0
F7F0
FEF0
FCF0
FCF0
F8F0
F0F0
F0F0
ENDCHAR
STARTCHAR 0439
ENCODING 11355
SWIDTH 2700 0
DWIDTH 27 0
BBX 13 14 6 0
BITMAP
1DC0
1F80
0F00
F078
F0F8
F1F8
F3F8
F7F8
FF78
FF78
FE78
FC78
F878
F078
ENDCHAR
STARTCHAR 043A
ENCODING 11356
SWIDTH 2700 0
DWIDTH 27 0
BBX 12 12 6 0
BITMAP
F1F0
F3E0
F3C0
F780
FF00
FE00
FF00
F780
F780
F3C0
F1E0
F1E0
ENDCHAR
STARTCHAR 043B
ENCODING 11357
SWIDTH 2700 0
DWIDTH 27 0
BBX 11 12 7 0
BITMAP
3FE0
3FE0
3DE0
3DE0
3DE0
3DE0
3DE0
3DE0
7DE0
F9E0
F9E0
E1E0
ENDCHAR
STARTCHAR 043C
ENCODING 11358
SWIDTH 2700 0
DWIDTH 27 0
BBX 14 12 5 0
BITMAP
F03C
F03C
F87C
F87C
FCFC
FEFC
F7BC
F7BC
F33C
F33C
F03C
F03C
ENDCHAR
STARTCHAR 043D
ENCODING 11359
SWIDTH 2700 0
DWIDTH 27 0
BBX 12 13 6 0
BITMAP
00F0
F0F0
F0F0
F0F0
F0F0
FFF0
FFF0
FFF0
F0F0
F0F0
F0F0
F0F0
F0F0
ENDCHAR
STARTCHAR 043E
ENCODING 11360
SWIDTH 2700 0
DWIDTH 27 0
BBX 13 12 6 0
BITMAP
1FC0
3FE0
7DF0
F8F8
F078
F078
F078
F078
F8F0
7FF0
3FE0
1FC0
ENDCHAR
STARTCHAR 043F
ENCODING 11361
SWIDTH 2700 0
DWIDTH 27 0
BBX 12 12 6 0
BITMAP
FFF0
FFF0
FFF0
F0F0
F0F0
F0F0
F0F0
F0F0
F0F0
F0F0
F0F0
F0F0
ENDCHAR
STARTCHAR 0440
ENCODING 11362
SWIDTH 2700 0
DWIDTH 27 0
BBX 11 15 7 -3
BITMAP
FF00
FFC0
FFE0
F0E0
F0E0
F0E0
F1E0
FFE0
FFC0
FE00
F000
F000
F000
F000
F000
ENDCHAR
STARTCHAR 0441
ENCODING 11363
SWIDTH 2700 0
DWIDTH 27 0
BBX 12 13 6 -1
BITMAP
0F80
3FC0
7FE0
78F0
F070
F000
F000
F000
F070
F8F0
7FF0
3FE0
0F80
ENDCHAR
STARTCHAR 0442
ENCODING 11364
SWIDTH 2700 0
DWIDTH 27 0
BBX 12 12 6 0
BITMAP
FFF0
FFF0
FFF0
0F00
0F00
0F00
0F00
0F00
0F00
0F00
0F00
0F00
ENDCHAR
STARTCHAR 0443
ENCODING 11365
SWIDTH 2700 0
DWIDTH 27 0
BBX 12 14 6 -2
BITMAP
F0F0
78F0
78E0
3DE0
1DC0
1FC0
0F80
0F80
0F00
0F00
3E00
7C00
7800
2000
ENDCHAR
STARTCHAR 0444
ENCODING 11366
SWIDTH 2700 0
DWIDTH 27 0
BBX 14 13 5 0
BITMAP
0780
0780
1FE0
7FF8
7FF8
F7BC
E79C
F7BC
FFF8
7FF8
3FF0
0780
0780
ENDCHAR
STARTCHAR 0445
ENCODING 11367
SWIDTH 2700 0
DWIDTH 27 0
BBX 13 12 6 0
BITMAP
F0F8
F8F0
79E0
3FC0
1FC0
1F80
0F80
1F80
3FC0
7DE0
79F0
F0F8
ENDCHAR
STARTCHAR 0446
ENCODING 11368
SWIDTH 2700 0
DWIDTH 27 0
BBX 13 14 6 -1
BITMAP
00F0
F0F0
F0F0
F0F0
F0F0
F0F0
F0F0
F0F0
FFF8
FFF8
FFF8
0078
0078
0078
ENDCHAR
STARTCHAR 0447
ENCODING 11369
SWIDTH 2700 0
DWIDTH 27 0
BBX 12 12 6 0
BITMAP
F0F0
F0F0
F0F0
F0F0
F0F0
F1F0
FFF0
7FF0
3FF0
00F0
00F0
00F0
ENDCHAR
STARTCHAR 0448
ENCODING 11370
SWIDTH 2700 0
DWIDTH 27 0
BBX 15 12 4 0
BITMAP
F3DE
F3DE
F3DE
F3DE
F3DE
F3DE
F3DE
F3DE
F3DE
FFFE
FFFE
FFFE
ENDCHAR
STARTCHAR 0449
ENCODING 11371
SWIDTH 2700 0
DWIDTH 27 0
BBX 15 13 5 -1
BITMAP
F7BC
F7BC
F7BC
F7BC
F7BC
F7BC
F7BC
F7BC
FFFE
FFFE
FFFE
001E
001E
ENDCHAR
STARTCHAR 044A
ENCODING 11372
SWIDTH 2700 0
DWIDTH 27 0
BBX 13 12 5 0
BITMAP
FC00
FC00
3C00
3C00
3FE0
3FF8
3FF8
3C38
3C78
3FF8
3FF0
3FE0
ENDCHAR
STARTCHAR 044B
ENCODING 11373
SWIDTH 2700 0
DWIDTH 27 0
BBX 15 12 4 0
BITMAP
F01E
F01E
F01E
F01E
FF1E
FFDE
FFFE
F0FE
F1FE
FFFE
FFDE
FF9E
ENDCHAR
STARTCHAR 044C
ENCODING 11374
SWIDTH 2700 0
DWIDTH 27 0
BBX 11 12 7 0
BITMAP
F000
F000
F000
F000
FF80
FFC0
FFE0
F1E0
F0E0
FFE0
FFC0
FF00
ENDCHAR
STARTCHAR 044D
ENCODING 11375
SWIDTH 2700 0
DWIDTH 27 0
BBX 12 13 6 0
BITMAP
1F00
7FC0
7FE0
70F0
00F0
0FF0
0FF0
0FF0
00F0
F0F0
7FE0
7FC0
1F80
ENDCHAR
STARTCHAR 044E
ENCODING 11376
SWIDTH 2700 0
DWIDTH 27 0
BBX 14 12 5 0
BITMAP
F040
F3F0
F3F8
F778
FF3C
FF3C
FF3C
F73C
F77C
F7F8
F3F8
F1F0
ENDCHAR
STARTCHAR 044F
ENCODING 11377
SWIDTH 2700 0
DWIDTH 27 0
BBX 11 12 6 0
BITMAP
1FE0
3FE0
7FE0
79E0
7FE0
7FE0
3FE0
1FE0
3DE0
39E0
79E0
F1E0
ENDCHAR
STARTCHAR AC00
ENCODING 12321
SWIDTH 2700 0
DWIDTH 27 0
BBX 23 21 1 -3
BITMAP
0001F0
7FF9F0
7FF9F0
7FF9F0
00F9F0
00F9F0
00F9F0
00F9F0
00F1FE
01F1FE
01F1FE
03E1F0
07E1F0
1FC1F0
FF81F0
7F01F0
3C01F0
0001F0
0001F0
0001F0
0001F0
ENDCHAR
STARTCHAR AC01
ENCODING 12322
SWIDTH 2700 0
DWIDTH 27 0
BBX 21 21 3 -3
BITMAP
0007C0
FFF7C0
FFF7C0
FFF7C0
01F7F8
01F7F8
03E7F8
07E7C0
3FC7C0
FF87C0
FE07C0
7807C0
000000
7FFFC0
7FFFC0
7FFFC0
0007C0
0007C0
0007C0
0007C0
0007C0
ENDCHAR
STARTCHAR AC04
ENCODING 12323
SWIDTH 2700 0
DWIDTH 27 0
BBX 22 21 2 -3
BITMAP
0003E0
FFF3E0
FFF3E0
FFF3E0
01F3FC
01F3FC
03F3FC
07E3E0
0FC3E0
7FC3E0
FF03E0
7E03E0
7803E0
0003E0
3E0000
3E0000
3E0000
3E0000
3FFFF0
3FFFF0
1FFFF0
ENDCHAR
STARTCHAR AC07
ENCODING 12324
SWIDTH 2700 0
DWIDTH 27 0
BBX 22 21 2 -3
BITMAP
0003E0
FFF3E0
FFF3E0
FFF3E0
01F3FC
01F3FC
03E3FC
0FE3E0
7FC3E0
FF83E0
7E03E0
7803E0
000000
3FFFE0
3FFFE0
3FFFE0
3C0000
3C0000
3FFFE0
3FFFE0
1FFFE0
ENDCHAR
STARTCHAR AC08
ENCODING 12325
SWIDTH 2700 0
DWIDTH 27 0
BBX 22 21 2 -3
BITMAP
0003E0
FFF3E0
FFF3E0
FFF3E0
01F3FC
03F3FC
07E3FC
FFE3E0
FF83E0
7F03E0
7003E0
000000
7FFFE0
7FFFE0
7FFFE0
7FFFE0
7FFFE0
7FFFE0
7FFFE0
7FFFE0
3FFFE0
ENDCHAR
STARTCHAR AC09
ENCODING 12326
SWIDTH 2700 0
DWIDTH 27 0
BBX 22 21 2 -3
BITMAP
0003E0
FFF3E0
FFF3E0
FFF3E0
01F3FC
03F3FC
07E3FC
FFE3E0
FF83E0
7F03E0
7003E0
7FFFE0
7FFFE0
7FFFE0
07C3E0
7FC3E0
7FC3E0
7FC3E0
7FE3E0
7FE3E0
7FE3E0
ENDCHAR
STARTCHAR AC0A
ENCODING 12327
SWIDTH 2700 0
DWIDTH 27 0
BBX 22 21 2 -3
BITMAP
0003E0
7FF3E0
7FF3E0
7FF3E0
01F3FC
01F3FC
07E3FC
FFC3E0
7F83E0
7E03E0
3803E0
7FBFE0
7FBFE0
7FBFE0
07BDE0
7FBDE0
7FBDE0
7FBDE0
7FFFE0
7FFFE0
7FDFE0
ENDCHAR
STARTCHAR AC10
ENCODING 12328
SWIDTH 2700 0
DWIDTH 27 0
BBX 22 21 2 -3
BITMAP
0003E0
FFF3E0
FFF3E0
FFF3E0
01F3FC
01F3FC
03E3FC
0FE3E0
7FC3E0
FF83E0
7E03E0
7803E0
000000
3FFFE0
3FFFE0
3FFFE0
3C03E0
3C03E0
3FFFE0
3FFFE0
1FFFE0
ENDCHAR
STARTCHAR AC11
ENCODING 12329
SWIDTH 2700 0
DWIDTH 27 0
BBX 22 21 2 -3
BITMAP
0003E0
7FF3E0
7FF3E0
7FF3E0
01F3FC
01F3FC
03E3FC
0FE3E0
FFC3E0
7F03E0
7C03E0
200000
7C03E0
7C03E0
7FFFE0
7FFFE0
7FFFE0
7C03E0
7FFFE0
7FFFE0
3FFFE0
ENDCHAR
STARTCHAR AC12
ENCODING 12330
SWIDTH 2700 0
DWIDTH 27 0
BBX 22 21 2 -3
BITMAP
0003E0
7FF3E0
7FF3E0
7FF3E0
01F3FC
01F3FC
03E3FC
0FE3E0
FFC3E0
7F03E0
7C03E0
200000
7BC3E0
7BC3E0
7FC3E0
7FC7F0
7FCFF8
7BDFFC
7FFF7C
7FDE3C
3FC808
ENDCHAR
STARTCHAR AC13
ENCODING 12331
SWIDTH 2700 0
DWIDTH 27 0
BBX 22 21 2 -3
BITMAP
0003E0
FFF3E0
FFF3E0
FFF3E0
01F3FC
01F3FC
03E3FC
07E3E0
1FC3E0
FF83E0
FF03E0
7C03E0
70F800
00F800
01FC00
03FE00
1FFF80
FFDFF0
7F0FF0
7E03E0
3000E0
ENDCHAR
STARTCHAR AC14
ENCODING 12332
SWIDTH 2700 0
DWIDTH 27 0
BBX 22 21 2 -3
BITMAP
0003E0
FFF3E0
FFF3E0
FFF3E0
01F3FC
01F3FC
03E3FC
0FE3E0
FFC3E0
FF03E0
7E03E0
700000
078780
07C780
0FCFC0
0FCFE0
1FFFE0
FFFEF8
FCFCF8
78FC70
404030
ENDCHAR
STARTCHAR AC15
ENCODING 12333
SWIDTH 2700 0
DWIDTH 27 0
BBX 22 22 2 -4
BITMAP
0003E0
FFF3E0
FFF3E0
FFF3E0
01F3FC
01F3FC
03E3FC
0FE3E0
7FC3E0
FF83E0
7E03E0
78FFE0
03FF80
07FFC0
07C3E0
0F81E0
0F81E0
0F81E0
07C3C0
07FFC0
03FF80
00FC00
ENDCHAR
STARTCHAR AC16
ENCODING 12334
SWIDTH 2700 0
DWIDTH 27 0
BBX 22 21 2 -3
BITMAP
0003E0
FFF3E0
FFF3E0
FFF3E0
01F3FC
01E3FC
03E3FC
0FC3E0
FF83E0
7F03E0
7C03E0
200000
7FFFE0
7FFFE0
7FFFE0
00F800
00F800
03FE00
7FFFF0
7FDFE0
3E03E0
ENDCHAR
STARTCHAR AC17
ENCODING 12335
SWIDTH 2700 0
DWIDTH 27 0
BBX 22 21 2 -3
BITMAP
0003E0
7FF3E0
7FF3E0
7FF3E0
01F3FC
01F3FC
03E3FC
0FE3E0
FFC3E0
7F03E0
7E03E0
20F000
00F000
7FFFE0
7FFFE0
7FFFE0
00F800
03FC00
7FFFF0
7F9FE0
7E03E0
ENDCHAR
STARTCHAR AC19
ENCODING 12336
SWIDTH 2700 0
DWIDTH 27 0
BBX 22 21 2 -3
BITMAP
0003E0
7FF3E0
7FF3E0
7FF3E0
01F3FC
01F3FC
03E3FC
0FE3E0
FFC3E0
7F03E0
7C03E0
200000
7FFFE0
7FFFE0
7FFFE0
7FFFE0
7FFFE0
7FFFE0
7FFFE0
3FFFE0
1FFFE0
ENDCHAR
STARTCHAR AC1A
ENCODING 12337
SWIDTH 2700 0
DWIDTH 27 0
BBX 22 21 2 -3
BITMAP
0003E0
7FF3E0
7FF3E0
7FF3E0
01F3FC
01F3FC
03E3FC
0FE3E0
FFC3E0
7F03E0
7C03E0
200000
7FFFE0
7FFFE0
7FFFE0
1F0780
1F0780
1F0780
7FFFE0
7FFFE0
7FFFE0
ENDCHAR
STARTCHAR AC1B
ENCODING 12338
SWIDTH 2700 0
DWIDTH 27 0
BBX 23 22 1 -4
BITMAP
0001F0
7FF9F0
7FF9F0
7FF9F0
00F9FE
00F9FE
01F1FE
03F1F0
0FE1F0
FFC1F0
7F01F0
787C00
007C00
3FFFF8
3FC7F8
3F87F8
0783C0
0787C0
07C7C0
07FFC0
03FF80
00FE00
ENDCHAR
STARTCHAR AC1C
ENCODING 12339
SWIDTH 2700 0
DWIDTH 27 0
BBX 19 21 2 -3
BITMAP
003DE0
FFBDE0
FFBDE0
FFBDE0
07BDE0
07BDE0
07BFE0
07BFE0
07BFE0
07BFE0
0FBDE0
0F3DE0
1F3DE0
7E3DE0
FE3DE0
FC3DE0
703DE0
403DE0
003DE0
003DE0
003DE0
ENDCHAR
STARTCHAR AC1D
ENCODING 12340
SWIDTH 2700 0
DWIDTH 27 0
BBX 20 21 1 -3
BITMAP
001EF0
FFDEF0
FFDEF0
FFDEF0
07DFF0
07DFF0
0FDFF0
1F9EF0
3F1EF0
FF1EF0
FC1EF0
781EF0
000000
3FFFF0
3FFFF0
3FFFF0
0000F0
0000F0
0000F0
0000F0
0000F0
ENDCHAR
STARTCHAR AC20
ENCODING 12341
SWIDTH 2700 0
DWIDTH 27 0
BBX 21 21 1 -3
BITMAP
001EF0
FF9EF0
FF9EF0
FF9EF0
079FF0
079FF0
0F9FF0
0F1EF0
1F1EF0
7E1EF0
FE1EF0
781EF0
701EF0
000000
7C0000
7C0000
7C0000
7C0000
7FFFF8
7FFFF8
3FFFF8
ENDCHAR
STARTCHAR AC24
ENCODING 12342
SWIDTH 2700 0
DWIDTH 27 0
BBX 20 21 1 -3
BITMAP
001EF0
FFDEF0
FFDEF0
FFDEF0
07DFF0
07DFF0
0F9FF0
1F9EF0
FF1EF0
FE1EF0
781EF0
000000
7FFFF0
7FFFF0
7FFFF0
7FFFF0
7FFFF0
7FFFF0
7FFFF0
7FFFF0
3FFFF0
ENDCHAR
STARTCHAR AC2C
ENCODING 12343
SWIDTH 2700 0
DWIDTH 27 0
BBX 20 21 1 -3
BITMAP
001EF0
FF9EF0
FF9EF0
FF9EF0
079FF0
079FF0
0F9FF0
1F1EF0
3F1EF0
FE1EF0
FC1EF0
701EF0
000000
7FFFF0
7FFFF0
7FFFF0
7C01F0
7C01F0
7FFFF0
7FFFF0
3FFFF0
ENDCHAR
STARTCHAR AC2D
ENCODING 12344
SWIDTH 2700 0
DWIDTH 27 0
BBX 20 21 1 -3
BITMAP
001EF0
FFDEF0
FFDEF0
FFDEF0
07DFF0
07DFF0
0FDFF0
1F9EF0
FF1EF0
FE1EF0
781EF0
600000
7801F0
7801F0
7FFFF0
7FFFF0
7FFFF0
7801F0
7FFFF0
7FFFF0
3FFFF0
ENDCHAR
STARTCHAR AC2F
ENCODING 12345
SWIDTH 2700 0
DWIDTH 27 0
BBX 21 21 1 -3
BITMAP
001EF0
FF9EF0
FF9EF0
FF9EF0
079FF0
079FF0
0F9FF0
1F1EF0
3F1EF0
FE1EF0
FC1EF0
701EF0
400000
007C00
007C00
00FE00
03FF80
7FEFF8
3FC7F8
3F01F0
180070
ENDCHAR
STARTCHAR AC30
ENCODING 12346
SWIDTH 2700 0
DWIDTH 27 0
BBX 22 21 0 -3
BITMAP
000F78
3FEF78
3FEF78
3FEF78
01EFF8
01EFF8
03EF78
07CF78
0FCF78
3F8F78
3F0F78
1C0000
13C7C0
07C7C0
07E7E0
07E7E0
1FFFF0
FEFFFC
7EFE7C
387C38
202810
ENDCHAR
STARTCHAR AC31
ENCODING 12347
SWIDTH 2700 0
DWIDTH 27 0
BBX 20 22 1 -4
BITMAP
001EF0
FFDEF0
FFDEF0
FFDEF0
07DEF0
07DFF0
0FDFF0
1F9FF0
3F1EF0
FE1EF0
FC1EF0
703FF0
40FFC0
01FFE0
03E1F0
03C0F0
03C0F0
03C0F0
03E1F0
01FFE0
00FFC0
003F00
ENDCHAR
STARTCHAR AC38
ENCODING 12348
SWIDTH 2700 0
DWIDTH 27 0
BBX 23 22 1 -4
BITMAP
0001F0
7FF9F0
7FF9F0
7FF9FE
00F9FE
00F9FE
00F9F0
00F9F0
00F1F0
01F1FE
01F1FE
03E1FE
07E1F0
1FC1F0
FF81F0
7F01F0
3C01F0
0001F0
0001F0
0001F0
0001F0
0001F0
ENDCHAR
STARTCHAR AC39
ENCODING 12349
SWIDTH 2700 0
DWIDTH 27 0
BBX 22 21 2 -3
BITMAP
0003E0
FFF3E0
FFF3FC
FFF3FC
01F3FC
01F3E0
03E3E0
07E3FC
3FC3FC
FF83FC
FE03E0
7803E0
0003E0
7FFFE0
7FFFE0
7FFFE0
0003E0
0003E0
0003E0
0003E0
0003E0
ENDCHAR
STARTCHAR AC3C
ENCODING 12350
SWIDTH 2700 0
DWIDTH 27 0
BBX 22 21 2 -3
BITMAP
0003E0
FFF3E0
FFF3FC
FFF3FC
01F3FC
01F3E0
03E3E0
03E3FC
0FC3FC
3F83FC
FF03E0
FE03E0
7003E0
0003E0
7C03E0
7C0000
7C0000
7C0000
7FFFF0
7FFFF0
3FFFF0
ENDCHAR
STARTCHAR AC40
ENCODING 12351
SWIDTH 2700 0
DWIDTH 27 0
BBX 22 21 2 -3
BITMAP
0003E0
FFF3E0
FFF3FC
FFF3FC
01F3FC
01F3E0
03E3E0
1FC3FC
FF83FC
FE03FC
7003E0
7FFFE0
7FFFE0
7FFFE0
0003E0
7FFFE0
7FFFE0
7FFFE0
7FFFF0
7FFFF0
3FFFF0
ENDCHAR
STARTCHAR AC4B
ENCODING 12352
SWIDTH 2700 0
DWIDTH 27 0
BBX 23 21 1 -3
BITMAP
0001F0
7FF9F0
7FF9FE
7FF9FE
00F9FE
00F9F0
01F1F0
03F1FE
0FE1FE
FFC1FE
7F01F0
3E01F0
303E00
003E00
007F00
00FF80
07FFE0
3FF7FC
1FC3FC
1F80F8
0C0038
ENDCHAR
STARTCHAR AC4D
ENCODING 12353
SWIDTH 2700 0
DWIDTH 27 0
BBX 23 22 1 -4
BITMAP
0001F0
7FF9F0
7FF9FE
7FF9FE
00F9FE
00F9F0
01F1F0
03F1FE
0FE1FE
FFC1FE
7F01F0
3E7FF0
21FFF0
03FFE0
03E1E0
07C0F0
07C0F0
07C0F0
03E1F0
03FFE0
01FFC0
007F00
ENDCHAR
STARTCHAR AC54
ENCODING 12354
SWIDTH 2700 0
DWIDTH 27 0
BBX 20 21 1 -3
BITMAP
001EF0
FF9EF0
FF9EF0
FF9EF0
079FF0
079FF0
079FF0
079EF0
079EF0
079EF0
0F9FF0
0F1FF0
1F1EF0
3E1EF0
FE1EF0
FC1EF0
781EF0
601EF0
001EF0
001EF0
001EF0
ENDCHAR
STARTCHAR AC58
ENCODING 12355
SWIDTH 2700 0
DWIDTH 27 0
BBX 21 21 1 -3
BITMAP
001EF0
FF9EF0
FF9FF0
FF9FF0
079FF0
079EF0
0F9EF0
0F1FF0
1F1FF0
7E1FF0
FC1EF0
781EF0
601EF0
000000
7C0000
7C0000
7C0000
7C0000
7FFFF8
7FFFF8
3FFFF8
ENDCHAR
STARTCHAR AC5C
ENCODING 12356
SWIDTH 2700 0
DWIDTH 27 0
BBX 20 21 1 -3
BITMAP
001EF0
FF9EF0
FF9FF0
FF9FF0
079FF0
0F9EF0
1F9EF0
7F1FF0
FE1FF0
FC1EF0
701EF0
7FFFF0
7FFFF0
7FFFF0
0001F0
7FFFF0
7FFFF0
7FFFF0
7FFFF0
7FFFF0
3FFFF0
ENDCHAR
STARTCHAR AC70
ENCODING 12357
SWIDTH 2700 0
DWIDTH 27 0
BBX 20 21 1 -3
BITMAP
0000F0
FFF0F0
FFF0F0
FFF0F0
01F0F0
01F0F0
01FFF0
01FFF0
01FFF0
03E0F0
03E0F0
07C0F0
1FC0F0
7F80F0
FF00F0
FE00F0
7800F0
6000F0
0000F0
0000F0
0000F0
ENDCHAR
STARTCHAR AC71
ENCODING 12358
SWIDTH 2700 0
DWIDTH 27 0
BBX 21 21 0 -3
BITMAP
000078
7FF878
7FF878
7FF878
00F878
00FFF8
01F7F8
03F7F8
0FE078
FFC078
7F8078
7C0078
000078
1FFFF8
1FFFF8
1FFFF8
000078
000078
000078
000078
000078
ENDCHAR
STARTCHAR AC74
ENCODING 12359
SWIDTH 2700 0
DWIDTH 27 0
BBX 20 21 1 -3
BITMAP
0001F0
FFF1F0
FFF1F0
FFF1F0
01F1F0
01FFF0
03EFF0
07EFF0
0FC1F0
FF81F0
FF01F0
FC01F0
F001F0
0001F0
7C0000
7C0000
7C0000
7C0000
7FFFF0
7FFFF0
3FFFF0
ENDCHAR
STARTCHAR AC77
ENCODING 12360
SWIDTH 2700 0
DWIDTH 27 0
BBX 20 21 1 -3
BITMAP
0001F0
FFF1F0
FFF1F0
FFF1F0
01F1F0
01FFF0
03EFF0
07EFF0
1FC1F0
FF81F0
FE01F0
7001F0
7FFFF0
7FFFF0
7FFFF0
7C0000
7C0000
7C0000
7FFFF0
7FFFF0
3FFFF0
ENDCHAR
STARTCHAR AC78
ENCODING 12361
SWIDTH 2700 0
DWIDTH 27 0
BBX 21 21 1 -3
BITMAP
0001F0
FFF1F0
FFF1F0
FFF1F0
01F1F0
01FFF0
03EFF0
1FEFF0
FFC1F0
FF01F0
7801F0
7FFFF0
7FFFF0
7FFFF0
0000F0
7FFFF0
7FFFF0
7FFFF0
7FFFF8
7FFFF8
3FFFF8
ENDCHAR
STARTCHAR AC7A
ENCODING 12362
SWIDTH 2700 0
DWIDTH 27 0
BBX 20 21 1 -3
BITMAP
0001F0
FFF1F0
FFF1F0
FFF1F0
01F1F0
01FFF0
03EFF0
1FEFF0
FFC1F0
FF01F0
7801F0
7FDFF0
7FDFF0
7FDFF0
03DEF0
7FDEF0
7FDEF0
7FDEF0
7FFFF0
7FFFF0
3FEFF0
ENDCHAR
STARTCHAR AC80
ENCODING 12363
SWIDTH 2700 0
DWIDTH 27 0
BBX 20 21 1 -3
BITMAP
0001F0
FFF1F0
FFF1F0
FFF1F0
01F1F0
01FFF0
03EFF0
07EFF0
1FC1F0
FF81F0
FE01F0
7001F0
000000
7FFFF0
7FFFF0
7FFFF0
7801F0
7801F0
7FFFF0
7FFFF0
3FFFF0
ENDCHAR
STARTCHAR AC81
ENCODING 12364
SWIDTH 2700 0
DWIDTH 27 0
BBX 20 21 1 -3
BITMAP
0001F0
FFF1F0
FFF1F0
FFF1F0
01F1F0
01FFF0
03EFF0
07EFF0
1FC1F0
FF81F0
FE01F0
7001F0
7C01F0
7C01F0
7FFFF0
7FFFF0
7FFFF0
7C01F0
7FFFF0
7FFFF0
3FFFF0
ENDCHAR
STARTCHAR AC83
ENCODING 12365
SWIDTH 2700 0
DWIDTH 27 0
BBX 21 21 1 -3
BITMAP
0001F0
FFF1F0
FFF1F0
FFF1F0
01F1F0
01F1F0
03EFF0
07EFF0
0FCFF0
3F81F0
FF01F0
FC01F0
707DF0
00FC00
01FE00
07FF00
7FFFC0
3FEFF8
3FC7F8
3F01F0
180070
ENDCHAR
STARTCHAR AC84
ENCODING 12366
SWIDTH 2700 0
DWIDTH 27 0
BBX 22 21 0 -3
BITMAP
000078
3FF878
3FF878
3FF878
00F878
00FFF8
01F7F8
03F7F8
1FE0F8
7FC0F8
3F00F8
380000
03C3C0
03C7C0
07E7E0
07E7E0
0FFFF0
FEFFFC
7EFE7C
386C38
202818
ENDCHAR
STARTCHAR AC85
ENCODING 12367
SWIDTH 2700 0
DWIDTH 27 0
BBX 20 22 1 -4
BITMAP
0000F0
FFF0F0
FFF0F0
FFF0F0
01F0F0
01F7F0
03E7F0
07E7F0
0FC0F0
3F80F0
FF00F0
FC3FF0
70FFF0
01FFE0
03E1F0
03C0F0
03C0F0
03C0F0
03E1F0
01FFE0
00FFC0
003F00
ENDCHAR
STARTCHAR AC86
ENCODING 12368
SWIDTH 2700 0
DWIDTH 27 0
BBX 20 21 1 -3
BITMAP
0001F0
FFF1F0
FFF1F0
FFF1F0
01F1F0
01EFF0
03EFF0
1FCFF0
FF81F0
7F01F0
7001F0
0001F0
3FFFF0
3FFFF0
3FFFF0
00F800
01FC00
07FE00
3FFFF0
3FCFE0
3E03E0
ENDCHAR
STARTCHAR AC89
ENCODING 12369
SWIDTH 2700 0
DWIDTH 27 0
BBX 21 21 0 -3
BITMAP
0000F8
7FF8F8
7FF8F8
7FF8F8
00F8F8
00FFF8
01F7F8
07F7F8
FFE0F8
7F80F8
7C00F8
3FFFF8
3FFFF8
3FFFF8
3E0000
3FFFF8
3FFFF8
3FFFF8
3FFFF8
1FFFF8
1FFFF8
ENDCHAR
STARTCHAR AC8A
ENCODING 12370
SWIDTH 2700 0
DWIDTH 27 0
BBX 21 21 0 -3
BITMAP
0000F8
7FF8F8
7FF8F8
7FF8F8
00F8F8
00FFF8
01F7F8
03F7F8
0FE0F8
FFC0F8
7F00F8
7800F8
1FFFF0
1FFFF0
1FFFF0
0783C0
0783C0
0783C0
1FFFF0
1FFFF0
1FFFF0
ENDCHAR
STARTCHAR AC8B
ENCODING 12371
SWIDTH 2700 0
DWIDTH 27 0
BBX 22 22 0 -4
BITMAP
0000F8
7FF8F8
7FF8F8
7FF8F8
00F8F8
00FFF8
01F7F8
03F7F8
0FE0F8
FFC0F8
7F00F8
783EF8
003E00
3FFFFC
3FE3FC
3FC3FC
03C1E0
03C3E0
03E3E0
03FFE0
01FFC0
007F00
ENDCHAR
ENDFONT
